%TF.GenerationSoftware,KiCad,Pcbnew,8.0.4*%
%TF.CreationDate,2025-12-30T09:28:17+05:30*%
%TF.ProjectId,inv,696e762e-6b69-4636-9164-5f7063625858,rev?*%
%TF.SameCoordinates,Original*%
%TF.FileFunction,Legend,Top*%
%TF.FilePolarity,Positive*%
%FSLAX46Y46*%
G04 Gerber Fmt 4.6, Leading zero omitted, Abs format (unit mm)*
G04 Created by KiCad (PCBNEW 8.0.4) date 2025-12-30 09:28:17*
%MOMM*%
%LPD*%
G01*
G04 APERTURE LIST*
%ADD10C,0.200000*%
%ADD11C,0.300000*%
%ADD12C,0.150000*%
%ADD13C,0.120000*%
G04 APERTURE END LIST*
D10*
X144228571Y-81767952D02*
X144114286Y-81710809D01*
X144114286Y-81710809D02*
X143942857Y-81710809D01*
X143942857Y-81710809D02*
X143771428Y-81767952D01*
X143771428Y-81767952D02*
X143657143Y-81882238D01*
X143657143Y-81882238D02*
X143600000Y-81996524D01*
X143600000Y-81996524D02*
X143542857Y-82225095D01*
X143542857Y-82225095D02*
X143542857Y-82396524D01*
X143542857Y-82396524D02*
X143600000Y-82625095D01*
X143600000Y-82625095D02*
X143657143Y-82739381D01*
X143657143Y-82739381D02*
X143771428Y-82853667D01*
X143771428Y-82853667D02*
X143942857Y-82910809D01*
X143942857Y-82910809D02*
X144057143Y-82910809D01*
X144057143Y-82910809D02*
X144228571Y-82853667D01*
X144228571Y-82853667D02*
X144285714Y-82796524D01*
X144285714Y-82796524D02*
X144285714Y-82396524D01*
X144285714Y-82396524D02*
X144057143Y-82396524D01*
X144800000Y-82110809D02*
X144800000Y-82910809D01*
X144800000Y-82225095D02*
X144857143Y-82167952D01*
X144857143Y-82167952D02*
X144971428Y-82110809D01*
X144971428Y-82110809D02*
X145142857Y-82110809D01*
X145142857Y-82110809D02*
X145257143Y-82167952D01*
X145257143Y-82167952D02*
X145314286Y-82282238D01*
X145314286Y-82282238D02*
X145314286Y-82910809D01*
X146400000Y-82910809D02*
X146400000Y-81710809D01*
X146400000Y-82853667D02*
X146285714Y-82910809D01*
X146285714Y-82910809D02*
X146057142Y-82910809D01*
X146057142Y-82910809D02*
X145942857Y-82853667D01*
X145942857Y-82853667D02*
X145885714Y-82796524D01*
X145885714Y-82796524D02*
X145828571Y-82682238D01*
X145828571Y-82682238D02*
X145828571Y-82339381D01*
X145828571Y-82339381D02*
X145885714Y-82225095D01*
X145885714Y-82225095D02*
X145942857Y-82167952D01*
X145942857Y-82167952D02*
X146057142Y-82110809D01*
X146057142Y-82110809D02*
X146285714Y-82110809D01*
X146285714Y-82110809D02*
X146400000Y-82167952D01*
X143457143Y-84385600D02*
X144371429Y-84385600D01*
X143914286Y-84842742D02*
X143914286Y-83928457D01*
X145514285Y-83642742D02*
X144942857Y-83642742D01*
X144942857Y-83642742D02*
X144885714Y-84214171D01*
X144885714Y-84214171D02*
X144942857Y-84157028D01*
X144942857Y-84157028D02*
X145057143Y-84099885D01*
X145057143Y-84099885D02*
X145342857Y-84099885D01*
X145342857Y-84099885D02*
X145457143Y-84157028D01*
X145457143Y-84157028D02*
X145514285Y-84214171D01*
X145514285Y-84214171D02*
X145571428Y-84328457D01*
X145571428Y-84328457D02*
X145571428Y-84614171D01*
X145571428Y-84614171D02*
X145514285Y-84728457D01*
X145514285Y-84728457D02*
X145457143Y-84785600D01*
X145457143Y-84785600D02*
X145342857Y-84842742D01*
X145342857Y-84842742D02*
X145057143Y-84842742D01*
X145057143Y-84842742D02*
X144942857Y-84785600D01*
X144942857Y-84785600D02*
X144885714Y-84728457D01*
X145914285Y-83642742D02*
X146314285Y-84842742D01*
X146314285Y-84842742D02*
X146714285Y-83642742D01*
D11*
X134445489Y-104229400D02*
X133302632Y-104229400D01*
X133874060Y-104800828D02*
X133874060Y-103657971D01*
X83866510Y-18596828D02*
X83866510Y-17096828D01*
X83866510Y-17096828D02*
X84223653Y-17096828D01*
X84223653Y-17096828D02*
X84437939Y-17168257D01*
X84437939Y-17168257D02*
X84580796Y-17311114D01*
X84580796Y-17311114D02*
X84652225Y-17453971D01*
X84652225Y-17453971D02*
X84723653Y-17739685D01*
X84723653Y-17739685D02*
X84723653Y-17953971D01*
X84723653Y-17953971D02*
X84652225Y-18239685D01*
X84652225Y-18239685D02*
X84580796Y-18382542D01*
X84580796Y-18382542D02*
X84437939Y-18525400D01*
X84437939Y-18525400D02*
X84223653Y-18596828D01*
X84223653Y-18596828D02*
X83866510Y-18596828D01*
X85366510Y-18596828D02*
X85366510Y-17596828D01*
X85366510Y-17096828D02*
X85295082Y-17168257D01*
X85295082Y-17168257D02*
X85366510Y-17239685D01*
X85366510Y-17239685D02*
X85437939Y-17168257D01*
X85437939Y-17168257D02*
X85366510Y-17096828D01*
X85366510Y-17096828D02*
X85366510Y-17239685D01*
X86723654Y-17596828D02*
X86723654Y-18811114D01*
X86723654Y-18811114D02*
X86652225Y-18953971D01*
X86652225Y-18953971D02*
X86580796Y-19025400D01*
X86580796Y-19025400D02*
X86437939Y-19096828D01*
X86437939Y-19096828D02*
X86223654Y-19096828D01*
X86223654Y-19096828D02*
X86080796Y-19025400D01*
X86723654Y-18525400D02*
X86580796Y-18596828D01*
X86580796Y-18596828D02*
X86295082Y-18596828D01*
X86295082Y-18596828D02*
X86152225Y-18525400D01*
X86152225Y-18525400D02*
X86080796Y-18453971D01*
X86080796Y-18453971D02*
X86009368Y-18311114D01*
X86009368Y-18311114D02*
X86009368Y-17882542D01*
X86009368Y-17882542D02*
X86080796Y-17739685D01*
X86080796Y-17739685D02*
X86152225Y-17668257D01*
X86152225Y-17668257D02*
X86295082Y-17596828D01*
X86295082Y-17596828D02*
X86580796Y-17596828D01*
X86580796Y-17596828D02*
X86723654Y-17668257D01*
X87437939Y-18596828D02*
X87437939Y-17596828D01*
X87437939Y-17096828D02*
X87366511Y-17168257D01*
X87366511Y-17168257D02*
X87437939Y-17239685D01*
X87437939Y-17239685D02*
X87509368Y-17168257D01*
X87509368Y-17168257D02*
X87437939Y-17096828D01*
X87437939Y-17096828D02*
X87437939Y-17239685D01*
X87937940Y-17596828D02*
X88509368Y-17596828D01*
X88152225Y-17096828D02*
X88152225Y-18382542D01*
X88152225Y-18382542D02*
X88223654Y-18525400D01*
X88223654Y-18525400D02*
X88366511Y-18596828D01*
X88366511Y-18596828D02*
X88509368Y-18596828D01*
X89652226Y-18596828D02*
X89652226Y-17811114D01*
X89652226Y-17811114D02*
X89580797Y-17668257D01*
X89580797Y-17668257D02*
X89437940Y-17596828D01*
X89437940Y-17596828D02*
X89152226Y-17596828D01*
X89152226Y-17596828D02*
X89009368Y-17668257D01*
X89652226Y-18525400D02*
X89509368Y-18596828D01*
X89509368Y-18596828D02*
X89152226Y-18596828D01*
X89152226Y-18596828D02*
X89009368Y-18525400D01*
X89009368Y-18525400D02*
X88937940Y-18382542D01*
X88937940Y-18382542D02*
X88937940Y-18239685D01*
X88937940Y-18239685D02*
X89009368Y-18096828D01*
X89009368Y-18096828D02*
X89152226Y-18025400D01*
X89152226Y-18025400D02*
X89509368Y-18025400D01*
X89509368Y-18025400D02*
X89652226Y-17953971D01*
X90580797Y-18596828D02*
X90437940Y-18525400D01*
X90437940Y-18525400D02*
X90366511Y-18382542D01*
X90366511Y-18382542D02*
X90366511Y-17096828D01*
X92795082Y-17811114D02*
X92295082Y-17811114D01*
X92295082Y-18596828D02*
X92295082Y-17096828D01*
X92295082Y-17096828D02*
X93009368Y-17096828D01*
X93580796Y-18596828D02*
X93580796Y-17596828D01*
X93580796Y-17096828D02*
X93509368Y-17168257D01*
X93509368Y-17168257D02*
X93580796Y-17239685D01*
X93580796Y-17239685D02*
X93652225Y-17168257D01*
X93652225Y-17168257D02*
X93580796Y-17096828D01*
X93580796Y-17096828D02*
X93580796Y-17239685D01*
X94295082Y-18596828D02*
X94295082Y-17596828D01*
X94295082Y-17882542D02*
X94366511Y-17739685D01*
X94366511Y-17739685D02*
X94437940Y-17668257D01*
X94437940Y-17668257D02*
X94580797Y-17596828D01*
X94580797Y-17596828D02*
X94723654Y-17596828D01*
X95223653Y-18596828D02*
X95223653Y-17596828D01*
X95223653Y-17096828D02*
X95152225Y-17168257D01*
X95152225Y-17168257D02*
X95223653Y-17239685D01*
X95223653Y-17239685D02*
X95295082Y-17168257D01*
X95295082Y-17168257D02*
X95223653Y-17096828D01*
X95223653Y-17096828D02*
X95223653Y-17239685D01*
X95937939Y-17596828D02*
X95937939Y-18596828D01*
X95937939Y-17739685D02*
X96009368Y-17668257D01*
X96009368Y-17668257D02*
X96152225Y-17596828D01*
X96152225Y-17596828D02*
X96366511Y-17596828D01*
X96366511Y-17596828D02*
X96509368Y-17668257D01*
X96509368Y-17668257D02*
X96580797Y-17811114D01*
X96580797Y-17811114D02*
X96580797Y-18596828D01*
X97937940Y-17596828D02*
X97937940Y-18811114D01*
X97937940Y-18811114D02*
X97866511Y-18953971D01*
X97866511Y-18953971D02*
X97795082Y-19025400D01*
X97795082Y-19025400D02*
X97652225Y-19096828D01*
X97652225Y-19096828D02*
X97437940Y-19096828D01*
X97437940Y-19096828D02*
X97295082Y-19025400D01*
X97937940Y-18525400D02*
X97795082Y-18596828D01*
X97795082Y-18596828D02*
X97509368Y-18596828D01*
X97509368Y-18596828D02*
X97366511Y-18525400D01*
X97366511Y-18525400D02*
X97295082Y-18453971D01*
X97295082Y-18453971D02*
X97223654Y-18311114D01*
X97223654Y-18311114D02*
X97223654Y-17882542D01*
X97223654Y-17882542D02*
X97295082Y-17739685D01*
X97295082Y-17739685D02*
X97366511Y-17668257D01*
X97366511Y-17668257D02*
X97509368Y-17596828D01*
X97509368Y-17596828D02*
X97795082Y-17596828D01*
X97795082Y-17596828D02*
X97937940Y-17668257D01*
X100437940Y-18525400D02*
X100295082Y-18596828D01*
X100295082Y-18596828D02*
X100009368Y-18596828D01*
X100009368Y-18596828D02*
X99866511Y-18525400D01*
X99866511Y-18525400D02*
X99795082Y-18453971D01*
X99795082Y-18453971D02*
X99723654Y-18311114D01*
X99723654Y-18311114D02*
X99723654Y-17882542D01*
X99723654Y-17882542D02*
X99795082Y-17739685D01*
X99795082Y-17739685D02*
X99866511Y-17668257D01*
X99866511Y-17668257D02*
X100009368Y-17596828D01*
X100009368Y-17596828D02*
X100295082Y-17596828D01*
X100295082Y-17596828D02*
X100437940Y-17668257D01*
X101080796Y-18596828D02*
X101080796Y-17596828D01*
X101080796Y-17096828D02*
X101009368Y-17168257D01*
X101009368Y-17168257D02*
X101080796Y-17239685D01*
X101080796Y-17239685D02*
X101152225Y-17168257D01*
X101152225Y-17168257D02*
X101080796Y-17096828D01*
X101080796Y-17096828D02*
X101080796Y-17239685D01*
X101795082Y-18596828D02*
X101795082Y-17596828D01*
X101795082Y-17882542D02*
X101866511Y-17739685D01*
X101866511Y-17739685D02*
X101937940Y-17668257D01*
X101937940Y-17668257D02*
X102080797Y-17596828D01*
X102080797Y-17596828D02*
X102223654Y-17596828D01*
X103366511Y-18525400D02*
X103223653Y-18596828D01*
X103223653Y-18596828D02*
X102937939Y-18596828D01*
X102937939Y-18596828D02*
X102795082Y-18525400D01*
X102795082Y-18525400D02*
X102723653Y-18453971D01*
X102723653Y-18453971D02*
X102652225Y-18311114D01*
X102652225Y-18311114D02*
X102652225Y-17882542D01*
X102652225Y-17882542D02*
X102723653Y-17739685D01*
X102723653Y-17739685D02*
X102795082Y-17668257D01*
X102795082Y-17668257D02*
X102937939Y-17596828D01*
X102937939Y-17596828D02*
X103223653Y-17596828D01*
X103223653Y-17596828D02*
X103366511Y-17668257D01*
X104652225Y-17596828D02*
X104652225Y-18596828D01*
X104009367Y-17596828D02*
X104009367Y-18382542D01*
X104009367Y-18382542D02*
X104080796Y-18525400D01*
X104080796Y-18525400D02*
X104223653Y-18596828D01*
X104223653Y-18596828D02*
X104437939Y-18596828D01*
X104437939Y-18596828D02*
X104580796Y-18525400D01*
X104580796Y-18525400D02*
X104652225Y-18453971D01*
X105366510Y-18596828D02*
X105366510Y-17596828D01*
X105366510Y-17096828D02*
X105295082Y-17168257D01*
X105295082Y-17168257D02*
X105366510Y-17239685D01*
X105366510Y-17239685D02*
X105437939Y-17168257D01*
X105437939Y-17168257D02*
X105366510Y-17096828D01*
X105366510Y-17096828D02*
X105366510Y-17239685D01*
X105866511Y-17596828D02*
X106437939Y-17596828D01*
X106080796Y-17096828D02*
X106080796Y-18382542D01*
X106080796Y-18382542D02*
X106152225Y-18525400D01*
X106152225Y-18525400D02*
X106295082Y-18596828D01*
X106295082Y-18596828D02*
X106437939Y-18596828D01*
X108580796Y-17811114D02*
X108080796Y-17811114D01*
X108080796Y-18596828D02*
X108080796Y-17096828D01*
X108080796Y-17096828D02*
X108795082Y-17096828D01*
X109580796Y-18596828D02*
X109437939Y-18525400D01*
X109437939Y-18525400D02*
X109366510Y-18453971D01*
X109366510Y-18453971D02*
X109295082Y-18311114D01*
X109295082Y-18311114D02*
X109295082Y-17882542D01*
X109295082Y-17882542D02*
X109366510Y-17739685D01*
X109366510Y-17739685D02*
X109437939Y-17668257D01*
X109437939Y-17668257D02*
X109580796Y-17596828D01*
X109580796Y-17596828D02*
X109795082Y-17596828D01*
X109795082Y-17596828D02*
X109937939Y-17668257D01*
X109937939Y-17668257D02*
X110009368Y-17739685D01*
X110009368Y-17739685D02*
X110080796Y-17882542D01*
X110080796Y-17882542D02*
X110080796Y-18311114D01*
X110080796Y-18311114D02*
X110009368Y-18453971D01*
X110009368Y-18453971D02*
X109937939Y-18525400D01*
X109937939Y-18525400D02*
X109795082Y-18596828D01*
X109795082Y-18596828D02*
X109580796Y-18596828D01*
X110723653Y-18596828D02*
X110723653Y-17596828D01*
X110723653Y-17882542D02*
X110795082Y-17739685D01*
X110795082Y-17739685D02*
X110866511Y-17668257D01*
X110866511Y-17668257D02*
X111009368Y-17596828D01*
X111009368Y-17596828D02*
X111152225Y-17596828D01*
X112723653Y-18525400D02*
X112866510Y-18596828D01*
X112866510Y-18596828D02*
X113152224Y-18596828D01*
X113152224Y-18596828D02*
X113295081Y-18525400D01*
X113295081Y-18525400D02*
X113366510Y-18382542D01*
X113366510Y-18382542D02*
X113366510Y-18311114D01*
X113366510Y-18311114D02*
X113295081Y-18168257D01*
X113295081Y-18168257D02*
X113152224Y-18096828D01*
X113152224Y-18096828D02*
X112937939Y-18096828D01*
X112937939Y-18096828D02*
X112795081Y-18025400D01*
X112795081Y-18025400D02*
X112723653Y-17882542D01*
X112723653Y-17882542D02*
X112723653Y-17811114D01*
X112723653Y-17811114D02*
X112795081Y-17668257D01*
X112795081Y-17668257D02*
X112937939Y-17596828D01*
X112937939Y-17596828D02*
X113152224Y-17596828D01*
X113152224Y-17596828D02*
X113295081Y-17668257D01*
X114009367Y-18596828D02*
X114009367Y-17596828D01*
X114009367Y-17096828D02*
X113937939Y-17168257D01*
X113937939Y-17168257D02*
X114009367Y-17239685D01*
X114009367Y-17239685D02*
X114080796Y-17168257D01*
X114080796Y-17168257D02*
X114009367Y-17096828D01*
X114009367Y-17096828D02*
X114009367Y-17239685D01*
X114723653Y-17596828D02*
X114723653Y-18596828D01*
X114723653Y-17739685D02*
X114795082Y-17668257D01*
X114795082Y-17668257D02*
X114937939Y-17596828D01*
X114937939Y-17596828D02*
X115152225Y-17596828D01*
X115152225Y-17596828D02*
X115295082Y-17668257D01*
X115295082Y-17668257D02*
X115366511Y-17811114D01*
X115366511Y-17811114D02*
X115366511Y-18596828D01*
X116723654Y-17596828D02*
X116723654Y-18811114D01*
X116723654Y-18811114D02*
X116652225Y-18953971D01*
X116652225Y-18953971D02*
X116580796Y-19025400D01*
X116580796Y-19025400D02*
X116437939Y-19096828D01*
X116437939Y-19096828D02*
X116223654Y-19096828D01*
X116223654Y-19096828D02*
X116080796Y-19025400D01*
X116723654Y-18525400D02*
X116580796Y-18596828D01*
X116580796Y-18596828D02*
X116295082Y-18596828D01*
X116295082Y-18596828D02*
X116152225Y-18525400D01*
X116152225Y-18525400D02*
X116080796Y-18453971D01*
X116080796Y-18453971D02*
X116009368Y-18311114D01*
X116009368Y-18311114D02*
X116009368Y-17882542D01*
X116009368Y-17882542D02*
X116080796Y-17739685D01*
X116080796Y-17739685D02*
X116152225Y-17668257D01*
X116152225Y-17668257D02*
X116295082Y-17596828D01*
X116295082Y-17596828D02*
X116580796Y-17596828D01*
X116580796Y-17596828D02*
X116723654Y-17668257D01*
X117652225Y-18596828D02*
X117509368Y-18525400D01*
X117509368Y-18525400D02*
X117437939Y-18382542D01*
X117437939Y-18382542D02*
X117437939Y-17096828D01*
X118795082Y-18525400D02*
X118652225Y-18596828D01*
X118652225Y-18596828D02*
X118366511Y-18596828D01*
X118366511Y-18596828D02*
X118223653Y-18525400D01*
X118223653Y-18525400D02*
X118152225Y-18382542D01*
X118152225Y-18382542D02*
X118152225Y-17811114D01*
X118152225Y-17811114D02*
X118223653Y-17668257D01*
X118223653Y-17668257D02*
X118366511Y-17596828D01*
X118366511Y-17596828D02*
X118652225Y-17596828D01*
X118652225Y-17596828D02*
X118795082Y-17668257D01*
X118795082Y-17668257D02*
X118866511Y-17811114D01*
X118866511Y-17811114D02*
X118866511Y-17953971D01*
X118866511Y-17953971D02*
X118152225Y-18096828D01*
X120652224Y-17596828D02*
X120652224Y-19096828D01*
X120652224Y-17668257D02*
X120795082Y-17596828D01*
X120795082Y-17596828D02*
X121080796Y-17596828D01*
X121080796Y-17596828D02*
X121223653Y-17668257D01*
X121223653Y-17668257D02*
X121295082Y-17739685D01*
X121295082Y-17739685D02*
X121366510Y-17882542D01*
X121366510Y-17882542D02*
X121366510Y-18311114D01*
X121366510Y-18311114D02*
X121295082Y-18453971D01*
X121295082Y-18453971D02*
X121223653Y-18525400D01*
X121223653Y-18525400D02*
X121080796Y-18596828D01*
X121080796Y-18596828D02*
X120795082Y-18596828D01*
X120795082Y-18596828D02*
X120652224Y-18525400D01*
X122009367Y-18596828D02*
X122009367Y-17096828D01*
X122652225Y-18596828D02*
X122652225Y-17811114D01*
X122652225Y-17811114D02*
X122580796Y-17668257D01*
X122580796Y-17668257D02*
X122437939Y-17596828D01*
X122437939Y-17596828D02*
X122223653Y-17596828D01*
X122223653Y-17596828D02*
X122080796Y-17668257D01*
X122080796Y-17668257D02*
X122009367Y-17739685D01*
X124009368Y-18596828D02*
X124009368Y-17811114D01*
X124009368Y-17811114D02*
X123937939Y-17668257D01*
X123937939Y-17668257D02*
X123795082Y-17596828D01*
X123795082Y-17596828D02*
X123509368Y-17596828D01*
X123509368Y-17596828D02*
X123366510Y-17668257D01*
X124009368Y-18525400D02*
X123866510Y-18596828D01*
X123866510Y-18596828D02*
X123509368Y-18596828D01*
X123509368Y-18596828D02*
X123366510Y-18525400D01*
X123366510Y-18525400D02*
X123295082Y-18382542D01*
X123295082Y-18382542D02*
X123295082Y-18239685D01*
X123295082Y-18239685D02*
X123366510Y-18096828D01*
X123366510Y-18096828D02*
X123509368Y-18025400D01*
X123509368Y-18025400D02*
X123866510Y-18025400D01*
X123866510Y-18025400D02*
X124009368Y-17953971D01*
X124652225Y-18525400D02*
X124795082Y-18596828D01*
X124795082Y-18596828D02*
X125080796Y-18596828D01*
X125080796Y-18596828D02*
X125223653Y-18525400D01*
X125223653Y-18525400D02*
X125295082Y-18382542D01*
X125295082Y-18382542D02*
X125295082Y-18311114D01*
X125295082Y-18311114D02*
X125223653Y-18168257D01*
X125223653Y-18168257D02*
X125080796Y-18096828D01*
X125080796Y-18096828D02*
X124866511Y-18096828D01*
X124866511Y-18096828D02*
X124723653Y-18025400D01*
X124723653Y-18025400D02*
X124652225Y-17882542D01*
X124652225Y-17882542D02*
X124652225Y-17811114D01*
X124652225Y-17811114D02*
X124723653Y-17668257D01*
X124723653Y-17668257D02*
X124866511Y-17596828D01*
X124866511Y-17596828D02*
X125080796Y-17596828D01*
X125080796Y-17596828D02*
X125223653Y-17668257D01*
X126509368Y-18525400D02*
X126366511Y-18596828D01*
X126366511Y-18596828D02*
X126080797Y-18596828D01*
X126080797Y-18596828D02*
X125937939Y-18525400D01*
X125937939Y-18525400D02*
X125866511Y-18382542D01*
X125866511Y-18382542D02*
X125866511Y-17811114D01*
X125866511Y-17811114D02*
X125937939Y-17668257D01*
X125937939Y-17668257D02*
X126080797Y-17596828D01*
X126080797Y-17596828D02*
X126366511Y-17596828D01*
X126366511Y-17596828D02*
X126509368Y-17668257D01*
X126509368Y-17668257D02*
X126580797Y-17811114D01*
X126580797Y-17811114D02*
X126580797Y-17953971D01*
X126580797Y-17953971D02*
X125866511Y-18096828D01*
X128366510Y-18596828D02*
X128366510Y-17596828D01*
X128366510Y-17096828D02*
X128295082Y-17168257D01*
X128295082Y-17168257D02*
X128366510Y-17239685D01*
X128366510Y-17239685D02*
X128437939Y-17168257D01*
X128437939Y-17168257D02*
X128366510Y-17096828D01*
X128366510Y-17096828D02*
X128366510Y-17239685D01*
X129080796Y-17596828D02*
X129080796Y-18596828D01*
X129080796Y-17739685D02*
X129152225Y-17668257D01*
X129152225Y-17668257D02*
X129295082Y-17596828D01*
X129295082Y-17596828D02*
X129509368Y-17596828D01*
X129509368Y-17596828D02*
X129652225Y-17668257D01*
X129652225Y-17668257D02*
X129723654Y-17811114D01*
X129723654Y-17811114D02*
X129723654Y-18596828D01*
X130295082Y-17596828D02*
X130652225Y-18596828D01*
X130652225Y-18596828D02*
X131009368Y-17596828D01*
X132152225Y-18525400D02*
X132009368Y-18596828D01*
X132009368Y-18596828D02*
X131723654Y-18596828D01*
X131723654Y-18596828D02*
X131580796Y-18525400D01*
X131580796Y-18525400D02*
X131509368Y-18382542D01*
X131509368Y-18382542D02*
X131509368Y-17811114D01*
X131509368Y-17811114D02*
X131580796Y-17668257D01*
X131580796Y-17668257D02*
X131723654Y-17596828D01*
X131723654Y-17596828D02*
X132009368Y-17596828D01*
X132009368Y-17596828D02*
X132152225Y-17668257D01*
X132152225Y-17668257D02*
X132223654Y-17811114D01*
X132223654Y-17811114D02*
X132223654Y-17953971D01*
X132223654Y-17953971D02*
X131509368Y-18096828D01*
X132866510Y-18596828D02*
X132866510Y-17596828D01*
X132866510Y-17882542D02*
X132937939Y-17739685D01*
X132937939Y-17739685D02*
X133009368Y-17668257D01*
X133009368Y-17668257D02*
X133152225Y-17596828D01*
X133152225Y-17596828D02*
X133295082Y-17596828D01*
X133580796Y-17596828D02*
X134152224Y-17596828D01*
X133795081Y-17096828D02*
X133795081Y-18382542D01*
X133795081Y-18382542D02*
X133866510Y-18525400D01*
X133866510Y-18525400D02*
X134009367Y-18596828D01*
X134009367Y-18596828D02*
X134152224Y-18596828D01*
X135223653Y-18525400D02*
X135080796Y-18596828D01*
X135080796Y-18596828D02*
X134795082Y-18596828D01*
X134795082Y-18596828D02*
X134652224Y-18525400D01*
X134652224Y-18525400D02*
X134580796Y-18382542D01*
X134580796Y-18382542D02*
X134580796Y-17811114D01*
X134580796Y-17811114D02*
X134652224Y-17668257D01*
X134652224Y-17668257D02*
X134795082Y-17596828D01*
X134795082Y-17596828D02*
X135080796Y-17596828D01*
X135080796Y-17596828D02*
X135223653Y-17668257D01*
X135223653Y-17668257D02*
X135295082Y-17811114D01*
X135295082Y-17811114D02*
X135295082Y-17953971D01*
X135295082Y-17953971D02*
X134580796Y-18096828D01*
X135937938Y-18596828D02*
X135937938Y-17596828D01*
X135937938Y-17882542D02*
X136009367Y-17739685D01*
X136009367Y-17739685D02*
X136080796Y-17668257D01*
X136080796Y-17668257D02*
X136223653Y-17596828D01*
X136223653Y-17596828D02*
X136366510Y-17596828D01*
D10*
X143642742Y-73142856D02*
X143642742Y-72914284D01*
X143642742Y-72914284D02*
X143699885Y-72799999D01*
X143699885Y-72799999D02*
X143814171Y-72685713D01*
X143814171Y-72685713D02*
X144042742Y-72628570D01*
X144042742Y-72628570D02*
X144442742Y-72628570D01*
X144442742Y-72628570D02*
X144671314Y-72685713D01*
X144671314Y-72685713D02*
X144785600Y-72799999D01*
X144785600Y-72799999D02*
X144842742Y-72914284D01*
X144842742Y-72914284D02*
X144842742Y-73142856D01*
X144842742Y-73142856D02*
X144785600Y-73257142D01*
X144785600Y-73257142D02*
X144671314Y-73371427D01*
X144671314Y-73371427D02*
X144442742Y-73428570D01*
X144442742Y-73428570D02*
X144042742Y-73428570D01*
X144042742Y-73428570D02*
X143814171Y-73371427D01*
X143814171Y-73371427D02*
X143699885Y-73257142D01*
X143699885Y-73257142D02*
X143642742Y-73142856D01*
X144042742Y-71599999D02*
X144842742Y-71599999D01*
X144042742Y-72114284D02*
X144671314Y-72114284D01*
X144671314Y-72114284D02*
X144785600Y-72057141D01*
X144785600Y-72057141D02*
X144842742Y-71942856D01*
X144842742Y-71942856D02*
X144842742Y-71771427D01*
X144842742Y-71771427D02*
X144785600Y-71657141D01*
X144785600Y-71657141D02*
X144728457Y-71599999D01*
X144042742Y-71199999D02*
X144042742Y-70742856D01*
X143642742Y-71028570D02*
X144671314Y-71028570D01*
X144671314Y-71028570D02*
X144785600Y-70971427D01*
X144785600Y-70971427D02*
X144842742Y-70857142D01*
X144842742Y-70857142D02*
X144842742Y-70742856D01*
X143699885Y-68799999D02*
X143642742Y-68914285D01*
X143642742Y-68914285D02*
X143642742Y-69085713D01*
X143642742Y-69085713D02*
X143699885Y-69257142D01*
X143699885Y-69257142D02*
X143814171Y-69371427D01*
X143814171Y-69371427D02*
X143928457Y-69428570D01*
X143928457Y-69428570D02*
X144157028Y-69485713D01*
X144157028Y-69485713D02*
X144328457Y-69485713D01*
X144328457Y-69485713D02*
X144557028Y-69428570D01*
X144557028Y-69428570D02*
X144671314Y-69371427D01*
X144671314Y-69371427D02*
X144785600Y-69257142D01*
X144785600Y-69257142D02*
X144842742Y-69085713D01*
X144842742Y-69085713D02*
X144842742Y-68971427D01*
X144842742Y-68971427D02*
X144785600Y-68799999D01*
X144785600Y-68799999D02*
X144728457Y-68742856D01*
X144728457Y-68742856D02*
X144328457Y-68742856D01*
X144328457Y-68742856D02*
X144328457Y-68971427D01*
X144042742Y-68228570D02*
X144842742Y-68228570D01*
X144157028Y-68228570D02*
X144099885Y-68171427D01*
X144099885Y-68171427D02*
X144042742Y-68057142D01*
X144042742Y-68057142D02*
X144042742Y-67885713D01*
X144042742Y-67885713D02*
X144099885Y-67771427D01*
X144099885Y-67771427D02*
X144214171Y-67714285D01*
X144214171Y-67714285D02*
X144842742Y-67714285D01*
X144842742Y-66628571D02*
X143642742Y-66628571D01*
X144785600Y-66628571D02*
X144842742Y-66742856D01*
X144842742Y-66742856D02*
X144842742Y-66971428D01*
X144842742Y-66971428D02*
X144785600Y-67085713D01*
X144785600Y-67085713D02*
X144728457Y-67142856D01*
X144728457Y-67142856D02*
X144614171Y-67199999D01*
X144614171Y-67199999D02*
X144271314Y-67199999D01*
X144271314Y-67199999D02*
X144157028Y-67142856D01*
X144157028Y-67142856D02*
X144099885Y-67085713D01*
X144099885Y-67085713D02*
X144042742Y-66971428D01*
X144042742Y-66971428D02*
X144042742Y-66742856D01*
X144042742Y-66742856D02*
X144099885Y-66628571D01*
D11*
X144445489Y-104229400D02*
X143302632Y-104229400D01*
D10*
X143061904Y-87664995D02*
X143900000Y-87664995D01*
X145000000Y-88084042D02*
X144371428Y-88084042D01*
X144685714Y-88084042D02*
X144685714Y-86984042D01*
X144685714Y-86984042D02*
X144580952Y-87141185D01*
X144580952Y-87141185D02*
X144476190Y-87245947D01*
X144476190Y-87245947D02*
X144371428Y-87298328D01*
X145419047Y-87088804D02*
X145471428Y-87036423D01*
X145471428Y-87036423D02*
X145576190Y-86984042D01*
X145576190Y-86984042D02*
X145838095Y-86984042D01*
X145838095Y-86984042D02*
X145942857Y-87036423D01*
X145942857Y-87036423D02*
X145995238Y-87088804D01*
X145995238Y-87088804D02*
X146047619Y-87193566D01*
X146047619Y-87193566D02*
X146047619Y-87298328D01*
X146047619Y-87298328D02*
X145995238Y-87455471D01*
X145995238Y-87455471D02*
X145366666Y-88084042D01*
X145366666Y-88084042D02*
X146047619Y-88084042D01*
X146361904Y-86984042D02*
X146728571Y-88084042D01*
X146728571Y-88084042D02*
X147095238Y-86984042D01*
X143480952Y-89435933D02*
X144319048Y-89435933D01*
X143900000Y-89854980D02*
X143900000Y-89016885D01*
X145419048Y-89854980D02*
X144790476Y-89854980D01*
X145104762Y-89854980D02*
X145104762Y-88754980D01*
X145104762Y-88754980D02*
X145000000Y-88912123D01*
X145000000Y-88912123D02*
X144895238Y-89016885D01*
X144895238Y-89016885D02*
X144790476Y-89069266D01*
X145838095Y-88859742D02*
X145890476Y-88807361D01*
X145890476Y-88807361D02*
X145995238Y-88754980D01*
X145995238Y-88754980D02*
X146257143Y-88754980D01*
X146257143Y-88754980D02*
X146361905Y-88807361D01*
X146361905Y-88807361D02*
X146414286Y-88859742D01*
X146414286Y-88859742D02*
X146466667Y-88964504D01*
X146466667Y-88964504D02*
X146466667Y-89069266D01*
X146466667Y-89069266D02*
X146414286Y-89226409D01*
X146414286Y-89226409D02*
X145785714Y-89854980D01*
X145785714Y-89854980D02*
X146466667Y-89854980D01*
X146780952Y-88754980D02*
X147147619Y-89854980D01*
X147147619Y-89854980D02*
X147514286Y-88754980D01*
D12*
X106513333Y-95863580D02*
X106465714Y-95911200D01*
X106465714Y-95911200D02*
X106322857Y-95958819D01*
X106322857Y-95958819D02*
X106227619Y-95958819D01*
X106227619Y-95958819D02*
X106084762Y-95911200D01*
X106084762Y-95911200D02*
X105989524Y-95815961D01*
X105989524Y-95815961D02*
X105941905Y-95720723D01*
X105941905Y-95720723D02*
X105894286Y-95530247D01*
X105894286Y-95530247D02*
X105894286Y-95387390D01*
X105894286Y-95387390D02*
X105941905Y-95196914D01*
X105941905Y-95196914D02*
X105989524Y-95101676D01*
X105989524Y-95101676D02*
X106084762Y-95006438D01*
X106084762Y-95006438D02*
X106227619Y-94958819D01*
X106227619Y-94958819D02*
X106322857Y-94958819D01*
X106322857Y-94958819D02*
X106465714Y-95006438D01*
X106465714Y-95006438D02*
X106513333Y-95054057D01*
X107084762Y-95387390D02*
X106989524Y-95339771D01*
X106989524Y-95339771D02*
X106941905Y-95292152D01*
X106941905Y-95292152D02*
X106894286Y-95196914D01*
X106894286Y-95196914D02*
X106894286Y-95149295D01*
X106894286Y-95149295D02*
X106941905Y-95054057D01*
X106941905Y-95054057D02*
X106989524Y-95006438D01*
X106989524Y-95006438D02*
X107084762Y-94958819D01*
X107084762Y-94958819D02*
X107275238Y-94958819D01*
X107275238Y-94958819D02*
X107370476Y-95006438D01*
X107370476Y-95006438D02*
X107418095Y-95054057D01*
X107418095Y-95054057D02*
X107465714Y-95149295D01*
X107465714Y-95149295D02*
X107465714Y-95196914D01*
X107465714Y-95196914D02*
X107418095Y-95292152D01*
X107418095Y-95292152D02*
X107370476Y-95339771D01*
X107370476Y-95339771D02*
X107275238Y-95387390D01*
X107275238Y-95387390D02*
X107084762Y-95387390D01*
X107084762Y-95387390D02*
X106989524Y-95435009D01*
X106989524Y-95435009D02*
X106941905Y-95482628D01*
X106941905Y-95482628D02*
X106894286Y-95577866D01*
X106894286Y-95577866D02*
X106894286Y-95768342D01*
X106894286Y-95768342D02*
X106941905Y-95863580D01*
X106941905Y-95863580D02*
X106989524Y-95911200D01*
X106989524Y-95911200D02*
X107084762Y-95958819D01*
X107084762Y-95958819D02*
X107275238Y-95958819D01*
X107275238Y-95958819D02*
X107370476Y-95911200D01*
X107370476Y-95911200D02*
X107418095Y-95863580D01*
X107418095Y-95863580D02*
X107465714Y-95768342D01*
X107465714Y-95768342D02*
X107465714Y-95577866D01*
X107465714Y-95577866D02*
X107418095Y-95482628D01*
X107418095Y-95482628D02*
X107370476Y-95435009D01*
X107370476Y-95435009D02*
X107275238Y-95387390D01*
X103973333Y-78516819D02*
X103640000Y-78040628D01*
X103401905Y-78516819D02*
X103401905Y-77516819D01*
X103401905Y-77516819D02*
X103782857Y-77516819D01*
X103782857Y-77516819D02*
X103878095Y-77564438D01*
X103878095Y-77564438D02*
X103925714Y-77612057D01*
X103925714Y-77612057D02*
X103973333Y-77707295D01*
X103973333Y-77707295D02*
X103973333Y-77850152D01*
X103973333Y-77850152D02*
X103925714Y-77945390D01*
X103925714Y-77945390D02*
X103878095Y-77993009D01*
X103878095Y-77993009D02*
X103782857Y-78040628D01*
X103782857Y-78040628D02*
X103401905Y-78040628D01*
X104449524Y-78516819D02*
X104640000Y-78516819D01*
X104640000Y-78516819D02*
X104735238Y-78469200D01*
X104735238Y-78469200D02*
X104782857Y-78421580D01*
X104782857Y-78421580D02*
X104878095Y-78278723D01*
X104878095Y-78278723D02*
X104925714Y-78088247D01*
X104925714Y-78088247D02*
X104925714Y-77707295D01*
X104925714Y-77707295D02*
X104878095Y-77612057D01*
X104878095Y-77612057D02*
X104830476Y-77564438D01*
X104830476Y-77564438D02*
X104735238Y-77516819D01*
X104735238Y-77516819D02*
X104544762Y-77516819D01*
X104544762Y-77516819D02*
X104449524Y-77564438D01*
X104449524Y-77564438D02*
X104401905Y-77612057D01*
X104401905Y-77612057D02*
X104354286Y-77707295D01*
X104354286Y-77707295D02*
X104354286Y-77945390D01*
X104354286Y-77945390D02*
X104401905Y-78040628D01*
X104401905Y-78040628D02*
X104449524Y-78088247D01*
X104449524Y-78088247D02*
X104544762Y-78135866D01*
X104544762Y-78135866D02*
X104735238Y-78135866D01*
X104735238Y-78135866D02*
X104830476Y-78088247D01*
X104830476Y-78088247D02*
X104878095Y-78040628D01*
X104878095Y-78040628D02*
X104925714Y-77945390D01*
X107060761Y-87771057D02*
X106965523Y-87723438D01*
X106965523Y-87723438D02*
X106870285Y-87628200D01*
X106870285Y-87628200D02*
X106727428Y-87485342D01*
X106727428Y-87485342D02*
X106632190Y-87437723D01*
X106632190Y-87437723D02*
X106536952Y-87437723D01*
X106584571Y-87675819D02*
X106489333Y-87628200D01*
X106489333Y-87628200D02*
X106394095Y-87532961D01*
X106394095Y-87532961D02*
X106346476Y-87342485D01*
X106346476Y-87342485D02*
X106346476Y-87009152D01*
X106346476Y-87009152D02*
X106394095Y-86818676D01*
X106394095Y-86818676D02*
X106489333Y-86723438D01*
X106489333Y-86723438D02*
X106584571Y-86675819D01*
X106584571Y-86675819D02*
X106775047Y-86675819D01*
X106775047Y-86675819D02*
X106870285Y-86723438D01*
X106870285Y-86723438D02*
X106965523Y-86818676D01*
X106965523Y-86818676D02*
X107013142Y-87009152D01*
X107013142Y-87009152D02*
X107013142Y-87342485D01*
X107013142Y-87342485D02*
X106965523Y-87532961D01*
X106965523Y-87532961D02*
X106870285Y-87628200D01*
X106870285Y-87628200D02*
X106775047Y-87675819D01*
X106775047Y-87675819D02*
X106584571Y-87675819D01*
X107346476Y-86675819D02*
X107965523Y-86675819D01*
X107965523Y-86675819D02*
X107632190Y-87056771D01*
X107632190Y-87056771D02*
X107775047Y-87056771D01*
X107775047Y-87056771D02*
X107870285Y-87104390D01*
X107870285Y-87104390D02*
X107917904Y-87152009D01*
X107917904Y-87152009D02*
X107965523Y-87247247D01*
X107965523Y-87247247D02*
X107965523Y-87485342D01*
X107965523Y-87485342D02*
X107917904Y-87580580D01*
X107917904Y-87580580D02*
X107870285Y-87628200D01*
X107870285Y-87628200D02*
X107775047Y-87675819D01*
X107775047Y-87675819D02*
X107489333Y-87675819D01*
X107489333Y-87675819D02*
X107394095Y-87628200D01*
X107394095Y-87628200D02*
X107346476Y-87580580D01*
X122062095Y-62495319D02*
X122062095Y-63304842D01*
X122062095Y-63304842D02*
X122109714Y-63400080D01*
X122109714Y-63400080D02*
X122157333Y-63447700D01*
X122157333Y-63447700D02*
X122252571Y-63495319D01*
X122252571Y-63495319D02*
X122443047Y-63495319D01*
X122443047Y-63495319D02*
X122538285Y-63447700D01*
X122538285Y-63447700D02*
X122585904Y-63400080D01*
X122585904Y-63400080D02*
X122633523Y-63304842D01*
X122633523Y-63304842D02*
X122633523Y-62495319D01*
X123633523Y-63495319D02*
X123062095Y-63495319D01*
X123347809Y-63495319D02*
X123347809Y-62495319D01*
X123347809Y-62495319D02*
X123252571Y-62638176D01*
X123252571Y-62638176D02*
X123157333Y-62733414D01*
X123157333Y-62733414D02*
X123062095Y-62781033D01*
X85798819Y-71762857D02*
X85322628Y-72096190D01*
X85798819Y-72334285D02*
X84798819Y-72334285D01*
X84798819Y-72334285D02*
X84798819Y-71953333D01*
X84798819Y-71953333D02*
X84846438Y-71858095D01*
X84846438Y-71858095D02*
X84894057Y-71810476D01*
X84894057Y-71810476D02*
X84989295Y-71762857D01*
X84989295Y-71762857D02*
X85132152Y-71762857D01*
X85132152Y-71762857D02*
X85227390Y-71810476D01*
X85227390Y-71810476D02*
X85275009Y-71858095D01*
X85275009Y-71858095D02*
X85322628Y-71953333D01*
X85322628Y-71953333D02*
X85322628Y-72334285D01*
X85798819Y-70810476D02*
X85798819Y-71381904D01*
X85798819Y-71096190D02*
X84798819Y-71096190D01*
X84798819Y-71096190D02*
X84941676Y-71191428D01*
X84941676Y-71191428D02*
X85036914Y-71286666D01*
X85036914Y-71286666D02*
X85084533Y-71381904D01*
X84894057Y-70429523D02*
X84846438Y-70381904D01*
X84846438Y-70381904D02*
X84798819Y-70286666D01*
X84798819Y-70286666D02*
X84798819Y-70048571D01*
X84798819Y-70048571D02*
X84846438Y-69953333D01*
X84846438Y-69953333D02*
X84894057Y-69905714D01*
X84894057Y-69905714D02*
X84989295Y-69858095D01*
X84989295Y-69858095D02*
X85084533Y-69858095D01*
X85084533Y-69858095D02*
X85227390Y-69905714D01*
X85227390Y-69905714D02*
X85798819Y-70477142D01*
X85798819Y-70477142D02*
X85798819Y-69858095D01*
X83685142Y-30596819D02*
X83351809Y-30120628D01*
X83113714Y-30596819D02*
X83113714Y-29596819D01*
X83113714Y-29596819D02*
X83494666Y-29596819D01*
X83494666Y-29596819D02*
X83589904Y-29644438D01*
X83589904Y-29644438D02*
X83637523Y-29692057D01*
X83637523Y-29692057D02*
X83685142Y-29787295D01*
X83685142Y-29787295D02*
X83685142Y-29930152D01*
X83685142Y-29930152D02*
X83637523Y-30025390D01*
X83637523Y-30025390D02*
X83589904Y-30073009D01*
X83589904Y-30073009D02*
X83494666Y-30120628D01*
X83494666Y-30120628D02*
X83113714Y-30120628D01*
X84637523Y-30596819D02*
X84066095Y-30596819D01*
X84351809Y-30596819D02*
X84351809Y-29596819D01*
X84351809Y-29596819D02*
X84256571Y-29739676D01*
X84256571Y-29739676D02*
X84161333Y-29834914D01*
X84161333Y-29834914D02*
X84066095Y-29882533D01*
X84970857Y-29596819D02*
X85589904Y-29596819D01*
X85589904Y-29596819D02*
X85256571Y-29977771D01*
X85256571Y-29977771D02*
X85399428Y-29977771D01*
X85399428Y-29977771D02*
X85494666Y-30025390D01*
X85494666Y-30025390D02*
X85542285Y-30073009D01*
X85542285Y-30073009D02*
X85589904Y-30168247D01*
X85589904Y-30168247D02*
X85589904Y-30406342D01*
X85589904Y-30406342D02*
X85542285Y-30501580D01*
X85542285Y-30501580D02*
X85494666Y-30549200D01*
X85494666Y-30549200D02*
X85399428Y-30596819D01*
X85399428Y-30596819D02*
X85113714Y-30596819D01*
X85113714Y-30596819D02*
X85018476Y-30549200D01*
X85018476Y-30549200D02*
X84970857Y-30501580D01*
X120419905Y-90948819D02*
X120419905Y-89948819D01*
X120419905Y-89948819D02*
X120658000Y-89948819D01*
X120658000Y-89948819D02*
X120800857Y-89996438D01*
X120800857Y-89996438D02*
X120896095Y-90091676D01*
X120896095Y-90091676D02*
X120943714Y-90186914D01*
X120943714Y-90186914D02*
X120991333Y-90377390D01*
X120991333Y-90377390D02*
X120991333Y-90520247D01*
X120991333Y-90520247D02*
X120943714Y-90710723D01*
X120943714Y-90710723D02*
X120896095Y-90805961D01*
X120896095Y-90805961D02*
X120800857Y-90901200D01*
X120800857Y-90901200D02*
X120658000Y-90948819D01*
X120658000Y-90948819D02*
X120419905Y-90948819D01*
X121943714Y-90948819D02*
X121372286Y-90948819D01*
X121658000Y-90948819D02*
X121658000Y-89948819D01*
X121658000Y-89948819D02*
X121562762Y-90091676D01*
X121562762Y-90091676D02*
X121467524Y-90186914D01*
X121467524Y-90186914D02*
X121372286Y-90234533D01*
X117086095Y-91318819D02*
X117086095Y-90318819D01*
X117657523Y-91318819D02*
X117228952Y-90747390D01*
X117657523Y-90318819D02*
X117086095Y-90890247D01*
X133308819Y-40757166D02*
X132832628Y-41090499D01*
X133308819Y-41328594D02*
X132308819Y-41328594D01*
X132308819Y-41328594D02*
X132308819Y-40947642D01*
X132308819Y-40947642D02*
X132356438Y-40852404D01*
X132356438Y-40852404D02*
X132404057Y-40804785D01*
X132404057Y-40804785D02*
X132499295Y-40757166D01*
X132499295Y-40757166D02*
X132642152Y-40757166D01*
X132642152Y-40757166D02*
X132737390Y-40804785D01*
X132737390Y-40804785D02*
X132785009Y-40852404D01*
X132785009Y-40852404D02*
X132832628Y-40947642D01*
X132832628Y-40947642D02*
X132832628Y-41328594D01*
X133308819Y-39804785D02*
X133308819Y-40376213D01*
X133308819Y-40090499D02*
X132308819Y-40090499D01*
X132308819Y-40090499D02*
X132451676Y-40185737D01*
X132451676Y-40185737D02*
X132546914Y-40280975D01*
X132546914Y-40280975D02*
X132594533Y-40376213D01*
X133408445Y-62374080D02*
X133360826Y-62421700D01*
X133360826Y-62421700D02*
X133217969Y-62469319D01*
X133217969Y-62469319D02*
X133122731Y-62469319D01*
X133122731Y-62469319D02*
X132979874Y-62421700D01*
X132979874Y-62421700D02*
X132884636Y-62326461D01*
X132884636Y-62326461D02*
X132837017Y-62231223D01*
X132837017Y-62231223D02*
X132789398Y-62040747D01*
X132789398Y-62040747D02*
X132789398Y-61897890D01*
X132789398Y-61897890D02*
X132837017Y-61707414D01*
X132837017Y-61707414D02*
X132884636Y-61612176D01*
X132884636Y-61612176D02*
X132979874Y-61516938D01*
X132979874Y-61516938D02*
X133122731Y-61469319D01*
X133122731Y-61469319D02*
X133217969Y-61469319D01*
X133217969Y-61469319D02*
X133360826Y-61516938D01*
X133360826Y-61516938D02*
X133408445Y-61564557D01*
X133741779Y-61469319D02*
X134360826Y-61469319D01*
X134360826Y-61469319D02*
X134027493Y-61850271D01*
X134027493Y-61850271D02*
X134170350Y-61850271D01*
X134170350Y-61850271D02*
X134265588Y-61897890D01*
X134265588Y-61897890D02*
X134313207Y-61945509D01*
X134313207Y-61945509D02*
X134360826Y-62040747D01*
X134360826Y-62040747D02*
X134360826Y-62278842D01*
X134360826Y-62278842D02*
X134313207Y-62374080D01*
X134313207Y-62374080D02*
X134265588Y-62421700D01*
X134265588Y-62421700D02*
X134170350Y-62469319D01*
X134170350Y-62469319D02*
X133884636Y-62469319D01*
X133884636Y-62469319D02*
X133789398Y-62421700D01*
X133789398Y-62421700D02*
X133741779Y-62374080D01*
X75345580Y-39790666D02*
X75393200Y-39838285D01*
X75393200Y-39838285D02*
X75440819Y-39981142D01*
X75440819Y-39981142D02*
X75440819Y-40076380D01*
X75440819Y-40076380D02*
X75393200Y-40219237D01*
X75393200Y-40219237D02*
X75297961Y-40314475D01*
X75297961Y-40314475D02*
X75202723Y-40362094D01*
X75202723Y-40362094D02*
X75012247Y-40409713D01*
X75012247Y-40409713D02*
X74869390Y-40409713D01*
X74869390Y-40409713D02*
X74678914Y-40362094D01*
X74678914Y-40362094D02*
X74583676Y-40314475D01*
X74583676Y-40314475D02*
X74488438Y-40219237D01*
X74488438Y-40219237D02*
X74440819Y-40076380D01*
X74440819Y-40076380D02*
X74440819Y-39981142D01*
X74440819Y-39981142D02*
X74488438Y-39838285D01*
X74488438Y-39838285D02*
X74536057Y-39790666D01*
X74774152Y-38933523D02*
X75440819Y-38933523D01*
X74393200Y-39171618D02*
X75107485Y-39409713D01*
X75107485Y-39409713D02*
X75107485Y-38790666D01*
X96061580Y-35178666D02*
X96109200Y-35226285D01*
X96109200Y-35226285D02*
X96156819Y-35369142D01*
X96156819Y-35369142D02*
X96156819Y-35464380D01*
X96156819Y-35464380D02*
X96109200Y-35607237D01*
X96109200Y-35607237D02*
X96013961Y-35702475D01*
X96013961Y-35702475D02*
X95918723Y-35750094D01*
X95918723Y-35750094D02*
X95728247Y-35797713D01*
X95728247Y-35797713D02*
X95585390Y-35797713D01*
X95585390Y-35797713D02*
X95394914Y-35750094D01*
X95394914Y-35750094D02*
X95299676Y-35702475D01*
X95299676Y-35702475D02*
X95204438Y-35607237D01*
X95204438Y-35607237D02*
X95156819Y-35464380D01*
X95156819Y-35464380D02*
X95156819Y-35369142D01*
X95156819Y-35369142D02*
X95204438Y-35226285D01*
X95204438Y-35226285D02*
X95252057Y-35178666D01*
X95156819Y-34321523D02*
X95156819Y-34511999D01*
X95156819Y-34511999D02*
X95204438Y-34607237D01*
X95204438Y-34607237D02*
X95252057Y-34654856D01*
X95252057Y-34654856D02*
X95394914Y-34750094D01*
X95394914Y-34750094D02*
X95585390Y-34797713D01*
X95585390Y-34797713D02*
X95966342Y-34797713D01*
X95966342Y-34797713D02*
X96061580Y-34750094D01*
X96061580Y-34750094D02*
X96109200Y-34702475D01*
X96109200Y-34702475D02*
X96156819Y-34607237D01*
X96156819Y-34607237D02*
X96156819Y-34416761D01*
X96156819Y-34416761D02*
X96109200Y-34321523D01*
X96109200Y-34321523D02*
X96061580Y-34273904D01*
X96061580Y-34273904D02*
X95966342Y-34226285D01*
X95966342Y-34226285D02*
X95728247Y-34226285D01*
X95728247Y-34226285D02*
X95633009Y-34273904D01*
X95633009Y-34273904D02*
X95585390Y-34321523D01*
X95585390Y-34321523D02*
X95537771Y-34416761D01*
X95537771Y-34416761D02*
X95537771Y-34607237D01*
X95537771Y-34607237D02*
X95585390Y-34702475D01*
X95585390Y-34702475D02*
X95633009Y-34750094D01*
X95633009Y-34750094D02*
X95728247Y-34797713D01*
X131727580Y-37105166D02*
X131775200Y-37152785D01*
X131775200Y-37152785D02*
X131822819Y-37295642D01*
X131822819Y-37295642D02*
X131822819Y-37390880D01*
X131822819Y-37390880D02*
X131775200Y-37533737D01*
X131775200Y-37533737D02*
X131679961Y-37628975D01*
X131679961Y-37628975D02*
X131584723Y-37676594D01*
X131584723Y-37676594D02*
X131394247Y-37724213D01*
X131394247Y-37724213D02*
X131251390Y-37724213D01*
X131251390Y-37724213D02*
X131060914Y-37676594D01*
X131060914Y-37676594D02*
X130965676Y-37628975D01*
X130965676Y-37628975D02*
X130870438Y-37533737D01*
X130870438Y-37533737D02*
X130822819Y-37390880D01*
X130822819Y-37390880D02*
X130822819Y-37295642D01*
X130822819Y-37295642D02*
X130870438Y-37152785D01*
X130870438Y-37152785D02*
X130918057Y-37105166D01*
X130918057Y-36724213D02*
X130870438Y-36676594D01*
X130870438Y-36676594D02*
X130822819Y-36581356D01*
X130822819Y-36581356D02*
X130822819Y-36343261D01*
X130822819Y-36343261D02*
X130870438Y-36248023D01*
X130870438Y-36248023D02*
X130918057Y-36200404D01*
X130918057Y-36200404D02*
X131013295Y-36152785D01*
X131013295Y-36152785D02*
X131108533Y-36152785D01*
X131108533Y-36152785D02*
X131251390Y-36200404D01*
X131251390Y-36200404D02*
X131822819Y-36771832D01*
X131822819Y-36771832D02*
X131822819Y-36152785D01*
X74622819Y-61126666D02*
X74146628Y-61459999D01*
X74622819Y-61698094D02*
X73622819Y-61698094D01*
X73622819Y-61698094D02*
X73622819Y-61317142D01*
X73622819Y-61317142D02*
X73670438Y-61221904D01*
X73670438Y-61221904D02*
X73718057Y-61174285D01*
X73718057Y-61174285D02*
X73813295Y-61126666D01*
X73813295Y-61126666D02*
X73956152Y-61126666D01*
X73956152Y-61126666D02*
X74051390Y-61174285D01*
X74051390Y-61174285D02*
X74099009Y-61221904D01*
X74099009Y-61221904D02*
X74146628Y-61317142D01*
X74146628Y-61317142D02*
X74146628Y-61698094D01*
X73622819Y-60793332D02*
X73622819Y-60126666D01*
X73622819Y-60126666D02*
X74622819Y-60555237D01*
X79364819Y-62110857D02*
X78888628Y-62444190D01*
X79364819Y-62682285D02*
X78364819Y-62682285D01*
X78364819Y-62682285D02*
X78364819Y-62301333D01*
X78364819Y-62301333D02*
X78412438Y-62206095D01*
X78412438Y-62206095D02*
X78460057Y-62158476D01*
X78460057Y-62158476D02*
X78555295Y-62110857D01*
X78555295Y-62110857D02*
X78698152Y-62110857D01*
X78698152Y-62110857D02*
X78793390Y-62158476D01*
X78793390Y-62158476D02*
X78841009Y-62206095D01*
X78841009Y-62206095D02*
X78888628Y-62301333D01*
X78888628Y-62301333D02*
X78888628Y-62682285D01*
X79364819Y-61158476D02*
X79364819Y-61729904D01*
X79364819Y-61444190D02*
X78364819Y-61444190D01*
X78364819Y-61444190D02*
X78507676Y-61539428D01*
X78507676Y-61539428D02*
X78602914Y-61634666D01*
X78602914Y-61634666D02*
X78650533Y-61729904D01*
X78364819Y-60825142D02*
X78364819Y-60158476D01*
X78364819Y-60158476D02*
X79364819Y-60587047D01*
X84161333Y-35168819D02*
X83828000Y-34692628D01*
X83589905Y-35168819D02*
X83589905Y-34168819D01*
X83589905Y-34168819D02*
X83970857Y-34168819D01*
X83970857Y-34168819D02*
X84066095Y-34216438D01*
X84066095Y-34216438D02*
X84113714Y-34264057D01*
X84113714Y-34264057D02*
X84161333Y-34359295D01*
X84161333Y-34359295D02*
X84161333Y-34502152D01*
X84161333Y-34502152D02*
X84113714Y-34597390D01*
X84113714Y-34597390D02*
X84066095Y-34645009D01*
X84066095Y-34645009D02*
X83970857Y-34692628D01*
X83970857Y-34692628D02*
X83589905Y-34692628D01*
X84542286Y-34264057D02*
X84589905Y-34216438D01*
X84589905Y-34216438D02*
X84685143Y-34168819D01*
X84685143Y-34168819D02*
X84923238Y-34168819D01*
X84923238Y-34168819D02*
X85018476Y-34216438D01*
X85018476Y-34216438D02*
X85066095Y-34264057D01*
X85066095Y-34264057D02*
X85113714Y-34359295D01*
X85113714Y-34359295D02*
X85113714Y-34454533D01*
X85113714Y-34454533D02*
X85066095Y-34597390D01*
X85066095Y-34597390D02*
X84494667Y-35168819D01*
X84494667Y-35168819D02*
X85113714Y-35168819D01*
X83685142Y-26024819D02*
X83351809Y-25548628D01*
X83113714Y-26024819D02*
X83113714Y-25024819D01*
X83113714Y-25024819D02*
X83494666Y-25024819D01*
X83494666Y-25024819D02*
X83589904Y-25072438D01*
X83589904Y-25072438D02*
X83637523Y-25120057D01*
X83637523Y-25120057D02*
X83685142Y-25215295D01*
X83685142Y-25215295D02*
X83685142Y-25358152D01*
X83685142Y-25358152D02*
X83637523Y-25453390D01*
X83637523Y-25453390D02*
X83589904Y-25501009D01*
X83589904Y-25501009D02*
X83494666Y-25548628D01*
X83494666Y-25548628D02*
X83113714Y-25548628D01*
X84637523Y-26024819D02*
X84066095Y-26024819D01*
X84351809Y-26024819D02*
X84351809Y-25024819D01*
X84351809Y-25024819D02*
X84256571Y-25167676D01*
X84256571Y-25167676D02*
X84161333Y-25262914D01*
X84161333Y-25262914D02*
X84066095Y-25310533D01*
X85494666Y-25358152D02*
X85494666Y-26024819D01*
X85256571Y-24977200D02*
X85018476Y-25691485D01*
X85018476Y-25691485D02*
X85637523Y-25691485D01*
X96061580Y-46862666D02*
X96109200Y-46910285D01*
X96109200Y-46910285D02*
X96156819Y-47053142D01*
X96156819Y-47053142D02*
X96156819Y-47148380D01*
X96156819Y-47148380D02*
X96109200Y-47291237D01*
X96109200Y-47291237D02*
X96013961Y-47386475D01*
X96013961Y-47386475D02*
X95918723Y-47434094D01*
X95918723Y-47434094D02*
X95728247Y-47481713D01*
X95728247Y-47481713D02*
X95585390Y-47481713D01*
X95585390Y-47481713D02*
X95394914Y-47434094D01*
X95394914Y-47434094D02*
X95299676Y-47386475D01*
X95299676Y-47386475D02*
X95204438Y-47291237D01*
X95204438Y-47291237D02*
X95156819Y-47148380D01*
X95156819Y-47148380D02*
X95156819Y-47053142D01*
X95156819Y-47053142D02*
X95204438Y-46910285D01*
X95204438Y-46910285D02*
X95252057Y-46862666D01*
X96156819Y-46386475D02*
X96156819Y-46195999D01*
X96156819Y-46195999D02*
X96109200Y-46100761D01*
X96109200Y-46100761D02*
X96061580Y-46053142D01*
X96061580Y-46053142D02*
X95918723Y-45957904D01*
X95918723Y-45957904D02*
X95728247Y-45910285D01*
X95728247Y-45910285D02*
X95347295Y-45910285D01*
X95347295Y-45910285D02*
X95252057Y-45957904D01*
X95252057Y-45957904D02*
X95204438Y-46005523D01*
X95204438Y-46005523D02*
X95156819Y-46100761D01*
X95156819Y-46100761D02*
X95156819Y-46291237D01*
X95156819Y-46291237D02*
X95204438Y-46386475D01*
X95204438Y-46386475D02*
X95252057Y-46434094D01*
X95252057Y-46434094D02*
X95347295Y-46481713D01*
X95347295Y-46481713D02*
X95585390Y-46481713D01*
X95585390Y-46481713D02*
X95680628Y-46434094D01*
X95680628Y-46434094D02*
X95728247Y-46386475D01*
X95728247Y-46386475D02*
X95775866Y-46291237D01*
X95775866Y-46291237D02*
X95775866Y-46100761D01*
X95775866Y-46100761D02*
X95728247Y-46005523D01*
X95728247Y-46005523D02*
X95680628Y-45957904D01*
X95680628Y-45957904D02*
X95585390Y-45910285D01*
X115657333Y-91053580D02*
X115609714Y-91101200D01*
X115609714Y-91101200D02*
X115466857Y-91148819D01*
X115466857Y-91148819D02*
X115371619Y-91148819D01*
X115371619Y-91148819D02*
X115228762Y-91101200D01*
X115228762Y-91101200D02*
X115133524Y-91005961D01*
X115133524Y-91005961D02*
X115085905Y-90910723D01*
X115085905Y-90910723D02*
X115038286Y-90720247D01*
X115038286Y-90720247D02*
X115038286Y-90577390D01*
X115038286Y-90577390D02*
X115085905Y-90386914D01*
X115085905Y-90386914D02*
X115133524Y-90291676D01*
X115133524Y-90291676D02*
X115228762Y-90196438D01*
X115228762Y-90196438D02*
X115371619Y-90148819D01*
X115371619Y-90148819D02*
X115466857Y-90148819D01*
X115466857Y-90148819D02*
X115609714Y-90196438D01*
X115609714Y-90196438D02*
X115657333Y-90244057D01*
X115990667Y-90148819D02*
X116657333Y-90148819D01*
X116657333Y-90148819D02*
X116228762Y-91148819D01*
X84161333Y-47190819D02*
X83828000Y-46714628D01*
X83589905Y-47190819D02*
X83589905Y-46190819D01*
X83589905Y-46190819D02*
X83970857Y-46190819D01*
X83970857Y-46190819D02*
X84066095Y-46238438D01*
X84066095Y-46238438D02*
X84113714Y-46286057D01*
X84113714Y-46286057D02*
X84161333Y-46381295D01*
X84161333Y-46381295D02*
X84161333Y-46524152D01*
X84161333Y-46524152D02*
X84113714Y-46619390D01*
X84113714Y-46619390D02*
X84066095Y-46667009D01*
X84066095Y-46667009D02*
X83970857Y-46714628D01*
X83970857Y-46714628D02*
X83589905Y-46714628D01*
X85018476Y-46190819D02*
X84828000Y-46190819D01*
X84828000Y-46190819D02*
X84732762Y-46238438D01*
X84732762Y-46238438D02*
X84685143Y-46286057D01*
X84685143Y-46286057D02*
X84589905Y-46428914D01*
X84589905Y-46428914D02*
X84542286Y-46619390D01*
X84542286Y-46619390D02*
X84542286Y-47000342D01*
X84542286Y-47000342D02*
X84589905Y-47095580D01*
X84589905Y-47095580D02*
X84637524Y-47143200D01*
X84637524Y-47143200D02*
X84732762Y-47190819D01*
X84732762Y-47190819D02*
X84923238Y-47190819D01*
X84923238Y-47190819D02*
X85018476Y-47143200D01*
X85018476Y-47143200D02*
X85066095Y-47095580D01*
X85066095Y-47095580D02*
X85113714Y-47000342D01*
X85113714Y-47000342D02*
X85113714Y-46762247D01*
X85113714Y-46762247D02*
X85066095Y-46667009D01*
X85066095Y-46667009D02*
X85018476Y-46619390D01*
X85018476Y-46619390D02*
X84923238Y-46571771D01*
X84923238Y-46571771D02*
X84732762Y-46571771D01*
X84732762Y-46571771D02*
X84637524Y-46619390D01*
X84637524Y-46619390D02*
X84589905Y-46667009D01*
X84589905Y-46667009D02*
X84542286Y-46762247D01*
X96759095Y-55300819D02*
X96759095Y-56110342D01*
X96759095Y-56110342D02*
X96806714Y-56205580D01*
X96806714Y-56205580D02*
X96854333Y-56253200D01*
X96854333Y-56253200D02*
X96949571Y-56300819D01*
X96949571Y-56300819D02*
X97140047Y-56300819D01*
X97140047Y-56300819D02*
X97235285Y-56253200D01*
X97235285Y-56253200D02*
X97282904Y-56205580D01*
X97282904Y-56205580D02*
X97330523Y-56110342D01*
X97330523Y-56110342D02*
X97330523Y-55300819D01*
X98282904Y-55300819D02*
X97806714Y-55300819D01*
X97806714Y-55300819D02*
X97759095Y-55777009D01*
X97759095Y-55777009D02*
X97806714Y-55729390D01*
X97806714Y-55729390D02*
X97901952Y-55681771D01*
X97901952Y-55681771D02*
X98140047Y-55681771D01*
X98140047Y-55681771D02*
X98235285Y-55729390D01*
X98235285Y-55729390D02*
X98282904Y-55777009D01*
X98282904Y-55777009D02*
X98330523Y-55872247D01*
X98330523Y-55872247D02*
X98330523Y-56110342D01*
X98330523Y-56110342D02*
X98282904Y-56205580D01*
X98282904Y-56205580D02*
X98235285Y-56253200D01*
X98235285Y-56253200D02*
X98140047Y-56300819D01*
X98140047Y-56300819D02*
X97901952Y-56300819D01*
X97901952Y-56300819D02*
X97806714Y-56253200D01*
X97806714Y-56253200D02*
X97759095Y-56205580D01*
X112792819Y-101322094D02*
X111792819Y-101322094D01*
X111792819Y-101322094D02*
X111792819Y-101083999D01*
X111792819Y-101083999D02*
X111840438Y-100941142D01*
X111840438Y-100941142D02*
X111935676Y-100845904D01*
X111935676Y-100845904D02*
X112030914Y-100798285D01*
X112030914Y-100798285D02*
X112221390Y-100750666D01*
X112221390Y-100750666D02*
X112364247Y-100750666D01*
X112364247Y-100750666D02*
X112554723Y-100798285D01*
X112554723Y-100798285D02*
X112649961Y-100845904D01*
X112649961Y-100845904D02*
X112745200Y-100941142D01*
X112745200Y-100941142D02*
X112792819Y-101083999D01*
X112792819Y-101083999D02*
X112792819Y-101322094D01*
X111888057Y-100369713D02*
X111840438Y-100322094D01*
X111840438Y-100322094D02*
X111792819Y-100226856D01*
X111792819Y-100226856D02*
X111792819Y-99988761D01*
X111792819Y-99988761D02*
X111840438Y-99893523D01*
X111840438Y-99893523D02*
X111888057Y-99845904D01*
X111888057Y-99845904D02*
X111983295Y-99798285D01*
X111983295Y-99798285D02*
X112078533Y-99798285D01*
X112078533Y-99798285D02*
X112221390Y-99845904D01*
X112221390Y-99845904D02*
X112792819Y-100417332D01*
X112792819Y-100417332D02*
X112792819Y-99798285D01*
X113162819Y-104655904D02*
X112162819Y-104655904D01*
X113162819Y-104084476D02*
X112591390Y-104513047D01*
X112162819Y-104084476D02*
X112734247Y-104655904D01*
X80644761Y-87288057D02*
X80549523Y-87240438D01*
X80549523Y-87240438D02*
X80454285Y-87145200D01*
X80454285Y-87145200D02*
X80311428Y-87002342D01*
X80311428Y-87002342D02*
X80216190Y-86954723D01*
X80216190Y-86954723D02*
X80120952Y-86954723D01*
X80168571Y-87192819D02*
X80073333Y-87145200D01*
X80073333Y-87145200D02*
X79978095Y-87049961D01*
X79978095Y-87049961D02*
X79930476Y-86859485D01*
X79930476Y-86859485D02*
X79930476Y-86526152D01*
X79930476Y-86526152D02*
X79978095Y-86335676D01*
X79978095Y-86335676D02*
X80073333Y-86240438D01*
X80073333Y-86240438D02*
X80168571Y-86192819D01*
X80168571Y-86192819D02*
X80359047Y-86192819D01*
X80359047Y-86192819D02*
X80454285Y-86240438D01*
X80454285Y-86240438D02*
X80549523Y-86335676D01*
X80549523Y-86335676D02*
X80597142Y-86526152D01*
X80597142Y-86526152D02*
X80597142Y-86859485D01*
X80597142Y-86859485D02*
X80549523Y-87049961D01*
X80549523Y-87049961D02*
X80454285Y-87145200D01*
X80454285Y-87145200D02*
X80359047Y-87192819D01*
X80359047Y-87192819D02*
X80168571Y-87192819D01*
X81454285Y-86192819D02*
X81263809Y-86192819D01*
X81263809Y-86192819D02*
X81168571Y-86240438D01*
X81168571Y-86240438D02*
X81120952Y-86288057D01*
X81120952Y-86288057D02*
X81025714Y-86430914D01*
X81025714Y-86430914D02*
X80978095Y-86621390D01*
X80978095Y-86621390D02*
X80978095Y-87002342D01*
X80978095Y-87002342D02*
X81025714Y-87097580D01*
X81025714Y-87097580D02*
X81073333Y-87145200D01*
X81073333Y-87145200D02*
X81168571Y-87192819D01*
X81168571Y-87192819D02*
X81359047Y-87192819D01*
X81359047Y-87192819D02*
X81454285Y-87145200D01*
X81454285Y-87145200D02*
X81501904Y-87097580D01*
X81501904Y-87097580D02*
X81549523Y-87002342D01*
X81549523Y-87002342D02*
X81549523Y-86764247D01*
X81549523Y-86764247D02*
X81501904Y-86669009D01*
X81501904Y-86669009D02*
X81454285Y-86621390D01*
X81454285Y-86621390D02*
X81359047Y-86573771D01*
X81359047Y-86573771D02*
X81168571Y-86573771D01*
X81168571Y-86573771D02*
X81073333Y-86621390D01*
X81073333Y-86621390D02*
X81025714Y-86669009D01*
X81025714Y-86669009D02*
X80978095Y-86764247D01*
X107060761Y-89244057D02*
X106965523Y-89196438D01*
X106965523Y-89196438D02*
X106870285Y-89101200D01*
X106870285Y-89101200D02*
X106727428Y-88958342D01*
X106727428Y-88958342D02*
X106632190Y-88910723D01*
X106632190Y-88910723D02*
X106536952Y-88910723D01*
X106584571Y-89148819D02*
X106489333Y-89101200D01*
X106489333Y-89101200D02*
X106394095Y-89005961D01*
X106394095Y-89005961D02*
X106346476Y-88815485D01*
X106346476Y-88815485D02*
X106346476Y-88482152D01*
X106346476Y-88482152D02*
X106394095Y-88291676D01*
X106394095Y-88291676D02*
X106489333Y-88196438D01*
X106489333Y-88196438D02*
X106584571Y-88148819D01*
X106584571Y-88148819D02*
X106775047Y-88148819D01*
X106775047Y-88148819D02*
X106870285Y-88196438D01*
X106870285Y-88196438D02*
X106965523Y-88291676D01*
X106965523Y-88291676D02*
X107013142Y-88482152D01*
X107013142Y-88482152D02*
X107013142Y-88815485D01*
X107013142Y-88815485D02*
X106965523Y-89005961D01*
X106965523Y-89005961D02*
X106870285Y-89101200D01*
X106870285Y-89101200D02*
X106775047Y-89148819D01*
X106775047Y-89148819D02*
X106584571Y-89148819D01*
X107870285Y-88482152D02*
X107870285Y-89148819D01*
X107632190Y-88101200D02*
X107394095Y-88815485D01*
X107394095Y-88815485D02*
X108013142Y-88815485D01*
X121142761Y-79954057D02*
X121047523Y-79906438D01*
X121047523Y-79906438D02*
X120952285Y-79811200D01*
X120952285Y-79811200D02*
X120809428Y-79668342D01*
X120809428Y-79668342D02*
X120714190Y-79620723D01*
X120714190Y-79620723D02*
X120618952Y-79620723D01*
X120666571Y-79858819D02*
X120571333Y-79811200D01*
X120571333Y-79811200D02*
X120476095Y-79715961D01*
X120476095Y-79715961D02*
X120428476Y-79525485D01*
X120428476Y-79525485D02*
X120428476Y-79192152D01*
X120428476Y-79192152D02*
X120476095Y-79001676D01*
X120476095Y-79001676D02*
X120571333Y-78906438D01*
X120571333Y-78906438D02*
X120666571Y-78858819D01*
X120666571Y-78858819D02*
X120857047Y-78858819D01*
X120857047Y-78858819D02*
X120952285Y-78906438D01*
X120952285Y-78906438D02*
X121047523Y-79001676D01*
X121047523Y-79001676D02*
X121095142Y-79192152D01*
X121095142Y-79192152D02*
X121095142Y-79525485D01*
X121095142Y-79525485D02*
X121047523Y-79715961D01*
X121047523Y-79715961D02*
X120952285Y-79811200D01*
X120952285Y-79811200D02*
X120857047Y-79858819D01*
X120857047Y-79858819D02*
X120666571Y-79858819D01*
X122047523Y-79858819D02*
X121476095Y-79858819D01*
X121761809Y-79858819D02*
X121761809Y-78858819D01*
X121761809Y-78858819D02*
X121666571Y-79001676D01*
X121666571Y-79001676D02*
X121571333Y-79096914D01*
X121571333Y-79096914D02*
X121476095Y-79144533D01*
X139666666Y-74454819D02*
X139666666Y-75169104D01*
X139666666Y-75169104D02*
X139619047Y-75311961D01*
X139619047Y-75311961D02*
X139523809Y-75407200D01*
X139523809Y-75407200D02*
X139380952Y-75454819D01*
X139380952Y-75454819D02*
X139285714Y-75454819D01*
X140095238Y-74550057D02*
X140142857Y-74502438D01*
X140142857Y-74502438D02*
X140238095Y-74454819D01*
X140238095Y-74454819D02*
X140476190Y-74454819D01*
X140476190Y-74454819D02*
X140571428Y-74502438D01*
X140571428Y-74502438D02*
X140619047Y-74550057D01*
X140619047Y-74550057D02*
X140666666Y-74645295D01*
X140666666Y-74645295D02*
X140666666Y-74740533D01*
X140666666Y-74740533D02*
X140619047Y-74883390D01*
X140619047Y-74883390D02*
X140047619Y-75454819D01*
X140047619Y-75454819D02*
X140666666Y-75454819D01*
X79081333Y-40078819D02*
X78748000Y-39602628D01*
X78509905Y-40078819D02*
X78509905Y-39078819D01*
X78509905Y-39078819D02*
X78890857Y-39078819D01*
X78890857Y-39078819D02*
X78986095Y-39126438D01*
X78986095Y-39126438D02*
X79033714Y-39174057D01*
X79033714Y-39174057D02*
X79081333Y-39269295D01*
X79081333Y-39269295D02*
X79081333Y-39412152D01*
X79081333Y-39412152D02*
X79033714Y-39507390D01*
X79033714Y-39507390D02*
X78986095Y-39555009D01*
X78986095Y-39555009D02*
X78890857Y-39602628D01*
X78890857Y-39602628D02*
X78509905Y-39602628D01*
X79414667Y-39078819D02*
X80033714Y-39078819D01*
X80033714Y-39078819D02*
X79700381Y-39459771D01*
X79700381Y-39459771D02*
X79843238Y-39459771D01*
X79843238Y-39459771D02*
X79938476Y-39507390D01*
X79938476Y-39507390D02*
X79986095Y-39555009D01*
X79986095Y-39555009D02*
X80033714Y-39650247D01*
X80033714Y-39650247D02*
X80033714Y-39888342D01*
X80033714Y-39888342D02*
X79986095Y-39983580D01*
X79986095Y-39983580D02*
X79938476Y-40031200D01*
X79938476Y-40031200D02*
X79843238Y-40078819D01*
X79843238Y-40078819D02*
X79557524Y-40078819D01*
X79557524Y-40078819D02*
X79462286Y-40031200D01*
X79462286Y-40031200D02*
X79414667Y-39983580D01*
X100957142Y-20944819D02*
X100623809Y-20468628D01*
X100385714Y-20944819D02*
X100385714Y-19944819D01*
X100385714Y-19944819D02*
X100766666Y-19944819D01*
X100766666Y-19944819D02*
X100861904Y-19992438D01*
X100861904Y-19992438D02*
X100909523Y-20040057D01*
X100909523Y-20040057D02*
X100957142Y-20135295D01*
X100957142Y-20135295D02*
X100957142Y-20278152D01*
X100957142Y-20278152D02*
X100909523Y-20373390D01*
X100909523Y-20373390D02*
X100861904Y-20421009D01*
X100861904Y-20421009D02*
X100766666Y-20468628D01*
X100766666Y-20468628D02*
X100385714Y-20468628D01*
X101909523Y-20944819D02*
X101338095Y-20944819D01*
X101623809Y-20944819D02*
X101623809Y-19944819D01*
X101623809Y-19944819D02*
X101528571Y-20087676D01*
X101528571Y-20087676D02*
X101433333Y-20182914D01*
X101433333Y-20182914D02*
X101338095Y-20230533D01*
X102814285Y-19944819D02*
X102338095Y-19944819D01*
X102338095Y-19944819D02*
X102290476Y-20421009D01*
X102290476Y-20421009D02*
X102338095Y-20373390D01*
X102338095Y-20373390D02*
X102433333Y-20325771D01*
X102433333Y-20325771D02*
X102671428Y-20325771D01*
X102671428Y-20325771D02*
X102766666Y-20373390D01*
X102766666Y-20373390D02*
X102814285Y-20421009D01*
X102814285Y-20421009D02*
X102861904Y-20516247D01*
X102861904Y-20516247D02*
X102861904Y-20754342D01*
X102861904Y-20754342D02*
X102814285Y-20849580D01*
X102814285Y-20849580D02*
X102766666Y-20897200D01*
X102766666Y-20897200D02*
X102671428Y-20944819D01*
X102671428Y-20944819D02*
X102433333Y-20944819D01*
X102433333Y-20944819D02*
X102338095Y-20897200D01*
X102338095Y-20897200D02*
X102290476Y-20849580D01*
X80644761Y-79803057D02*
X80549523Y-79755438D01*
X80549523Y-79755438D02*
X80454285Y-79660200D01*
X80454285Y-79660200D02*
X80311428Y-79517342D01*
X80311428Y-79517342D02*
X80216190Y-79469723D01*
X80216190Y-79469723D02*
X80120952Y-79469723D01*
X80168571Y-79707819D02*
X80073333Y-79660200D01*
X80073333Y-79660200D02*
X79978095Y-79564961D01*
X79978095Y-79564961D02*
X79930476Y-79374485D01*
X79930476Y-79374485D02*
X79930476Y-79041152D01*
X79930476Y-79041152D02*
X79978095Y-78850676D01*
X79978095Y-78850676D02*
X80073333Y-78755438D01*
X80073333Y-78755438D02*
X80168571Y-78707819D01*
X80168571Y-78707819D02*
X80359047Y-78707819D01*
X80359047Y-78707819D02*
X80454285Y-78755438D01*
X80454285Y-78755438D02*
X80549523Y-78850676D01*
X80549523Y-78850676D02*
X80597142Y-79041152D01*
X80597142Y-79041152D02*
X80597142Y-79374485D01*
X80597142Y-79374485D02*
X80549523Y-79564961D01*
X80549523Y-79564961D02*
X80454285Y-79660200D01*
X80454285Y-79660200D02*
X80359047Y-79707819D01*
X80359047Y-79707819D02*
X80168571Y-79707819D01*
X81501904Y-78707819D02*
X81025714Y-78707819D01*
X81025714Y-78707819D02*
X80978095Y-79184009D01*
X80978095Y-79184009D02*
X81025714Y-79136390D01*
X81025714Y-79136390D02*
X81120952Y-79088771D01*
X81120952Y-79088771D02*
X81359047Y-79088771D01*
X81359047Y-79088771D02*
X81454285Y-79136390D01*
X81454285Y-79136390D02*
X81501904Y-79184009D01*
X81501904Y-79184009D02*
X81549523Y-79279247D01*
X81549523Y-79279247D02*
X81549523Y-79517342D01*
X81549523Y-79517342D02*
X81501904Y-79612580D01*
X81501904Y-79612580D02*
X81454285Y-79660200D01*
X81454285Y-79660200D02*
X81359047Y-79707819D01*
X81359047Y-79707819D02*
X81120952Y-79707819D01*
X81120952Y-79707819D02*
X81025714Y-79660200D01*
X81025714Y-79660200D02*
X80978095Y-79612580D01*
X137964285Y-97131009D02*
X138107142Y-97178628D01*
X138107142Y-97178628D02*
X138154761Y-97226247D01*
X138154761Y-97226247D02*
X138202380Y-97321485D01*
X138202380Y-97321485D02*
X138202380Y-97464342D01*
X138202380Y-97464342D02*
X138154761Y-97559580D01*
X138154761Y-97559580D02*
X138107142Y-97607200D01*
X138107142Y-97607200D02*
X138011904Y-97654819D01*
X138011904Y-97654819D02*
X137630952Y-97654819D01*
X137630952Y-97654819D02*
X137630952Y-96654819D01*
X137630952Y-96654819D02*
X137964285Y-96654819D01*
X137964285Y-96654819D02*
X138059523Y-96702438D01*
X138059523Y-96702438D02*
X138107142Y-96750057D01*
X138107142Y-96750057D02*
X138154761Y-96845295D01*
X138154761Y-96845295D02*
X138154761Y-96940533D01*
X138154761Y-96940533D02*
X138107142Y-97035771D01*
X138107142Y-97035771D02*
X138059523Y-97083390D01*
X138059523Y-97083390D02*
X137964285Y-97131009D01*
X137964285Y-97131009D02*
X137630952Y-97131009D01*
X138488095Y-96654819D02*
X139059523Y-96654819D01*
X138773809Y-97654819D02*
X138773809Y-96654819D01*
X139916666Y-97654819D02*
X139345238Y-97654819D01*
X139630952Y-97654819D02*
X139630952Y-96654819D01*
X139630952Y-96654819D02*
X139535714Y-96797676D01*
X139535714Y-96797676D02*
X139440476Y-96892914D01*
X139440476Y-96892914D02*
X139345238Y-96940533D01*
X74001333Y-48929580D02*
X73953714Y-48977200D01*
X73953714Y-48977200D02*
X73810857Y-49024819D01*
X73810857Y-49024819D02*
X73715619Y-49024819D01*
X73715619Y-49024819D02*
X73572762Y-48977200D01*
X73572762Y-48977200D02*
X73477524Y-48881961D01*
X73477524Y-48881961D02*
X73429905Y-48786723D01*
X73429905Y-48786723D02*
X73382286Y-48596247D01*
X73382286Y-48596247D02*
X73382286Y-48453390D01*
X73382286Y-48453390D02*
X73429905Y-48262914D01*
X73429905Y-48262914D02*
X73477524Y-48167676D01*
X73477524Y-48167676D02*
X73572762Y-48072438D01*
X73572762Y-48072438D02*
X73715619Y-48024819D01*
X73715619Y-48024819D02*
X73810857Y-48024819D01*
X73810857Y-48024819D02*
X73953714Y-48072438D01*
X73953714Y-48072438D02*
X74001333Y-48120057D01*
X74906095Y-48024819D02*
X74429905Y-48024819D01*
X74429905Y-48024819D02*
X74382286Y-48501009D01*
X74382286Y-48501009D02*
X74429905Y-48453390D01*
X74429905Y-48453390D02*
X74525143Y-48405771D01*
X74525143Y-48405771D02*
X74763238Y-48405771D01*
X74763238Y-48405771D02*
X74858476Y-48453390D01*
X74858476Y-48453390D02*
X74906095Y-48501009D01*
X74906095Y-48501009D02*
X74953714Y-48596247D01*
X74953714Y-48596247D02*
X74953714Y-48834342D01*
X74953714Y-48834342D02*
X74906095Y-48929580D01*
X74906095Y-48929580D02*
X74858476Y-48977200D01*
X74858476Y-48977200D02*
X74763238Y-49024819D01*
X74763238Y-49024819D02*
X74525143Y-49024819D01*
X74525143Y-49024819D02*
X74429905Y-48977200D01*
X74429905Y-48977200D02*
X74382286Y-48929580D01*
X116995580Y-37065166D02*
X117043200Y-37112785D01*
X117043200Y-37112785D02*
X117090819Y-37255642D01*
X117090819Y-37255642D02*
X117090819Y-37350880D01*
X117090819Y-37350880D02*
X117043200Y-37493737D01*
X117043200Y-37493737D02*
X116947961Y-37588975D01*
X116947961Y-37588975D02*
X116852723Y-37636594D01*
X116852723Y-37636594D02*
X116662247Y-37684213D01*
X116662247Y-37684213D02*
X116519390Y-37684213D01*
X116519390Y-37684213D02*
X116328914Y-37636594D01*
X116328914Y-37636594D02*
X116233676Y-37588975D01*
X116233676Y-37588975D02*
X116138438Y-37493737D01*
X116138438Y-37493737D02*
X116090819Y-37350880D01*
X116090819Y-37350880D02*
X116090819Y-37255642D01*
X116090819Y-37255642D02*
X116138438Y-37112785D01*
X116138438Y-37112785D02*
X116186057Y-37065166D01*
X117090819Y-36112785D02*
X117090819Y-36684213D01*
X117090819Y-36398499D02*
X116090819Y-36398499D01*
X116090819Y-36398499D02*
X116233676Y-36493737D01*
X116233676Y-36493737D02*
X116328914Y-36588975D01*
X116328914Y-36588975D02*
X116376533Y-36684213D01*
X127624819Y-93130666D02*
X127148628Y-93463999D01*
X127624819Y-93702094D02*
X126624819Y-93702094D01*
X126624819Y-93702094D02*
X126624819Y-93321142D01*
X126624819Y-93321142D02*
X126672438Y-93225904D01*
X126672438Y-93225904D02*
X126720057Y-93178285D01*
X126720057Y-93178285D02*
X126815295Y-93130666D01*
X126815295Y-93130666D02*
X126958152Y-93130666D01*
X126958152Y-93130666D02*
X127053390Y-93178285D01*
X127053390Y-93178285D02*
X127101009Y-93225904D01*
X127101009Y-93225904D02*
X127148628Y-93321142D01*
X127148628Y-93321142D02*
X127148628Y-93702094D01*
X126958152Y-92273523D02*
X127624819Y-92273523D01*
X126577200Y-92511618D02*
X127291485Y-92749713D01*
X127291485Y-92749713D02*
X127291485Y-92130666D01*
X121486094Y-42015580D02*
X121438475Y-42063200D01*
X121438475Y-42063200D02*
X121295618Y-42110819D01*
X121295618Y-42110819D02*
X121200380Y-42110819D01*
X121200380Y-42110819D02*
X121057523Y-42063200D01*
X121057523Y-42063200D02*
X120962285Y-41967961D01*
X120962285Y-41967961D02*
X120914666Y-41872723D01*
X120914666Y-41872723D02*
X120867047Y-41682247D01*
X120867047Y-41682247D02*
X120867047Y-41539390D01*
X120867047Y-41539390D02*
X120914666Y-41348914D01*
X120914666Y-41348914D02*
X120962285Y-41253676D01*
X120962285Y-41253676D02*
X121057523Y-41158438D01*
X121057523Y-41158438D02*
X121200380Y-41110819D01*
X121200380Y-41110819D02*
X121295618Y-41110819D01*
X121295618Y-41110819D02*
X121438475Y-41158438D01*
X121438475Y-41158438D02*
X121486094Y-41206057D01*
X121914666Y-42110819D02*
X121914666Y-41444152D01*
X121914666Y-41634628D02*
X121962285Y-41539390D01*
X121962285Y-41539390D02*
X122009904Y-41491771D01*
X122009904Y-41491771D02*
X122105142Y-41444152D01*
X122105142Y-41444152D02*
X122200380Y-41444152D01*
X122438476Y-41444152D02*
X122676571Y-42110819D01*
X122914666Y-41444152D02*
X122676571Y-42110819D01*
X122676571Y-42110819D02*
X122581333Y-42348914D01*
X122581333Y-42348914D02*
X122533714Y-42396533D01*
X122533714Y-42396533D02*
X122438476Y-42444152D01*
X123248000Y-42063200D02*
X123343238Y-42110819D01*
X123343238Y-42110819D02*
X123533714Y-42110819D01*
X123533714Y-42110819D02*
X123628952Y-42063200D01*
X123628952Y-42063200D02*
X123676571Y-41967961D01*
X123676571Y-41967961D02*
X123676571Y-41920342D01*
X123676571Y-41920342D02*
X123628952Y-41825104D01*
X123628952Y-41825104D02*
X123533714Y-41777485D01*
X123533714Y-41777485D02*
X123390857Y-41777485D01*
X123390857Y-41777485D02*
X123295619Y-41729866D01*
X123295619Y-41729866D02*
X123248000Y-41634628D01*
X123248000Y-41634628D02*
X123248000Y-41587009D01*
X123248000Y-41587009D02*
X123295619Y-41491771D01*
X123295619Y-41491771D02*
X123390857Y-41444152D01*
X123390857Y-41444152D02*
X123533714Y-41444152D01*
X123533714Y-41444152D02*
X123628952Y-41491771D01*
X123962286Y-41444152D02*
X124343238Y-41444152D01*
X124105143Y-41110819D02*
X124105143Y-41967961D01*
X124105143Y-41967961D02*
X124152762Y-42063200D01*
X124152762Y-42063200D02*
X124248000Y-42110819D01*
X124248000Y-42110819D02*
X124343238Y-42110819D01*
X125105143Y-42110819D02*
X125105143Y-41587009D01*
X125105143Y-41587009D02*
X125057524Y-41491771D01*
X125057524Y-41491771D02*
X124962286Y-41444152D01*
X124962286Y-41444152D02*
X124771810Y-41444152D01*
X124771810Y-41444152D02*
X124676572Y-41491771D01*
X125105143Y-42063200D02*
X125009905Y-42110819D01*
X125009905Y-42110819D02*
X124771810Y-42110819D01*
X124771810Y-42110819D02*
X124676572Y-42063200D01*
X124676572Y-42063200D02*
X124628953Y-41967961D01*
X124628953Y-41967961D02*
X124628953Y-41872723D01*
X124628953Y-41872723D02*
X124676572Y-41777485D01*
X124676572Y-41777485D02*
X124771810Y-41729866D01*
X124771810Y-41729866D02*
X125009905Y-41729866D01*
X125009905Y-41729866D02*
X125105143Y-41682247D01*
X125724191Y-42110819D02*
X125628953Y-42063200D01*
X125628953Y-42063200D02*
X125581334Y-41967961D01*
X125581334Y-41967961D02*
X125581334Y-41110819D01*
X126628953Y-42110819D02*
X126057525Y-42110819D01*
X126343239Y-42110819D02*
X126343239Y-41110819D01*
X126343239Y-41110819D02*
X126248001Y-41253676D01*
X126248001Y-41253676D02*
X126152763Y-41348914D01*
X126152763Y-41348914D02*
X126057525Y-41396533D01*
X135482819Y-85651333D02*
X136197104Y-85651333D01*
X136197104Y-85651333D02*
X136339961Y-85698952D01*
X136339961Y-85698952D02*
X136435200Y-85794190D01*
X136435200Y-85794190D02*
X136482819Y-85937047D01*
X136482819Y-85937047D02*
X136482819Y-86032285D01*
X136482819Y-84651333D02*
X136482819Y-85222761D01*
X136482819Y-84937047D02*
X135482819Y-84937047D01*
X135482819Y-84937047D02*
X135625676Y-85032285D01*
X135625676Y-85032285D02*
X135720914Y-85127523D01*
X135720914Y-85127523D02*
X135768533Y-85222761D01*
X95845333Y-96636819D02*
X95512000Y-96160628D01*
X95273905Y-96636819D02*
X95273905Y-95636819D01*
X95273905Y-95636819D02*
X95654857Y-95636819D01*
X95654857Y-95636819D02*
X95750095Y-95684438D01*
X95750095Y-95684438D02*
X95797714Y-95732057D01*
X95797714Y-95732057D02*
X95845333Y-95827295D01*
X95845333Y-95827295D02*
X95845333Y-95970152D01*
X95845333Y-95970152D02*
X95797714Y-96065390D01*
X95797714Y-96065390D02*
X95750095Y-96113009D01*
X95750095Y-96113009D02*
X95654857Y-96160628D01*
X95654857Y-96160628D02*
X95273905Y-96160628D01*
X96750095Y-95636819D02*
X96273905Y-95636819D01*
X96273905Y-95636819D02*
X96226286Y-96113009D01*
X96226286Y-96113009D02*
X96273905Y-96065390D01*
X96273905Y-96065390D02*
X96369143Y-96017771D01*
X96369143Y-96017771D02*
X96607238Y-96017771D01*
X96607238Y-96017771D02*
X96702476Y-96065390D01*
X96702476Y-96065390D02*
X96750095Y-96113009D01*
X96750095Y-96113009D02*
X96797714Y-96208247D01*
X96797714Y-96208247D02*
X96797714Y-96446342D01*
X96797714Y-96446342D02*
X96750095Y-96541580D01*
X96750095Y-96541580D02*
X96702476Y-96589200D01*
X96702476Y-96589200D02*
X96607238Y-96636819D01*
X96607238Y-96636819D02*
X96369143Y-96636819D01*
X96369143Y-96636819D02*
X96273905Y-96589200D01*
X96273905Y-96589200D02*
X96226286Y-96541580D01*
X70728819Y-83954857D02*
X70252628Y-84288190D01*
X70728819Y-84526285D02*
X69728819Y-84526285D01*
X69728819Y-84526285D02*
X69728819Y-84145333D01*
X69728819Y-84145333D02*
X69776438Y-84050095D01*
X69776438Y-84050095D02*
X69824057Y-84002476D01*
X69824057Y-84002476D02*
X69919295Y-83954857D01*
X69919295Y-83954857D02*
X70062152Y-83954857D01*
X70062152Y-83954857D02*
X70157390Y-84002476D01*
X70157390Y-84002476D02*
X70205009Y-84050095D01*
X70205009Y-84050095D02*
X70252628Y-84145333D01*
X70252628Y-84145333D02*
X70252628Y-84526285D01*
X70728819Y-83002476D02*
X70728819Y-83573904D01*
X70728819Y-83288190D02*
X69728819Y-83288190D01*
X69728819Y-83288190D02*
X69871676Y-83383428D01*
X69871676Y-83383428D02*
X69966914Y-83478666D01*
X69966914Y-83478666D02*
X70014533Y-83573904D01*
X69728819Y-82145333D02*
X69728819Y-82335809D01*
X69728819Y-82335809D02*
X69776438Y-82431047D01*
X69776438Y-82431047D02*
X69824057Y-82478666D01*
X69824057Y-82478666D02*
X69966914Y-82573904D01*
X69966914Y-82573904D02*
X70157390Y-82621523D01*
X70157390Y-82621523D02*
X70538342Y-82621523D01*
X70538342Y-82621523D02*
X70633580Y-82573904D01*
X70633580Y-82573904D02*
X70681200Y-82526285D01*
X70681200Y-82526285D02*
X70728819Y-82431047D01*
X70728819Y-82431047D02*
X70728819Y-82240571D01*
X70728819Y-82240571D02*
X70681200Y-82145333D01*
X70681200Y-82145333D02*
X70633580Y-82097714D01*
X70633580Y-82097714D02*
X70538342Y-82050095D01*
X70538342Y-82050095D02*
X70300247Y-82050095D01*
X70300247Y-82050095D02*
X70205009Y-82097714D01*
X70205009Y-82097714D02*
X70157390Y-82145333D01*
X70157390Y-82145333D02*
X70109771Y-82240571D01*
X70109771Y-82240571D02*
X70109771Y-82431047D01*
X70109771Y-82431047D02*
X70157390Y-82526285D01*
X70157390Y-82526285D02*
X70205009Y-82573904D01*
X70205009Y-82573904D02*
X70300247Y-82621523D01*
X138890667Y-51947700D02*
X139033524Y-51995319D01*
X139033524Y-51995319D02*
X139271619Y-51995319D01*
X139271619Y-51995319D02*
X139366857Y-51947700D01*
X139366857Y-51947700D02*
X139414476Y-51900080D01*
X139414476Y-51900080D02*
X139462095Y-51804842D01*
X139462095Y-51804842D02*
X139462095Y-51709604D01*
X139462095Y-51709604D02*
X139414476Y-51614366D01*
X139414476Y-51614366D02*
X139366857Y-51566747D01*
X139366857Y-51566747D02*
X139271619Y-51519128D01*
X139271619Y-51519128D02*
X139081143Y-51471509D01*
X139081143Y-51471509D02*
X138985905Y-51423890D01*
X138985905Y-51423890D02*
X138938286Y-51376271D01*
X138938286Y-51376271D02*
X138890667Y-51281033D01*
X138890667Y-51281033D02*
X138890667Y-51185795D01*
X138890667Y-51185795D02*
X138938286Y-51090557D01*
X138938286Y-51090557D02*
X138985905Y-51042938D01*
X138985905Y-51042938D02*
X139081143Y-50995319D01*
X139081143Y-50995319D02*
X139319238Y-50995319D01*
X139319238Y-50995319D02*
X139462095Y-51042938D01*
X139795429Y-50995319D02*
X140033524Y-51995319D01*
X140033524Y-51995319D02*
X140224000Y-51281033D01*
X140224000Y-51281033D02*
X140414476Y-51995319D01*
X140414476Y-51995319D02*
X140652572Y-50995319D01*
X141557333Y-51995319D02*
X140985905Y-51995319D01*
X141271619Y-51995319D02*
X141271619Y-50995319D01*
X141271619Y-50995319D02*
X141176381Y-51138176D01*
X141176381Y-51138176D02*
X141081143Y-51233414D01*
X141081143Y-51233414D02*
X140985905Y-51281033D01*
X110490095Y-24346819D02*
X110490095Y-25156342D01*
X110490095Y-25156342D02*
X110537714Y-25251580D01*
X110537714Y-25251580D02*
X110585333Y-25299200D01*
X110585333Y-25299200D02*
X110680571Y-25346819D01*
X110680571Y-25346819D02*
X110871047Y-25346819D01*
X110871047Y-25346819D02*
X110966285Y-25299200D01*
X110966285Y-25299200D02*
X111013904Y-25251580D01*
X111013904Y-25251580D02*
X111061523Y-25156342D01*
X111061523Y-25156342D02*
X111061523Y-24346819D01*
X111966285Y-24680152D02*
X111966285Y-25346819D01*
X111728190Y-24299200D02*
X111490095Y-25013485D01*
X111490095Y-25013485D02*
X112109142Y-25013485D01*
X103497142Y-69712819D02*
X103163809Y-69236628D01*
X102925714Y-69712819D02*
X102925714Y-68712819D01*
X102925714Y-68712819D02*
X103306666Y-68712819D01*
X103306666Y-68712819D02*
X103401904Y-68760438D01*
X103401904Y-68760438D02*
X103449523Y-68808057D01*
X103449523Y-68808057D02*
X103497142Y-68903295D01*
X103497142Y-68903295D02*
X103497142Y-69046152D01*
X103497142Y-69046152D02*
X103449523Y-69141390D01*
X103449523Y-69141390D02*
X103401904Y-69189009D01*
X103401904Y-69189009D02*
X103306666Y-69236628D01*
X103306666Y-69236628D02*
X102925714Y-69236628D01*
X104449523Y-69712819D02*
X103878095Y-69712819D01*
X104163809Y-69712819D02*
X104163809Y-68712819D01*
X104163809Y-68712819D02*
X104068571Y-68855676D01*
X104068571Y-68855676D02*
X103973333Y-68950914D01*
X103973333Y-68950914D02*
X103878095Y-68998533D01*
X105068571Y-68712819D02*
X105163809Y-68712819D01*
X105163809Y-68712819D02*
X105259047Y-68760438D01*
X105259047Y-68760438D02*
X105306666Y-68808057D01*
X105306666Y-68808057D02*
X105354285Y-68903295D01*
X105354285Y-68903295D02*
X105401904Y-69093771D01*
X105401904Y-69093771D02*
X105401904Y-69331866D01*
X105401904Y-69331866D02*
X105354285Y-69522342D01*
X105354285Y-69522342D02*
X105306666Y-69617580D01*
X105306666Y-69617580D02*
X105259047Y-69665200D01*
X105259047Y-69665200D02*
X105163809Y-69712819D01*
X105163809Y-69712819D02*
X105068571Y-69712819D01*
X105068571Y-69712819D02*
X104973333Y-69665200D01*
X104973333Y-69665200D02*
X104925714Y-69617580D01*
X104925714Y-69617580D02*
X104878095Y-69522342D01*
X104878095Y-69522342D02*
X104830476Y-69331866D01*
X104830476Y-69331866D02*
X104830476Y-69093771D01*
X104830476Y-69093771D02*
X104878095Y-68903295D01*
X104878095Y-68903295D02*
X104925714Y-68808057D01*
X104925714Y-68808057D02*
X104973333Y-68760438D01*
X104973333Y-68760438D02*
X105068571Y-68712819D01*
X95122761Y-89954057D02*
X95027523Y-89906438D01*
X95027523Y-89906438D02*
X94932285Y-89811200D01*
X94932285Y-89811200D02*
X94789428Y-89668342D01*
X94789428Y-89668342D02*
X94694190Y-89620723D01*
X94694190Y-89620723D02*
X94598952Y-89620723D01*
X94646571Y-89858819D02*
X94551333Y-89811200D01*
X94551333Y-89811200D02*
X94456095Y-89715961D01*
X94456095Y-89715961D02*
X94408476Y-89525485D01*
X94408476Y-89525485D02*
X94408476Y-89192152D01*
X94408476Y-89192152D02*
X94456095Y-89001676D01*
X94456095Y-89001676D02*
X94551333Y-88906438D01*
X94551333Y-88906438D02*
X94646571Y-88858819D01*
X94646571Y-88858819D02*
X94837047Y-88858819D01*
X94837047Y-88858819D02*
X94932285Y-88906438D01*
X94932285Y-88906438D02*
X95027523Y-89001676D01*
X95027523Y-89001676D02*
X95075142Y-89192152D01*
X95075142Y-89192152D02*
X95075142Y-89525485D01*
X95075142Y-89525485D02*
X95027523Y-89715961D01*
X95027523Y-89715961D02*
X94932285Y-89811200D01*
X94932285Y-89811200D02*
X94837047Y-89858819D01*
X94837047Y-89858819D02*
X94646571Y-89858819D01*
X95456095Y-88954057D02*
X95503714Y-88906438D01*
X95503714Y-88906438D02*
X95598952Y-88858819D01*
X95598952Y-88858819D02*
X95837047Y-88858819D01*
X95837047Y-88858819D02*
X95932285Y-88906438D01*
X95932285Y-88906438D02*
X95979904Y-88954057D01*
X95979904Y-88954057D02*
X96027523Y-89049295D01*
X96027523Y-89049295D02*
X96027523Y-89144533D01*
X96027523Y-89144533D02*
X95979904Y-89287390D01*
X95979904Y-89287390D02*
X95408476Y-89858819D01*
X95408476Y-89858819D02*
X96027523Y-89858819D01*
D13*
%TO.C,C8*%
X105891225Y-97153000D02*
X106391225Y-97153000D01*
X106141225Y-96903000D02*
X106141225Y-97403000D01*
X108696000Y-96048000D02*
X108696000Y-97588000D01*
X108696000Y-99668000D02*
X108696000Y-101208000D01*
X108736000Y-96048000D02*
X108736000Y-97588000D01*
X108736000Y-99668000D02*
X108736000Y-101208000D01*
X108776000Y-96049000D02*
X108776000Y-97588000D01*
X108776000Y-99668000D02*
X108776000Y-101207000D01*
X108816000Y-96050000D02*
X108816000Y-97588000D01*
X108816000Y-99668000D02*
X108816000Y-101206000D01*
X108856000Y-96052000D02*
X108856000Y-97588000D01*
X108856000Y-99668000D02*
X108856000Y-101204000D01*
X108896000Y-96055000D02*
X108896000Y-97588000D01*
X108896000Y-99668000D02*
X108896000Y-101201000D01*
X108936000Y-96059000D02*
X108936000Y-97588000D01*
X108936000Y-99668000D02*
X108936000Y-101197000D01*
X108976000Y-96063000D02*
X108976000Y-97588000D01*
X108976000Y-99668000D02*
X108976000Y-101193000D01*
X109016000Y-96067000D02*
X109016000Y-97588000D01*
X109016000Y-99668000D02*
X109016000Y-101189000D01*
X109056000Y-96072000D02*
X109056000Y-97588000D01*
X109056000Y-99668000D02*
X109056000Y-101184000D01*
X109096000Y-96078000D02*
X109096000Y-97588000D01*
X109096000Y-99668000D02*
X109096000Y-101178000D01*
X109136000Y-96085000D02*
X109136000Y-97588000D01*
X109136000Y-99668000D02*
X109136000Y-101171000D01*
X109176000Y-96092000D02*
X109176000Y-97588000D01*
X109176000Y-99668000D02*
X109176000Y-101164000D01*
X109216000Y-96100000D02*
X109216000Y-97588000D01*
X109216000Y-99668000D02*
X109216000Y-101156000D01*
X109256000Y-96108000D02*
X109256000Y-97588000D01*
X109256000Y-99668000D02*
X109256000Y-101148000D01*
X109296000Y-96117000D02*
X109296000Y-97588000D01*
X109296000Y-99668000D02*
X109296000Y-101139000D01*
X109336000Y-96127000D02*
X109336000Y-97588000D01*
X109336000Y-99668000D02*
X109336000Y-101129000D01*
X109376000Y-96137000D02*
X109376000Y-97588000D01*
X109376000Y-99668000D02*
X109376000Y-101119000D01*
X109417000Y-96148000D02*
X109417000Y-97588000D01*
X109417000Y-99668000D02*
X109417000Y-101108000D01*
X109457000Y-96160000D02*
X109457000Y-97588000D01*
X109457000Y-99668000D02*
X109457000Y-101096000D01*
X109497000Y-96173000D02*
X109497000Y-97588000D01*
X109497000Y-99668000D02*
X109497000Y-101083000D01*
X109537000Y-96186000D02*
X109537000Y-97588000D01*
X109537000Y-99668000D02*
X109537000Y-101070000D01*
X109577000Y-96200000D02*
X109577000Y-97588000D01*
X109577000Y-99668000D02*
X109577000Y-101056000D01*
X109617000Y-96214000D02*
X109617000Y-97588000D01*
X109617000Y-99668000D02*
X109617000Y-101042000D01*
X109657000Y-96230000D02*
X109657000Y-97588000D01*
X109657000Y-99668000D02*
X109657000Y-101026000D01*
X109697000Y-96246000D02*
X109697000Y-97588000D01*
X109697000Y-99668000D02*
X109697000Y-101010000D01*
X109737000Y-96263000D02*
X109737000Y-97588000D01*
X109737000Y-99668000D02*
X109737000Y-100993000D01*
X109777000Y-96280000D02*
X109777000Y-97588000D01*
X109777000Y-99668000D02*
X109777000Y-100976000D01*
X109817000Y-96299000D02*
X109817000Y-97588000D01*
X109817000Y-99668000D02*
X109817000Y-100957000D01*
X109857000Y-96318000D02*
X109857000Y-97588000D01*
X109857000Y-99668000D02*
X109857000Y-100938000D01*
X109897000Y-96338000D02*
X109897000Y-97588000D01*
X109897000Y-99668000D02*
X109897000Y-100918000D01*
X109937000Y-96360000D02*
X109937000Y-97588000D01*
X109937000Y-99668000D02*
X109937000Y-100896000D01*
X109977000Y-96381000D02*
X109977000Y-97588000D01*
X109977000Y-99668000D02*
X109977000Y-100875000D01*
X110017000Y-96404000D02*
X110017000Y-97588000D01*
X110017000Y-99668000D02*
X110017000Y-100852000D01*
X110057000Y-96428000D02*
X110057000Y-97588000D01*
X110057000Y-99668000D02*
X110057000Y-100828000D01*
X110097000Y-96453000D02*
X110097000Y-97588000D01*
X110097000Y-99668000D02*
X110097000Y-100803000D01*
X110137000Y-96479000D02*
X110137000Y-97588000D01*
X110137000Y-99668000D02*
X110137000Y-100777000D01*
X110177000Y-96506000D02*
X110177000Y-97588000D01*
X110177000Y-99668000D02*
X110177000Y-100750000D01*
X110217000Y-96533000D02*
X110217000Y-97588000D01*
X110217000Y-99668000D02*
X110217000Y-100723000D01*
X110257000Y-96563000D02*
X110257000Y-97588000D01*
X110257000Y-99668000D02*
X110257000Y-100693000D01*
X110297000Y-96593000D02*
X110297000Y-97588000D01*
X110297000Y-99668000D02*
X110297000Y-100663000D01*
X110337000Y-96624000D02*
X110337000Y-97588000D01*
X110337000Y-99668000D02*
X110337000Y-100632000D01*
X110377000Y-96657000D02*
X110377000Y-97588000D01*
X110377000Y-99668000D02*
X110377000Y-100599000D01*
X110417000Y-96691000D02*
X110417000Y-97588000D01*
X110417000Y-99668000D02*
X110417000Y-100565000D01*
X110457000Y-96727000D02*
X110457000Y-97588000D01*
X110457000Y-99668000D02*
X110457000Y-100529000D01*
X110497000Y-96764000D02*
X110497000Y-97588000D01*
X110497000Y-99668000D02*
X110497000Y-100492000D01*
X110537000Y-96802000D02*
X110537000Y-97588000D01*
X110537000Y-99668000D02*
X110537000Y-100454000D01*
X110577000Y-96843000D02*
X110577000Y-97588000D01*
X110577000Y-99668000D02*
X110577000Y-100413000D01*
X110617000Y-96885000D02*
X110617000Y-97588000D01*
X110617000Y-99668000D02*
X110617000Y-100371000D01*
X110657000Y-96929000D02*
X110657000Y-97588000D01*
X110657000Y-99668000D02*
X110657000Y-100327000D01*
X110697000Y-96975000D02*
X110697000Y-97588000D01*
X110697000Y-99668000D02*
X110697000Y-100281000D01*
X110737000Y-97023000D02*
X110737000Y-100233000D01*
X110777000Y-97074000D02*
X110777000Y-100182000D01*
X110817000Y-97128000D02*
X110817000Y-100128000D01*
X110857000Y-97185000D02*
X110857000Y-100071000D01*
X110897000Y-97245000D02*
X110897000Y-100011000D01*
X110937000Y-97309000D02*
X110937000Y-99947000D01*
X110977000Y-97377000D02*
X110977000Y-99879000D01*
X111017000Y-97450000D02*
X111017000Y-99806000D01*
X111057000Y-97530000D02*
X111057000Y-99726000D01*
X111097000Y-97617000D02*
X111097000Y-99639000D01*
X111137000Y-97713000D02*
X111137000Y-99543000D01*
X111177000Y-97823000D02*
X111177000Y-99433000D01*
X111217000Y-97951000D02*
X111217000Y-99305000D01*
X111257000Y-98110000D02*
X111257000Y-99146000D01*
X111297000Y-98344000D02*
X111297000Y-98912000D01*
X111316000Y-98628000D02*
G75*
G02*
X106076000Y-98628000I-2620000J0D01*
G01*
X106076000Y-98628000D02*
G75*
G02*
X111316000Y-98628000I2620000J0D01*
G01*
%TO.C,R9*%
X97560000Y-75692000D02*
X100870000Y-75692000D01*
X100870000Y-74322000D02*
X100870000Y-77062000D01*
X100870000Y-77062000D02*
X107410000Y-77062000D01*
X107410000Y-74322000D02*
X100870000Y-74322000D01*
X107410000Y-77062000D02*
X107410000Y-74322000D01*
X110720000Y-75692000D02*
X107410000Y-75692000D01*
%TO.C,Q3*%
X102036000Y-86221000D02*
X102036000Y-81580000D01*
X105305000Y-86221000D02*
X105305000Y-84711000D01*
X109006000Y-86221000D02*
X109006000Y-84711000D01*
X112276000Y-81580000D02*
X102036000Y-81580000D01*
X112276000Y-84711000D02*
X102036000Y-84711000D01*
X112276000Y-86221000D02*
X102036000Y-86221000D01*
X112276000Y-86221000D02*
X112276000Y-81580000D01*
D12*
%TO.C,U1*%
X117649000Y-50415500D02*
X117649000Y-51090500D01*
X117649000Y-50415500D02*
X118324000Y-50415500D01*
X117649000Y-60765500D02*
X117649000Y-60090500D01*
X117649000Y-60765500D02*
X118324000Y-60765500D01*
X127999000Y-50415500D02*
X127324000Y-50415500D01*
X127999000Y-50415500D02*
X127999000Y-51090500D01*
X127999000Y-60765500D02*
X127324000Y-60765500D01*
X127999000Y-60765500D02*
X127999000Y-60150500D01*
D13*
X129024000Y-60600500D02*
X128344000Y-60600500D01*
X128684000Y-60130500D01*
X129024000Y-60600500D01*
G36*
X129024000Y-60600500D02*
G01*
X128344000Y-60600500D01*
X128684000Y-60130500D01*
X129024000Y-60600500D01*
G37*
%TO.C,R12*%
X87530000Y-68358000D02*
X87530000Y-74898000D01*
X87530000Y-74898000D02*
X90270000Y-74898000D01*
X88900000Y-65048000D02*
X88900000Y-68358000D01*
X88900000Y-78208000D02*
X88900000Y-74898000D01*
X90270000Y-68358000D02*
X87530000Y-68358000D01*
X90270000Y-74898000D02*
X90270000Y-68358000D01*
%TO.C,R13*%
X77748000Y-32512000D02*
X81058000Y-32512000D01*
X81058000Y-31142000D02*
X81058000Y-33882000D01*
X81058000Y-33882000D02*
X87598000Y-33882000D01*
X87598000Y-31142000D02*
X81058000Y-31142000D01*
X87598000Y-33882000D02*
X87598000Y-31142000D01*
X90908000Y-32512000D02*
X87598000Y-32512000D01*
%TO.C,D1*%
X118438000Y-91494000D02*
X123878000Y-91494000D01*
X118438000Y-91624000D02*
X118438000Y-91494000D01*
X118438000Y-94304000D02*
X118438000Y-94434000D01*
X118438000Y-94434000D02*
X123878000Y-94434000D01*
X119218000Y-91494000D02*
X119218000Y-94434000D01*
X119338000Y-91494000D02*
X119338000Y-94434000D01*
X119458000Y-91494000D02*
X119458000Y-94434000D01*
X123878000Y-91494000D02*
X123878000Y-91624000D01*
X123878000Y-94434000D02*
X123878000Y-94304000D01*
%TO.C,R1*%
X133854000Y-37320500D02*
X133854000Y-43860500D01*
X133854000Y-43860500D02*
X136594000Y-43860500D01*
X135224000Y-34010500D02*
X135224000Y-37320500D01*
X135224000Y-47170500D02*
X135224000Y-43860500D01*
X136594000Y-37320500D02*
X133854000Y-37320500D01*
X136594000Y-43860500D02*
X136594000Y-37320500D01*
%TO.C,C3*%
X131831225Y-64339500D02*
X132331225Y-64339500D01*
X132081225Y-64089500D02*
X132081225Y-64589500D01*
X134636000Y-63234500D02*
X134636000Y-64774500D01*
X134636000Y-66854500D02*
X134636000Y-68394500D01*
X134676000Y-63234500D02*
X134676000Y-64774500D01*
X134676000Y-66854500D02*
X134676000Y-68394500D01*
X134716000Y-63235500D02*
X134716000Y-64774500D01*
X134716000Y-66854500D02*
X134716000Y-68393500D01*
X134756000Y-63236500D02*
X134756000Y-64774500D01*
X134756000Y-66854500D02*
X134756000Y-68392500D01*
X134796000Y-63238500D02*
X134796000Y-64774500D01*
X134796000Y-66854500D02*
X134796000Y-68390500D01*
X134836000Y-63241500D02*
X134836000Y-64774500D01*
X134836000Y-66854500D02*
X134836000Y-68387500D01*
X134876000Y-63245500D02*
X134876000Y-64774500D01*
X134876000Y-66854500D02*
X134876000Y-68383500D01*
X134916000Y-63249500D02*
X134916000Y-64774500D01*
X134916000Y-66854500D02*
X134916000Y-68379500D01*
X134956000Y-63253500D02*
X134956000Y-64774500D01*
X134956000Y-66854500D02*
X134956000Y-68375500D01*
X134996000Y-63258500D02*
X134996000Y-64774500D01*
X134996000Y-66854500D02*
X134996000Y-68370500D01*
X135036000Y-63264500D02*
X135036000Y-64774500D01*
X135036000Y-66854500D02*
X135036000Y-68364500D01*
X135076000Y-63271500D02*
X135076000Y-64774500D01*
X135076000Y-66854500D02*
X135076000Y-68357500D01*
X135116000Y-63278500D02*
X135116000Y-64774500D01*
X135116000Y-66854500D02*
X135116000Y-68350500D01*
X135156000Y-63286500D02*
X135156000Y-64774500D01*
X135156000Y-66854500D02*
X135156000Y-68342500D01*
X135196000Y-63294500D02*
X135196000Y-64774500D01*
X135196000Y-66854500D02*
X135196000Y-68334500D01*
X135236000Y-63303500D02*
X135236000Y-64774500D01*
X135236000Y-66854500D02*
X135236000Y-68325500D01*
X135276000Y-63313500D02*
X135276000Y-64774500D01*
X135276000Y-66854500D02*
X135276000Y-68315500D01*
X135316000Y-63323500D02*
X135316000Y-64774500D01*
X135316000Y-66854500D02*
X135316000Y-68305500D01*
X135357000Y-63334500D02*
X135357000Y-64774500D01*
X135357000Y-66854500D02*
X135357000Y-68294500D01*
X135397000Y-63346500D02*
X135397000Y-64774500D01*
X135397000Y-66854500D02*
X135397000Y-68282500D01*
X135437000Y-63359500D02*
X135437000Y-64774500D01*
X135437000Y-66854500D02*
X135437000Y-68269500D01*
X135477000Y-63372500D02*
X135477000Y-64774500D01*
X135477000Y-66854500D02*
X135477000Y-68256500D01*
X135517000Y-63386500D02*
X135517000Y-64774500D01*
X135517000Y-66854500D02*
X135517000Y-68242500D01*
X135557000Y-63400500D02*
X135557000Y-64774500D01*
X135557000Y-66854500D02*
X135557000Y-68228500D01*
X135597000Y-63416500D02*
X135597000Y-64774500D01*
X135597000Y-66854500D02*
X135597000Y-68212500D01*
X135637000Y-63432500D02*
X135637000Y-64774500D01*
X135637000Y-66854500D02*
X135637000Y-68196500D01*
X135677000Y-63449500D02*
X135677000Y-64774500D01*
X135677000Y-66854500D02*
X135677000Y-68179500D01*
X135717000Y-63466500D02*
X135717000Y-64774500D01*
X135717000Y-66854500D02*
X135717000Y-68162500D01*
X135757000Y-63485500D02*
X135757000Y-64774500D01*
X135757000Y-66854500D02*
X135757000Y-68143500D01*
X135797000Y-63504500D02*
X135797000Y-64774500D01*
X135797000Y-66854500D02*
X135797000Y-68124500D01*
X135837000Y-63524500D02*
X135837000Y-64774500D01*
X135837000Y-66854500D02*
X135837000Y-68104500D01*
X135877000Y-63546500D02*
X135877000Y-64774500D01*
X135877000Y-66854500D02*
X135877000Y-68082500D01*
X135917000Y-63567500D02*
X135917000Y-64774500D01*
X135917000Y-66854500D02*
X135917000Y-68061500D01*
X135957000Y-63590500D02*
X135957000Y-64774500D01*
X135957000Y-66854500D02*
X135957000Y-68038500D01*
X135997000Y-63614500D02*
X135997000Y-64774500D01*
X135997000Y-66854500D02*
X135997000Y-68014500D01*
X136037000Y-63639500D02*
X136037000Y-64774500D01*
X136037000Y-66854500D02*
X136037000Y-67989500D01*
X136077000Y-63665500D02*
X136077000Y-64774500D01*
X136077000Y-66854500D02*
X136077000Y-67963500D01*
X136117000Y-63692500D02*
X136117000Y-64774500D01*
X136117000Y-66854500D02*
X136117000Y-67936500D01*
X136157000Y-63719500D02*
X136157000Y-64774500D01*
X136157000Y-66854500D02*
X136157000Y-67909500D01*
X136197000Y-63749500D02*
X136197000Y-64774500D01*
X136197000Y-66854500D02*
X136197000Y-67879500D01*
X136237000Y-63779500D02*
X136237000Y-64774500D01*
X136237000Y-66854500D02*
X136237000Y-67849500D01*
X136277000Y-63810500D02*
X136277000Y-64774500D01*
X136277000Y-66854500D02*
X136277000Y-67818500D01*
X136317000Y-63843500D02*
X136317000Y-64774500D01*
X136317000Y-66854500D02*
X136317000Y-67785500D01*
X136357000Y-63877500D02*
X136357000Y-64774500D01*
X136357000Y-66854500D02*
X136357000Y-67751500D01*
X136397000Y-63913500D02*
X136397000Y-64774500D01*
X136397000Y-66854500D02*
X136397000Y-67715500D01*
X136437000Y-63950500D02*
X136437000Y-64774500D01*
X136437000Y-66854500D02*
X136437000Y-67678500D01*
X136477000Y-63988500D02*
X136477000Y-64774500D01*
X136477000Y-66854500D02*
X136477000Y-67640500D01*
X136517000Y-64029500D02*
X136517000Y-64774500D01*
X136517000Y-66854500D02*
X136517000Y-67599500D01*
X136557000Y-64071500D02*
X136557000Y-64774500D01*
X136557000Y-66854500D02*
X136557000Y-67557500D01*
X136597000Y-64115500D02*
X136597000Y-64774500D01*
X136597000Y-66854500D02*
X136597000Y-67513500D01*
X136637000Y-64161500D02*
X136637000Y-64774500D01*
X136637000Y-66854500D02*
X136637000Y-67467500D01*
X136677000Y-64209500D02*
X136677000Y-67419500D01*
X136717000Y-64260500D02*
X136717000Y-67368500D01*
X136757000Y-64314500D02*
X136757000Y-67314500D01*
X136797000Y-64371500D02*
X136797000Y-67257500D01*
X136837000Y-64431500D02*
X136837000Y-67197500D01*
X136877000Y-64495500D02*
X136877000Y-67133500D01*
X136917000Y-64563500D02*
X136917000Y-67065500D01*
X136957000Y-64636500D02*
X136957000Y-66992500D01*
X136997000Y-64716500D02*
X136997000Y-66912500D01*
X137037000Y-64803500D02*
X137037000Y-66825500D01*
X137077000Y-64899500D02*
X137077000Y-66729500D01*
X137117000Y-65009500D02*
X137117000Y-66619500D01*
X137157000Y-65137500D02*
X137157000Y-66491500D01*
X137197000Y-65296500D02*
X137197000Y-66332500D01*
X137237000Y-65530500D02*
X137237000Y-66098500D01*
X137256000Y-65814500D02*
G75*
G02*
X132016000Y-65814500I-2620000J0D01*
G01*
X132016000Y-65814500D02*
G75*
G02*
X137256000Y-65814500I2620000J0D01*
G01*
%TO.C,C4*%
X70415000Y-36954000D02*
X70415000Y-42294000D01*
X71081000Y-36954000D02*
X70415000Y-36954000D01*
X71081000Y-42294000D02*
X70415000Y-42294000D01*
X73857000Y-36954000D02*
X73191000Y-36954000D01*
X73857000Y-36954000D02*
X73857000Y-42294000D01*
X73857000Y-42294000D02*
X73191000Y-42294000D01*
%TO.C,C6*%
X96831000Y-32342000D02*
X97497000Y-32342000D01*
X96831000Y-37682000D02*
X96831000Y-32342000D01*
X96831000Y-37682000D02*
X97497000Y-37682000D01*
X99607000Y-32342000D02*
X100273000Y-32342000D01*
X99607000Y-37682000D02*
X100273000Y-37682000D01*
X100273000Y-37682000D02*
X100273000Y-32342000D01*
%TO.C,C2*%
X125491000Y-33068500D02*
X125491000Y-40808500D01*
X130133000Y-33068500D02*
X125491000Y-33068500D01*
X130133000Y-33068500D02*
X130133000Y-40808500D01*
X130133000Y-40808500D02*
X125491000Y-40808500D01*
%TO.C,R7*%
X75338000Y-58198000D02*
X75338000Y-64738000D01*
X75338000Y-64738000D02*
X78078000Y-64738000D01*
X76708000Y-54888000D02*
X76708000Y-58198000D01*
X76708000Y-68048000D02*
X76708000Y-64738000D01*
X78078000Y-58198000D02*
X75338000Y-58198000D01*
X78078000Y-64738000D02*
X78078000Y-58198000D01*
%TO.C,R17*%
X79910000Y-58198000D02*
X79910000Y-64738000D01*
X79910000Y-64738000D02*
X82650000Y-64738000D01*
X81280000Y-54888000D02*
X81280000Y-58198000D01*
X81280000Y-68048000D02*
X81280000Y-64738000D01*
X82650000Y-58198000D02*
X79910000Y-58198000D01*
X82650000Y-64738000D02*
X82650000Y-58198000D01*
%TO.C,R2*%
X77748000Y-37084000D02*
X81058000Y-37084000D01*
X81058000Y-35714000D02*
X81058000Y-38454000D01*
X81058000Y-38454000D02*
X87598000Y-38454000D01*
X87598000Y-35714000D02*
X81058000Y-35714000D01*
X87598000Y-38454000D02*
X87598000Y-35714000D01*
X90908000Y-37084000D02*
X87598000Y-37084000D01*
%TO.C,R14*%
X77748000Y-27940000D02*
X81058000Y-27940000D01*
X81058000Y-26570000D02*
X81058000Y-29310000D01*
X81058000Y-29310000D02*
X87598000Y-29310000D01*
X87598000Y-26570000D02*
X81058000Y-26570000D01*
X87598000Y-29310000D02*
X87598000Y-26570000D01*
X90908000Y-27940000D02*
X87598000Y-27940000D01*
%TO.C,C9*%
X96831000Y-44026000D02*
X97497000Y-44026000D01*
X96831000Y-49366000D02*
X96831000Y-44026000D01*
X96831000Y-49366000D02*
X97497000Y-49366000D01*
X99607000Y-44026000D02*
X100273000Y-44026000D01*
X99607000Y-49366000D02*
X100273000Y-49366000D01*
X100273000Y-49366000D02*
X100273000Y-44026000D01*
%TO.C,C7*%
X113654113Y-87228000D02*
X113654113Y-86660000D01*
X113694113Y-87462000D02*
X113694113Y-86426000D01*
X113734113Y-87621000D02*
X113734113Y-86267000D01*
X113774113Y-87749000D02*
X113774113Y-86139000D01*
X113814113Y-87859000D02*
X113814113Y-86029000D01*
X113854113Y-87955000D02*
X113854113Y-85933000D01*
X113894113Y-88042000D02*
X113894113Y-85846000D01*
X113934113Y-88122000D02*
X113934113Y-85766000D01*
X113974113Y-88195000D02*
X113974113Y-85693000D01*
X114014113Y-88263000D02*
X114014113Y-85625000D01*
X114054113Y-88327000D02*
X114054113Y-85561000D01*
X114094113Y-88387000D02*
X114094113Y-85501000D01*
X114134113Y-88444000D02*
X114134113Y-85444000D01*
X114174113Y-88498000D02*
X114174113Y-85390000D01*
X114214113Y-88549000D02*
X114214113Y-85339000D01*
X114254113Y-85904000D02*
X114254113Y-85291000D01*
X114254113Y-88597000D02*
X114254113Y-87984000D01*
X114294113Y-85904000D02*
X114294113Y-85245000D01*
X114294113Y-88643000D02*
X114294113Y-87984000D01*
X114334113Y-85904000D02*
X114334113Y-85201000D01*
X114334113Y-88687000D02*
X114334113Y-87984000D01*
X114374113Y-85904000D02*
X114374113Y-85159000D01*
X114374113Y-88729000D02*
X114374113Y-87984000D01*
X114414113Y-85904000D02*
X114414113Y-85118000D01*
X114414113Y-88770000D02*
X114414113Y-87984000D01*
X114454113Y-85904000D02*
X114454113Y-85080000D01*
X114454113Y-88808000D02*
X114454113Y-87984000D01*
X114494113Y-85904000D02*
X114494113Y-85043000D01*
X114494113Y-88845000D02*
X114494113Y-87984000D01*
X114534113Y-85904000D02*
X114534113Y-85007000D01*
X114534113Y-88881000D02*
X114534113Y-87984000D01*
X114574113Y-85904000D02*
X114574113Y-84973000D01*
X114574113Y-88915000D02*
X114574113Y-87984000D01*
X114614113Y-85904000D02*
X114614113Y-84940000D01*
X114614113Y-88948000D02*
X114614113Y-87984000D01*
X114654113Y-85904000D02*
X114654113Y-84909000D01*
X114654113Y-88979000D02*
X114654113Y-87984000D01*
X114694113Y-85904000D02*
X114694113Y-84879000D01*
X114694113Y-89009000D02*
X114694113Y-87984000D01*
X114734113Y-85904000D02*
X114734113Y-84849000D01*
X114734113Y-89039000D02*
X114734113Y-87984000D01*
X114774113Y-85904000D02*
X114774113Y-84822000D01*
X114774113Y-89066000D02*
X114774113Y-87984000D01*
X114814113Y-85904000D02*
X114814113Y-84795000D01*
X114814113Y-89093000D02*
X114814113Y-87984000D01*
X114854113Y-85904000D02*
X114854113Y-84769000D01*
X114854113Y-89119000D02*
X114854113Y-87984000D01*
X114894113Y-85904000D02*
X114894113Y-84744000D01*
X114894113Y-89144000D02*
X114894113Y-87984000D01*
X114934113Y-85904000D02*
X114934113Y-84720000D01*
X114934113Y-89168000D02*
X114934113Y-87984000D01*
X114974113Y-85904000D02*
X114974113Y-84697000D01*
X114974113Y-89191000D02*
X114974113Y-87984000D01*
X115014113Y-85904000D02*
X115014113Y-84676000D01*
X115014113Y-89212000D02*
X115014113Y-87984000D01*
X115054113Y-85904000D02*
X115054113Y-84654000D01*
X115054113Y-89234000D02*
X115054113Y-87984000D01*
X115094113Y-85904000D02*
X115094113Y-84634000D01*
X115094113Y-89254000D02*
X115094113Y-87984000D01*
X115134113Y-85904000D02*
X115134113Y-84615000D01*
X115134113Y-89273000D02*
X115134113Y-87984000D01*
X115174113Y-85904000D02*
X115174113Y-84596000D01*
X115174113Y-89292000D02*
X115174113Y-87984000D01*
X115214113Y-85904000D02*
X115214113Y-84579000D01*
X115214113Y-89309000D02*
X115214113Y-87984000D01*
X115254113Y-85904000D02*
X115254113Y-84562000D01*
X115254113Y-89326000D02*
X115254113Y-87984000D01*
X115294113Y-85904000D02*
X115294113Y-84546000D01*
X115294113Y-89342000D02*
X115294113Y-87984000D01*
X115334113Y-85904000D02*
X115334113Y-84530000D01*
X115334113Y-89358000D02*
X115334113Y-87984000D01*
X115374113Y-85904000D02*
X115374113Y-84516000D01*
X115374113Y-89372000D02*
X115374113Y-87984000D01*
X115414113Y-85904000D02*
X115414113Y-84502000D01*
X115414113Y-89386000D02*
X115414113Y-87984000D01*
X115454113Y-85904000D02*
X115454113Y-84489000D01*
X115454113Y-89399000D02*
X115454113Y-87984000D01*
X115494113Y-85904000D02*
X115494113Y-84476000D01*
X115494113Y-89412000D02*
X115494113Y-87984000D01*
X115534113Y-85904000D02*
X115534113Y-84464000D01*
X115534113Y-89424000D02*
X115534113Y-87984000D01*
X115575113Y-85904000D02*
X115575113Y-84453000D01*
X115575113Y-89435000D02*
X115575113Y-87984000D01*
X115615113Y-85904000D02*
X115615113Y-84443000D01*
X115615113Y-89445000D02*
X115615113Y-87984000D01*
X115655113Y-85904000D02*
X115655113Y-84433000D01*
X115655113Y-89455000D02*
X115655113Y-87984000D01*
X115695113Y-85904000D02*
X115695113Y-84424000D01*
X115695113Y-89464000D02*
X115695113Y-87984000D01*
X115735113Y-85904000D02*
X115735113Y-84416000D01*
X115735113Y-89472000D02*
X115735113Y-87984000D01*
X115775113Y-85904000D02*
X115775113Y-84408000D01*
X115775113Y-89480000D02*
X115775113Y-87984000D01*
X115815113Y-85904000D02*
X115815113Y-84401000D01*
X115815113Y-89487000D02*
X115815113Y-87984000D01*
X115855113Y-85904000D02*
X115855113Y-84394000D01*
X115855113Y-89494000D02*
X115855113Y-87984000D01*
X115895113Y-85904000D02*
X115895113Y-84388000D01*
X115895113Y-89500000D02*
X115895113Y-87984000D01*
X115935113Y-85904000D02*
X115935113Y-84383000D01*
X115935113Y-89505000D02*
X115935113Y-87984000D01*
X115975113Y-85904000D02*
X115975113Y-84379000D01*
X115975113Y-89509000D02*
X115975113Y-87984000D01*
X116015113Y-85904000D02*
X116015113Y-84375000D01*
X116015113Y-89513000D02*
X116015113Y-87984000D01*
X116055113Y-85904000D02*
X116055113Y-84371000D01*
X116055113Y-89517000D02*
X116055113Y-87984000D01*
X116095113Y-85904000D02*
X116095113Y-84368000D01*
X116095113Y-89520000D02*
X116095113Y-87984000D01*
X116135113Y-85904000D02*
X116135113Y-84366000D01*
X116135113Y-89522000D02*
X116135113Y-87984000D01*
X116175113Y-85904000D02*
X116175113Y-84365000D01*
X116175113Y-89523000D02*
X116175113Y-87984000D01*
X116215113Y-85904000D02*
X116215113Y-84364000D01*
X116215113Y-89524000D02*
X116215113Y-87984000D01*
X116255113Y-85904000D02*
X116255113Y-84364000D01*
X116255113Y-89524000D02*
X116255113Y-87984000D01*
X118809888Y-88669000D02*
X118809888Y-88169000D01*
X119059888Y-88419000D02*
X118559888Y-88419000D01*
X118875113Y-86944000D02*
G75*
G02*
X113635113Y-86944000I-2620000J0D01*
G01*
X113635113Y-86944000D02*
G75*
G02*
X118875113Y-86944000I2620000J0D01*
G01*
%TO.C,R6*%
X77748000Y-49276000D02*
X81058000Y-49276000D01*
X81058000Y-47906000D02*
X81058000Y-50646000D01*
X81058000Y-50646000D02*
X87598000Y-50646000D01*
X87598000Y-47906000D02*
X81058000Y-47906000D01*
X87598000Y-50646000D02*
X87598000Y-47906000D01*
X90908000Y-49276000D02*
X87598000Y-49276000D01*
%TO.C,U5*%
X95271000Y-56846000D02*
X95271000Y-67126000D01*
X95271000Y-67126000D02*
X99771000Y-67126000D01*
X96521000Y-56846000D02*
X95271000Y-56846000D01*
X99771000Y-56846000D02*
X98521000Y-56846000D01*
X99771000Y-67126000D02*
X99771000Y-56846000D01*
X98521000Y-56846000D02*
G75*
G02*
X96521000Y-56846000I-1000000J0D01*
G01*
%TO.C,D2*%
X113338000Y-97864000D02*
X113468000Y-97864000D01*
X113338000Y-102284000D02*
X116278000Y-102284000D01*
X113338000Y-102404000D02*
X116278000Y-102404000D01*
X113338000Y-102524000D02*
X116278000Y-102524000D01*
X113338000Y-103304000D02*
X113338000Y-97864000D01*
X113468000Y-103304000D02*
X113338000Y-103304000D01*
X116148000Y-103304000D02*
X116278000Y-103304000D01*
X116278000Y-97864000D02*
X116148000Y-97864000D01*
X116278000Y-103304000D02*
X116278000Y-97864000D01*
%TO.C,Q6*%
X75620000Y-87738000D02*
X75620000Y-92379000D01*
X75620000Y-87738000D02*
X85860000Y-87738000D01*
X75620000Y-89248000D02*
X85860000Y-89248000D01*
X75620000Y-92379000D02*
X85860000Y-92379000D01*
X78890000Y-87738000D02*
X78890000Y-89248000D01*
X82591000Y-87738000D02*
X82591000Y-89248000D01*
X85860000Y-87738000D02*
X85860000Y-92379000D01*
%TO.C,Q4*%
X102036000Y-89694000D02*
X102036000Y-94335000D01*
X102036000Y-89694000D02*
X112276000Y-89694000D01*
X102036000Y-91204000D02*
X112276000Y-91204000D01*
X102036000Y-94335000D02*
X112276000Y-94335000D01*
X105306000Y-89694000D02*
X105306000Y-91204000D01*
X109007000Y-89694000D02*
X109007000Y-91204000D01*
X112276000Y-89694000D02*
X112276000Y-94335000D01*
%TO.C,Q1*%
X119438000Y-84814000D02*
X123038000Y-84814000D01*
X119399522Y-84802478D02*
G75*
G02*
X121238000Y-80363999I1838478J1838478D01*
G01*
X121238000Y-80364000D02*
G75*
G02*
X123076478Y-84802478I0J-2600000D01*
G01*
%TO.C,J2*%
X138290000Y-64890000D02*
X138290000Y-72610000D01*
X138290000Y-72610000D02*
X142310000Y-72610000D01*
X138790000Y-65390000D02*
X140000000Y-65390000D01*
X138790000Y-72110000D02*
X138790000Y-65390000D01*
X140000000Y-65390000D02*
X140000000Y-64890000D01*
X140000000Y-72110000D02*
X138790000Y-72110000D01*
X140000000Y-72610000D02*
X140000000Y-72110000D01*
X140110000Y-72910000D02*
X142610000Y-72910000D01*
X140810000Y-64890000D02*
X140810000Y-65890000D01*
X140810000Y-65890000D02*
X142310000Y-65890000D01*
X140810000Y-71610000D02*
X142310000Y-71610000D01*
X140810000Y-72610000D02*
X140810000Y-71610000D01*
X142310000Y-64890000D02*
X138290000Y-64890000D01*
X142310000Y-72610000D02*
X142310000Y-64890000D01*
X142610000Y-72910000D02*
X142610000Y-70410000D01*
%TO.C,R3*%
X77748000Y-41656000D02*
X81058000Y-41656000D01*
X81058000Y-40286000D02*
X81058000Y-43026000D01*
X81058000Y-43026000D02*
X87598000Y-43026000D01*
X87598000Y-40286000D02*
X81058000Y-40286000D01*
X87598000Y-43026000D02*
X87598000Y-40286000D01*
X90908000Y-41656000D02*
X87598000Y-41656000D01*
%TO.C,R15*%
X95020000Y-22860000D02*
X98330000Y-22860000D01*
X98330000Y-21490000D02*
X98330000Y-24230000D01*
X98330000Y-24230000D02*
X104870000Y-24230000D01*
X104870000Y-21490000D02*
X98330000Y-21490000D01*
X104870000Y-24230000D02*
X104870000Y-21490000D01*
X108180000Y-22860000D02*
X104870000Y-22860000D01*
%TO.C,Q5*%
X75620000Y-85134000D02*
X75620000Y-80493000D01*
X78889000Y-85134000D02*
X78889000Y-83624000D01*
X82590000Y-85134000D02*
X82590000Y-83624000D01*
X85860000Y-80493000D02*
X75620000Y-80493000D01*
X85860000Y-83624000D02*
X75620000Y-83624000D01*
X85860000Y-85134000D02*
X75620000Y-85134000D01*
X85860000Y-85134000D02*
X85860000Y-80493000D01*
%TO.C,BT1*%
X134590000Y-100110000D02*
X134590000Y-102610000D01*
X134590000Y-102610000D02*
X137090000Y-102610000D01*
X134890000Y-98290000D02*
X134890000Y-102310000D01*
X134890000Y-100000000D02*
X135390000Y-100000000D01*
X134890000Y-100810000D02*
X135890000Y-100810000D01*
X134890000Y-102310000D02*
X142610000Y-102310000D01*
X135390000Y-98790000D02*
X142110000Y-98790000D01*
X135390000Y-100000000D02*
X135390000Y-98790000D01*
X135890000Y-100810000D02*
X135890000Y-102310000D01*
X141610000Y-100810000D02*
X141610000Y-102310000D01*
X142110000Y-98790000D02*
X142110000Y-100000000D01*
X142110000Y-100000000D02*
X142610000Y-100000000D01*
X142610000Y-98290000D02*
X134890000Y-98290000D01*
X142610000Y-100810000D02*
X141610000Y-100810000D01*
X142610000Y-102310000D02*
X142610000Y-98290000D01*
%TO.C,C5*%
X71498000Y-44665000D02*
X71498000Y-43999000D01*
X71498000Y-47441000D02*
X71498000Y-46775000D01*
X76838000Y-43999000D02*
X71498000Y-43999000D01*
X76838000Y-44665000D02*
X76838000Y-43999000D01*
X76838000Y-47441000D02*
X71498000Y-47441000D01*
X76838000Y-47441000D02*
X76838000Y-46775000D01*
%TO.C,C1*%
X117871000Y-33028500D02*
X117871000Y-40768500D01*
X122513000Y-33028500D02*
X117871000Y-33028500D01*
X122513000Y-33028500D02*
X122513000Y-40768500D01*
X122513000Y-40768500D02*
X117871000Y-40768500D01*
%TO.C,R4*%
X128170000Y-89694000D02*
X128170000Y-96234000D01*
X128170000Y-96234000D02*
X130910000Y-96234000D01*
X129540000Y-86384000D02*
X129540000Y-89694000D01*
X129540000Y-99544000D02*
X129540000Y-96234000D01*
X130910000Y-89694000D02*
X128170000Y-89694000D01*
X130910000Y-96234000D02*
X130910000Y-89694000D01*
%TO.C,Crystal1*%
X120698000Y-43226500D02*
X120698000Y-46826500D01*
X120698000Y-46826500D02*
X126448000Y-46826500D01*
X126448000Y-43226500D02*
X120698000Y-43226500D01*
%TO.C,J1*%
X138290000Y-79890000D02*
X138290000Y-92610000D01*
X138290000Y-92610000D02*
X142310000Y-92610000D01*
X138790000Y-80390000D02*
X140000000Y-80390000D01*
X138790000Y-92110000D02*
X138790000Y-80390000D01*
X140000000Y-80390000D02*
X140000000Y-79890000D01*
X140000000Y-92110000D02*
X138790000Y-92110000D01*
X140000000Y-92610000D02*
X140000000Y-92110000D01*
X140110000Y-92910000D02*
X142610000Y-92910000D01*
X140810000Y-79890000D02*
X140810000Y-80890000D01*
X140810000Y-80890000D02*
X142310000Y-80890000D01*
X140810000Y-91610000D02*
X142310000Y-91610000D01*
X140810000Y-92610000D02*
X140810000Y-91610000D01*
X142310000Y-79890000D02*
X138290000Y-79890000D01*
X142310000Y-92610000D02*
X142310000Y-79890000D01*
X142610000Y-92910000D02*
X142610000Y-90410000D01*
%TO.C,R5*%
X89432000Y-98552000D02*
X92742000Y-98552000D01*
X92742000Y-97182000D02*
X92742000Y-99922000D01*
X92742000Y-99922000D02*
X99282000Y-99922000D01*
X99282000Y-97182000D02*
X92742000Y-97182000D01*
X99282000Y-99922000D02*
X99282000Y-97182000D01*
X102592000Y-98552000D02*
X99282000Y-98552000D01*
%TO.C,R16*%
X71274000Y-80042000D02*
X71274000Y-86582000D01*
X71274000Y-86582000D02*
X74014000Y-86582000D01*
X72644000Y-76732000D02*
X72644000Y-80042000D01*
X72644000Y-89892000D02*
X72644000Y-86582000D01*
X74014000Y-80042000D02*
X71274000Y-80042000D01*
X74014000Y-86582000D02*
X74014000Y-80042000D01*
%TO.C,SW1*%
X137774000Y-53140500D02*
X137774000Y-53190500D01*
X137774000Y-53140500D02*
X142674000Y-53140500D01*
X137774000Y-54840500D02*
X137774000Y-56340500D01*
X137774000Y-58040500D02*
X137774000Y-57990500D01*
X137774000Y-58040500D02*
X142674000Y-58040500D01*
X142674000Y-53140500D02*
X142674000Y-53190500D01*
X142674000Y-54840500D02*
X142674000Y-56340500D01*
X142674000Y-58040500D02*
X142674000Y-57990500D01*
%TO.C,U4*%
X107224000Y-25858000D02*
X107224000Y-36138000D01*
X107224000Y-36138000D02*
X111724000Y-36138000D01*
X108474000Y-25858000D02*
X107224000Y-25858000D01*
X111724000Y-25858000D02*
X110474000Y-25858000D01*
X111724000Y-36138000D02*
X111724000Y-25858000D01*
X110474000Y-25858000D02*
G75*
G02*
X108474000Y-25858000I-1000000J0D01*
G01*
%TO.C,R10*%
X97560000Y-71628000D02*
X100870000Y-71628000D01*
X100870000Y-70258000D02*
X100870000Y-72998000D01*
X100870000Y-72998000D02*
X107410000Y-72998000D01*
X107410000Y-70258000D02*
X100870000Y-70258000D01*
X107410000Y-72998000D02*
X107410000Y-70258000D01*
X110720000Y-71628000D02*
X107410000Y-71628000D01*
%TO.C,Q2*%
X93418000Y-94814000D02*
X97018000Y-94814000D01*
X93379522Y-94802478D02*
G75*
G02*
X95218000Y-90363999I1838478J1838478D01*
G01*
X95218000Y-90364000D02*
G75*
G02*
X97056478Y-94802478I0J-2600000D01*
G01*
%TD*%
M02*
