%TF.GenerationSoftware,KiCad,Pcbnew,8.0.4*%
%TF.CreationDate,2025-12-30T09:28:16+05:30*%
%TF.ProjectId,inv,696e762e-6b69-4636-9164-5f7063625858,rev?*%
%TF.SameCoordinates,Original*%
%TF.FileFunction,Copper,L1,Top*%
%TF.FilePolarity,Positive*%
%FSLAX46Y46*%
G04 Gerber Fmt 4.6, Leading zero omitted, Abs format (unit mm)*
G04 Created by KiCad (PCBNEW 8.0.4) date 2025-12-30 09:28:16*
%MOMM*%
%LPD*%
G01*
G04 APERTURE LIST*
G04 Aperture macros list*
%AMRoundRect*
0 Rectangle with rounded corners*
0 $1 Rounding radius*
0 $2 $3 $4 $5 $6 $7 $8 $9 X,Y pos of 4 corners*
0 Add a 4 corners polygon primitive as box body*
4,1,4,$2,$3,$4,$5,$6,$7,$8,$9,$2,$3,0*
0 Add four circle primitives for the rounded corners*
1,1,$1+$1,$2,$3*
1,1,$1+$1,$4,$5*
1,1,$1+$1,$6,$7*
1,1,$1+$1,$8,$9*
0 Add four rect primitives between the rounded corners*
20,1,$1+$1,$2,$3,$4,$5,0*
20,1,$1+$1,$4,$5,$6,$7,0*
20,1,$1+$1,$6,$7,$8,$9,0*
20,1,$1+$1,$8,$9,$2,$3,0*%
G04 Aperture macros list end*
%TA.AperFunction,ComponentPad*%
%ADD10R,1.600000X1.600000*%
%TD*%
%TA.AperFunction,ComponentPad*%
%ADD11C,1.600000*%
%TD*%
%TA.AperFunction,ComponentPad*%
%ADD12O,1.600000X1.600000*%
%TD*%
%TA.AperFunction,ComponentPad*%
%ADD13R,1.905000X2.000000*%
%TD*%
%TA.AperFunction,ComponentPad*%
%ADD14O,1.905000X2.000000*%
%TD*%
%TA.AperFunction,SMDPad,CuDef*%
%ADD15R,1.500000X0.550000*%
%TD*%
%TA.AperFunction,SMDPad,CuDef*%
%ADD16R,0.550000X1.500000*%
%TD*%
%TA.AperFunction,ComponentPad*%
%ADD17R,2.200000X2.200000*%
%TD*%
%TA.AperFunction,ComponentPad*%
%ADD18O,2.200000X2.200000*%
%TD*%
%TA.AperFunction,ComponentPad*%
%ADD19R,2.400000X1.600000*%
%TD*%
%TA.AperFunction,ComponentPad*%
%ADD20O,2.400000X1.600000*%
%TD*%
%TA.AperFunction,ComponentPad*%
%ADD21R,1.050000X1.500000*%
%TD*%
%TA.AperFunction,ComponentPad*%
%ADD22O,1.050000X1.500000*%
%TD*%
%TA.AperFunction,ComponentPad*%
%ADD23RoundRect,0.250000X0.750000X-0.600000X0.750000X0.600000X-0.750000X0.600000X-0.750000X-0.600000X0*%
%TD*%
%TA.AperFunction,ComponentPad*%
%ADD24O,2.000000X1.700000*%
%TD*%
%TA.AperFunction,ComponentPad*%
%ADD25RoundRect,0.250000X-0.600000X-0.750000X0.600000X-0.750000X0.600000X0.750000X-0.600000X0.750000X0*%
%TD*%
%TA.AperFunction,ComponentPad*%
%ADD26O,1.700000X2.000000*%
%TD*%
%TA.AperFunction,SMDPad,CuDef*%
%ADD27R,2.000000X2.400000*%
%TD*%
%TA.AperFunction,ComponentPad*%
%ADD28RoundRect,0.250000X0.725000X-0.600000X0.725000X0.600000X-0.725000X0.600000X-0.725000X-0.600000X0*%
%TD*%
%TA.AperFunction,ComponentPad*%
%ADD29O,1.950000X1.700000*%
%TD*%
%TA.AperFunction,SMDPad,CuDef*%
%ADD30RoundRect,0.250000X-0.525000X-0.250000X0.525000X-0.250000X0.525000X0.250000X-0.525000X0.250000X0*%
%TD*%
%TA.AperFunction,Conductor*%
%ADD31C,0.200000*%
%TD*%
%TA.AperFunction,Conductor*%
%ADD32C,0.500000*%
%TD*%
%TA.AperFunction,Conductor*%
%ADD33C,0.300000*%
%TD*%
G04 APERTURE END LIST*
D10*
%TO.P,C8,1*%
%TO.N,Net-(D2-K)*%
X107696000Y-98628000D03*
D11*
%TO.P,C8,2*%
%TO.N,Net-(Q1-C)*%
X109696000Y-98628000D03*
%TD*%
%TO.P,R9,1*%
%TO.N,Net-(U1-P0.0{slash}AD0)*%
X111760000Y-75692000D03*
D12*
%TO.P,R9,2*%
%TO.N,Net-(Q1-B)*%
X96520000Y-75692000D03*
%TD*%
D13*
%TO.P,Q3,1,G*%
%TO.N,Net-(Q1-C)*%
X109696000Y-82951000D03*
D14*
%TO.P,Q3,2,D*%
%TO.N,Net-(BT1-+)*%
X107156000Y-82951000D03*
%TO.P,Q3,3,S*%
%TO.N,/ou1*%
X104616000Y-82951000D03*
%TD*%
D15*
%TO.P,U1,1,P1.5*%
%TO.N,unconnected-(U1-P1.5-Pad1)*%
X128524000Y-59590500D03*
%TO.P,U1,2,P1.6*%
%TO.N,unconnected-(U1-P1.6-Pad2)*%
X128524000Y-58790500D03*
%TO.P,U1,3,P1.7/SCK*%
%TO.N,unconnected-(U1-P1.7{slash}SCK-Pad3)*%
X128524000Y-57990500D03*
%TO.P,U1,4,RST*%
%TO.N,/rst*%
X128524000Y-57190500D03*
%TO.P,U1,5,P3.0*%
%TO.N,unconnected-(U1-P3.0-Pad5)*%
X128524000Y-56390500D03*
%TO.P,U1,6,NC*%
%TO.N,unconnected-(U1-NC-Pad6)*%
X128524000Y-55590500D03*
%TO.P,U1,7,P3.1*%
%TO.N,unconnected-(U1-P3.1-Pad7)*%
X128524000Y-54790500D03*
%TO.P,U1,8,P3.2*%
%TO.N,unconnected-(U1-P3.2-Pad8)*%
X128524000Y-53990500D03*
%TO.P,U1,9,P3.3*%
%TO.N,unconnected-(U1-P3.3-Pad9)*%
X128524000Y-53190500D03*
%TO.P,U1,10,P3.4*%
%TO.N,unconnected-(U1-P3.4-Pad10)*%
X128524000Y-52390500D03*
%TO.P,U1,11,P3.5*%
%TO.N,unconnected-(U1-P3.5-Pad11)*%
X128524000Y-51590500D03*
D16*
%TO.P,U1,12,P3.6*%
%TO.N,unconnected-(U1-P3.6-Pad12)*%
X126824000Y-49890500D03*
%TO.P,U1,13,P3.7*%
%TO.N,unconnected-(U1-P3.7-Pad13)*%
X126024000Y-49890500D03*
%TO.P,U1,14,XTAL2*%
%TO.N,Net-(U1-XTAL2)*%
X125224000Y-49890500D03*
%TO.P,U1,15,XTAL1*%
%TO.N,Net-(U1-XTAL1)*%
X124424000Y-49890500D03*
%TO.P,U1,16,GND*%
%TO.N,GND*%
X123624000Y-49890500D03*
%TO.P,U1,17,GND*%
X122824000Y-49890500D03*
%TO.P,U1,18,P2.0/A8*%
%TO.N,unconnected-(U1-P2.0{slash}A8-Pad18)*%
X122024000Y-49890500D03*
%TO.P,U1,19,P2.1/A9*%
%TO.N,unconnected-(U1-P2.1{slash}A9-Pad19)*%
X121224000Y-49890500D03*
%TO.P,U1,20,P2.2/A10*%
%TO.N,unconnected-(U1-P2.2{slash}A10-Pad20)*%
X120424000Y-49890500D03*
%TO.P,U1,21,P2.3/A11*%
%TO.N,unconnected-(U1-P2.3{slash}A11-Pad21)*%
X119624000Y-49890500D03*
%TO.P,U1,22,P2.4/A12*%
%TO.N,unconnected-(U1-P2.4{slash}A12-Pad22)*%
X118824000Y-49890500D03*
D15*
%TO.P,U1,23,P2.5/A13*%
%TO.N,unconnected-(U1-P2.5{slash}A13-Pad23)*%
X117124000Y-51590500D03*
%TO.P,U1,24,P2.6/A14*%
%TO.N,unconnected-(U1-P2.6{slash}A14-Pad24)*%
X117124000Y-52390500D03*
%TO.P,U1,25,P2.7/A15*%
%TO.N,unconnected-(U1-P2.7{slash}A15-Pad25)*%
X117124000Y-53190500D03*
%TO.P,U1,26,~{PSEN}*%
%TO.N,unconnected-(U1-~{PSEN}-Pad26)*%
X117124000Y-53990500D03*
%TO.P,U1,27,ALE*%
%TO.N,unconnected-(U1-ALE-Pad27)*%
X117124000Y-54790500D03*
%TO.P,U1,28,NC*%
%TO.N,unconnected-(U1-NC-Pad28)*%
X117124000Y-55590500D03*
%TO.P,U1,29,~{EA}/V_{pp}*%
%TO.N,unconnected-(U1-~{EA}{slash}V_{pp}-Pad29)*%
X117124000Y-56390500D03*
%TO.P,U1,30,P0.7/AD7*%
%TO.N,unconnected-(U1-P0.7{slash}AD7-Pad30)*%
X117124000Y-57190500D03*
%TO.P,U1,31,P0.6/AD6*%
%TO.N,unconnected-(U1-P0.6{slash}AD6-Pad31)*%
X117124000Y-57990500D03*
%TO.P,U1,32,P0.5/AD5*%
%TO.N,unconnected-(U1-P0.5{slash}AD5-Pad32)*%
X117124000Y-58790500D03*
%TO.P,U1,33,P0.4/AD4*%
%TO.N,unconnected-(U1-P0.4{slash}AD4-Pad33)*%
X117124000Y-59590500D03*
D16*
%TO.P,U1,34,P0.3/AD3*%
%TO.N,unconnected-(U1-P0.3{slash}AD3-Pad34)*%
X118824000Y-61290500D03*
%TO.P,U1,35,P0.2/AD2*%
%TO.N,unconnected-(U1-P0.2{slash}AD2-Pad35)*%
X119624000Y-61290500D03*
%TO.P,U1,36,P0.1/AD1*%
%TO.N,Net-(U1-P0.1{slash}AD1)*%
X120424000Y-61290500D03*
%TO.P,U1,37,P0.0/AD0*%
%TO.N,Net-(U1-P0.0{slash}AD0)*%
X121224000Y-61290500D03*
%TO.P,U1,38,V_{cc}*%
%TO.N,+5V*%
X122024000Y-61290500D03*
%TO.P,U1,39,NC*%
%TO.N,unconnected-(U1-NC-Pad39)*%
X122824000Y-61290500D03*
%TO.P,U1,40,P1.0*%
%TO.N,unconnected-(U1-P1.0-Pad40)*%
X123624000Y-61290500D03*
%TO.P,U1,41,P1.1*%
%TO.N,unconnected-(U1-P1.1-Pad41)*%
X124424000Y-61290500D03*
%TO.P,U1,42,P1.2*%
%TO.N,unconnected-(U1-P1.2-Pad42)*%
X125224000Y-61290500D03*
%TO.P,U1,43,P1.3*%
%TO.N,unconnected-(U1-P1.3-Pad43)*%
X126024000Y-61290500D03*
%TO.P,U1,44,P1.4*%
%TO.N,unconnected-(U1-P1.4-Pad44)*%
X126824000Y-61290500D03*
%TD*%
D11*
%TO.P,R12,1*%
%TO.N,/ou1*%
X88900000Y-79248000D03*
D12*
%TO.P,R12,2*%
%TO.N,Net-(U5-+)*%
X88900000Y-64008000D03*
%TD*%
D11*
%TO.P,R13,1*%
%TO.N,Net-(C4-Pad1)*%
X76708000Y-32512000D03*
D12*
%TO.P,R13,2*%
%TO.N,Net-(U4-+)*%
X91948000Y-32512000D03*
%TD*%
D17*
%TO.P,D1,1,K*%
%TO.N,Net-(D1-K)*%
X117348000Y-92964000D03*
D18*
%TO.P,D1,2,A*%
%TO.N,Net-(BT1-+)*%
X124968000Y-92964000D03*
%TD*%
D11*
%TO.P,R1,1*%
%TO.N,/rst*%
X135224000Y-48210500D03*
D12*
%TO.P,R1,2*%
%TO.N,GND*%
X135224000Y-32970500D03*
%TD*%
D10*
%TO.P,C3,1*%
%TO.N,+5V*%
X133636000Y-65814500D03*
D11*
%TO.P,C3,2*%
%TO.N,/rst*%
X135636000Y-65814500D03*
%TD*%
%TO.P,C4,1*%
%TO.N,Net-(C4-Pad1)*%
X72136000Y-37124000D03*
%TO.P,C4,2*%
%TO.N,GND*%
X72136000Y-42124000D03*
%TD*%
%TO.P,C6,1*%
%TO.N,Net-(J2-Pin_1)*%
X98552000Y-37512000D03*
%TO.P,C6,2*%
%TO.N,Net-(U4-+)*%
X98552000Y-32512000D03*
%TD*%
%TO.P,C2,1*%
%TO.N,GND*%
X127812000Y-34438500D03*
%TO.P,C2,2*%
%TO.N,Net-(U1-XTAL2)*%
X127812000Y-39438500D03*
%TD*%
%TO.P,R7,1*%
%TO.N,/sub_out*%
X76708000Y-69088000D03*
D12*
%TO.P,R7,2*%
%TO.N,Net-(C5-Pad1)*%
X76708000Y-53848000D03*
%TD*%
D11*
%TO.P,R17,1*%
%TO.N,/feed_reg*%
X81280000Y-69088000D03*
D12*
%TO.P,R17,2*%
%TO.N,/sub_out*%
X81280000Y-53848000D03*
%TD*%
D11*
%TO.P,R2,1*%
%TO.N,Net-(C4-Pad1)*%
X76708000Y-37084000D03*
D12*
%TO.P,R2,2*%
%TO.N,Net-(J2-Pin_1)*%
X91948000Y-37084000D03*
%TD*%
D11*
%TO.P,R14,1*%
%TO.N,GND*%
X76708000Y-27940000D03*
D12*
%TO.P,R14,2*%
%TO.N,Net-(U4--)*%
X91948000Y-27940000D03*
%TD*%
D11*
%TO.P,C9,1*%
%TO.N,Net-(C9-Pad1)*%
X98552000Y-49196000D03*
%TO.P,C9,2*%
%TO.N,Net-(J2-Pin_1)*%
X98552000Y-44196000D03*
%TD*%
D10*
%TO.P,C7,1*%
%TO.N,Net-(D1-K)*%
X117255113Y-86944000D03*
D11*
%TO.P,C7,2*%
%TO.N,/ou1*%
X115255113Y-86944000D03*
%TD*%
%TO.P,R6,1*%
%TO.N,Net-(C5-Pad1)*%
X76708000Y-49276000D03*
D12*
%TO.P,R6,2*%
%TO.N,Net-(C9-Pad1)*%
X91948000Y-49276000D03*
%TD*%
D19*
%TO.P,U5,1,NULL*%
%TO.N,unconnected-(U5-NULL-Pad1)*%
X93711000Y-58176000D03*
D20*
%TO.P,U5,2,-*%
%TO.N,/feed_reg*%
X93711000Y-60716000D03*
%TO.P,U5,3,+*%
%TO.N,Net-(U5-+)*%
X93711000Y-63256000D03*
%TO.P,U5,4,V-*%
%TO.N,-12V*%
X93711000Y-65796000D03*
%TO.P,U5,5,NULL*%
%TO.N,unconnected-(U5-NULL-Pad5)*%
X101331000Y-65796000D03*
%TO.P,U5,6*%
%TO.N,/sub_out*%
X101331000Y-63256000D03*
%TO.P,U5,7,V+*%
%TO.N,+12V*%
X101331000Y-60716000D03*
%TO.P,U5,8,NC*%
%TO.N,unconnected-(U5-NC-Pad8)*%
X101331000Y-58176000D03*
%TD*%
D17*
%TO.P,D2,1,K*%
%TO.N,Net-(D2-K)*%
X114808000Y-104394000D03*
D18*
%TO.P,D2,2,A*%
%TO.N,Net-(BT1-+)*%
X114808000Y-96774000D03*
%TD*%
D13*
%TO.P,Q6,1,G*%
%TO.N,Net-(Q1-C)*%
X78200000Y-91008000D03*
D14*
%TO.P,Q6,2,D*%
X80740000Y-91008000D03*
%TO.P,Q6,3,S*%
%TO.N,GND*%
X83280000Y-91008000D03*
%TD*%
D13*
%TO.P,Q4,1,G*%
%TO.N,/in2*%
X104616000Y-92964000D03*
D14*
%TO.P,Q4,2,D*%
%TO.N,Net-(BT1-+)*%
X107156000Y-92964000D03*
%TO.P,Q4,3,S*%
%TO.N,Net-(Q1-C)*%
X109696000Y-92964000D03*
%TD*%
D21*
%TO.P,Q1,1,C*%
%TO.N,Net-(Q1-C)*%
X119968000Y-82964000D03*
D22*
%TO.P,Q1,2,B*%
%TO.N,Net-(Q1-B)*%
X121238000Y-82964000D03*
%TO.P,Q1,3,E*%
%TO.N,GND*%
X122508000Y-82964000D03*
%TD*%
D23*
%TO.P,J2,1,Pin_1*%
%TO.N,Net-(J2-Pin_1)*%
X140000000Y-70000000D03*
D24*
%TO.P,J2,2,Pin_2*%
%TO.N,GND*%
X140000000Y-67500000D03*
%TD*%
D11*
%TO.P,R3,1*%
%TO.N,Net-(C9-Pad1)*%
X91948000Y-41656000D03*
D12*
%TO.P,R3,2*%
%TO.N,Net-(C4-Pad1)*%
X76708000Y-41656000D03*
%TD*%
D11*
%TO.P,R15,1*%
%TO.N,Net-(U4--)*%
X93980000Y-22860000D03*
D12*
%TO.P,R15,2*%
%TO.N,Net-(J2-Pin_1)*%
X109220000Y-22860000D03*
%TD*%
D13*
%TO.P,Q5,1,G*%
%TO.N,/in2*%
X83280000Y-81864000D03*
D14*
%TO.P,Q5,2,D*%
%TO.N,/ou1*%
X80740000Y-81864000D03*
%TO.P,Q5,3,S*%
%TO.N,GND*%
X78200000Y-81864000D03*
%TD*%
D25*
%TO.P,BT1,1,+*%
%TO.N,Net-(BT1-+)*%
X137500000Y-100000000D03*
D26*
%TO.P,BT1,2,-*%
%TO.N,GND*%
X140000000Y-100000000D03*
%TD*%
D11*
%TO.P,C5,1*%
%TO.N,Net-(C5-Pad1)*%
X76668000Y-45720000D03*
%TO.P,C5,2*%
%TO.N,GND*%
X71668000Y-45720000D03*
%TD*%
%TO.P,C1,1*%
%TO.N,GND*%
X120192000Y-34398500D03*
%TO.P,C1,2*%
%TO.N,Net-(U1-XTAL1)*%
X120192000Y-39398500D03*
%TD*%
%TO.P,R4,1*%
%TO.N,Net-(D1-K)*%
X129540000Y-100584000D03*
D12*
%TO.P,R4,2*%
%TO.N,Net-(Q1-C)*%
X129540000Y-85344000D03*
%TD*%
D27*
%TO.P,Crystal1,1,1*%
%TO.N,Net-(U1-XTAL1)*%
X121898000Y-45026500D03*
%TO.P,Crystal1,2,2*%
%TO.N,Net-(U1-XTAL2)*%
X125598000Y-45026500D03*
%TD*%
D28*
%TO.P,J1,1,Pin_1*%
%TO.N,+12V*%
X140000000Y-90000000D03*
D29*
%TO.P,J1,2,Pin_2*%
%TO.N,-12V*%
X140000000Y-87500000D03*
%TO.P,J1,3,Pin_3*%
%TO.N,+5V*%
X140000000Y-85000000D03*
%TO.P,J1,4,Pin_4*%
%TO.N,GND*%
X140000000Y-82500000D03*
%TD*%
D11*
%TO.P,R5,1*%
%TO.N,/in2*%
X88392000Y-98552000D03*
D12*
%TO.P,R5,2*%
%TO.N,Net-(D2-K)*%
X103632000Y-98552000D03*
%TD*%
D11*
%TO.P,R16,1*%
%TO.N,Net-(Q1-C)*%
X72644000Y-90932000D03*
D12*
%TO.P,R16,2*%
%TO.N,/feed_reg*%
X72644000Y-75692000D03*
%TD*%
D30*
%TO.P,SW1,1,1*%
%TO.N,/rst*%
X137599000Y-53990500D03*
X142849000Y-53990500D03*
%TO.P,SW1,2,2*%
X137599000Y-57190500D03*
X142849000Y-57190500D03*
%TD*%
D19*
%TO.P,U4,1,NULL*%
%TO.N,unconnected-(U4-NULL-Pad1)*%
X105664000Y-27188000D03*
D20*
%TO.P,U4,2,-*%
%TO.N,Net-(U4--)*%
X105664000Y-29728000D03*
%TO.P,U4,3,+*%
%TO.N,Net-(U4-+)*%
X105664000Y-32268000D03*
%TO.P,U4,4,V-*%
%TO.N,-12V*%
X105664000Y-34808000D03*
%TO.P,U4,5,NULL*%
%TO.N,unconnected-(U4-NULL-Pad5)*%
X113284000Y-34808000D03*
%TO.P,U4,6*%
%TO.N,Net-(J2-Pin_1)*%
X113284000Y-32268000D03*
%TO.P,U4,7,V+*%
%TO.N,+12V*%
X113284000Y-29728000D03*
%TO.P,U4,8,NC*%
%TO.N,unconnected-(U4-NC-Pad8)*%
X113284000Y-27188000D03*
%TD*%
D11*
%TO.P,R10,1*%
%TO.N,Net-(Q2-B)*%
X96520000Y-71628000D03*
D12*
%TO.P,R10,2*%
%TO.N,Net-(U1-P0.1{slash}AD1)*%
X111760000Y-71628000D03*
%TD*%
D21*
%TO.P,Q2,1,C*%
%TO.N,/in2*%
X93948000Y-92964000D03*
D22*
%TO.P,Q2,2,B*%
%TO.N,Net-(Q2-B)*%
X95218000Y-92964000D03*
%TO.P,Q2,3,E*%
%TO.N,GND*%
X96488000Y-92964000D03*
%TD*%
D31*
%TO.N,/rst*%
X128524000Y-57190500D02*
X137599000Y-57190500D01*
X142849000Y-53990500D02*
X137599000Y-53990500D01*
X135224000Y-51615500D02*
X137599000Y-53990500D01*
X135636000Y-59153500D02*
X135636000Y-65814500D01*
X135224000Y-48210500D02*
X135224000Y-51615500D01*
X142849000Y-57190500D02*
X137599000Y-57190500D01*
X137599000Y-57190500D02*
X135636000Y-59153500D01*
X142849000Y-57190500D02*
X142849000Y-53990500D01*
D32*
%TO.N,+5V*%
X133636000Y-78636000D02*
X133636000Y-65814500D01*
X122024000Y-62589388D02*
X125249112Y-65814500D01*
X125249112Y-65814500D02*
X133636000Y-65814500D01*
X140000000Y-85000000D02*
X133636000Y-78636000D01*
X122024000Y-61290500D02*
X122024000Y-62589388D01*
D31*
%TO.N,Net-(C4-Pad1)*%
X76708000Y-37084000D02*
X76708000Y-32512000D01*
X72136000Y-37124000D02*
X76668000Y-37124000D01*
X76708000Y-37084000D02*
X76708000Y-41656000D01*
X76668000Y-37124000D02*
X76708000Y-37084000D01*
%TO.N,Net-(C5-Pad1)*%
X76668000Y-49236000D02*
X76708000Y-49276000D01*
X76708000Y-53848000D02*
X76708000Y-49276000D01*
X76668000Y-45720000D02*
X76668000Y-49236000D01*
%TO.N,Net-(U4-+)*%
X98552000Y-32512000D02*
X100076000Y-30988000D01*
X104912000Y-32268000D02*
X105664000Y-32268000D01*
X100076000Y-30988000D02*
X103632000Y-30988000D01*
X91948000Y-32512000D02*
X92456000Y-32512000D01*
X103632000Y-30988000D02*
X104912000Y-32268000D01*
X98552000Y-32512000D02*
X91948000Y-32512000D01*
X92456000Y-32512000D02*
X92496000Y-32552000D01*
%TO.N,Net-(J2-Pin_1)*%
X114056000Y-31496000D02*
X113284000Y-32268000D01*
X109220000Y-22860000D02*
X109220000Y-28204000D01*
X91948000Y-37592000D02*
X91948000Y-37084000D01*
X109220000Y-28204000D02*
X113284000Y-32268000D01*
X98552000Y-44196000D02*
X91948000Y-37592000D01*
X98552000Y-37512000D02*
X98552000Y-44196000D01*
%TO.N,Net-(C9-Pad1)*%
X98552000Y-49196000D02*
X92028000Y-49196000D01*
X92028000Y-49196000D02*
X91948000Y-49276000D01*
X91948000Y-41656000D02*
X91948000Y-49276000D01*
D32*
%TO.N,-12V*%
X131240000Y-78740000D02*
X140000000Y-87500000D01*
X106655000Y-78740000D02*
X131240000Y-78740000D01*
X93711000Y-65796000D02*
X106655000Y-78740000D01*
D31*
%TO.N,Net-(Q2-B)*%
X95218000Y-92964000D02*
X95218000Y-92014000D01*
X96520000Y-71628000D02*
X93980000Y-74168000D01*
X93980000Y-90776000D02*
X93980000Y-74168000D01*
X95218000Y-92014000D02*
X93980000Y-90776000D01*
%TO.N,Net-(U1-P0.1{slash}AD1)*%
X120424000Y-62964000D02*
X111760000Y-71628000D01*
X120424000Y-61290500D02*
X120424000Y-62964000D01*
%TO.N,Net-(U4--)*%
X93980000Y-22860000D02*
X98796000Y-22860000D01*
X98796000Y-22860000D02*
X105664000Y-29728000D01*
X93980000Y-22860000D02*
X93980000Y-25908000D01*
X93980000Y-25908000D02*
X91948000Y-27940000D01*
%TO.N,/in2*%
X93948000Y-92996000D02*
X93948000Y-92964000D01*
X84804000Y-83820000D02*
X83312000Y-83820000D01*
X93948000Y-92964000D02*
X93948000Y-94964000D01*
X93948000Y-92532000D02*
X93948000Y-92964000D01*
X88392000Y-98552000D02*
X93948000Y-92996000D01*
X93948000Y-92964000D02*
X84804000Y-83820000D01*
X102108000Y-95504000D02*
X104616000Y-92996000D01*
X83312000Y-83820000D02*
X83280000Y-83788000D01*
X93948000Y-94964000D02*
X94488000Y-95504000D01*
X83280000Y-83788000D02*
X83280000Y-81864000D01*
X104616000Y-92996000D02*
X104616000Y-92964000D01*
X94488000Y-95504000D02*
X102108000Y-95504000D01*
D32*
X93948000Y-93297858D02*
X93948000Y-92964000D01*
D31*
%TO.N,/sub_out*%
X93980000Y-53848000D02*
X97536000Y-57404000D01*
X97536000Y-59461000D02*
X101331000Y-63256000D01*
X81280000Y-53848000D02*
X93980000Y-53848000D01*
X81280000Y-53848000D02*
X81280000Y-64516000D01*
X97536000Y-57404000D02*
X97536000Y-59461000D01*
X81280000Y-64516000D02*
X76708000Y-69088000D01*
%TO.N,/feed_reg*%
X81280000Y-69088000D02*
X89652000Y-60716000D01*
X77216000Y-75692000D02*
X72644000Y-75692000D01*
X81280000Y-71628000D02*
X77216000Y-75692000D01*
X81280000Y-69088000D02*
X81280000Y-71628000D01*
X89652000Y-60716000D02*
X93711000Y-60716000D01*
%TO.N,/ou1*%
X108680000Y-86944000D02*
X115255113Y-86944000D01*
X104687000Y-82951000D02*
X108680000Y-86944000D01*
X80740000Y-81864000D02*
X80787500Y-81864000D01*
X83356000Y-79248000D02*
X88900000Y-79248000D01*
X80740000Y-81864000D02*
X83356000Y-79248000D01*
D33*
X104616000Y-82951000D02*
X104687000Y-82951000D01*
%TO.N,Net-(D1-K)*%
X124968000Y-100584000D02*
X129540000Y-100584000D01*
X117348000Y-92964000D02*
X124968000Y-100584000D01*
X117255113Y-92871113D02*
X117348000Y-92964000D01*
D31*
X117255113Y-86944000D02*
X117255113Y-92871113D01*
%TO.N,Net-(D2-K)*%
X107620000Y-98552000D02*
X107696000Y-98628000D01*
X103632000Y-98552000D02*
X107620000Y-98552000D01*
%TO.N,Net-(Q1-B)*%
X101092000Y-80264000D02*
X96520000Y-75692000D01*
X120904000Y-80264000D02*
X101092000Y-80264000D01*
X121238000Y-82964000D02*
X121238000Y-80598000D01*
X121238000Y-80598000D02*
X120904000Y-80264000D01*
%TO.N,Net-(U1-P0.0{slash}AD0)*%
X121224000Y-66228000D02*
X111760000Y-75692000D01*
X121224000Y-61290500D02*
X121224000Y-66228000D01*
D33*
%TO.N,Net-(U1-XTAL1)*%
X120192000Y-39398500D02*
X120192000Y-43320500D01*
X120192000Y-43320500D02*
X121898000Y-45026500D01*
X124424000Y-47552500D02*
X121898000Y-45026500D01*
X124424000Y-49890500D02*
X124424000Y-47552500D01*
%TO.N,Net-(U1-XTAL2)*%
X125224000Y-49890500D02*
X125224000Y-47614500D01*
X125598000Y-45026500D02*
X125224000Y-45400500D01*
X125224000Y-47614500D02*
X125598000Y-47240500D01*
X127812000Y-42812500D02*
X125598000Y-45026500D01*
X127812000Y-39438500D02*
X127812000Y-42812500D01*
X125224000Y-46036896D02*
X125916198Y-45344698D01*
X125598000Y-47240500D02*
X125598000Y-45026500D01*
D31*
%TO.N,Net-(U5-+)*%
X89652000Y-63256000D02*
X88900000Y-64008000D01*
X93711000Y-63256000D02*
X89652000Y-63256000D01*
%TO.N,Net-(Q1-C)*%
X109696000Y-92964000D02*
X109696000Y-98628000D01*
X119968000Y-82964000D02*
X109709000Y-82964000D01*
X72720000Y-91008000D02*
X72644000Y-90932000D01*
X78200000Y-91008000D02*
X89808000Y-102616000D01*
X119968000Y-82964000D02*
X119968000Y-83900000D01*
X109696000Y-101632000D02*
X109696000Y-98628000D01*
X78200000Y-91008000D02*
X72720000Y-91008000D01*
X121412000Y-85344000D02*
X129540000Y-85344000D01*
D33*
X110048000Y-92884000D02*
X109968000Y-92964000D01*
D31*
X119968000Y-83900000D02*
X121412000Y-85344000D01*
X89808000Y-102616000D02*
X108712000Y-102616000D01*
D33*
X119968000Y-82964000D02*
X119968000Y-83189000D01*
D31*
X78200000Y-91008000D02*
X80740000Y-91008000D01*
X108712000Y-102616000D02*
X109696000Y-101632000D01*
%TO.N,Net-(BT1-+)*%
X107428000Y-83044000D02*
X107508000Y-82964000D01*
%TD*%
%TA.AperFunction,Conductor*%
%TO.N,GND*%
G36*
X149692539Y-15270185D02*
G01*
X149738294Y-15322989D01*
X149749500Y-15374500D01*
X149749500Y-109625500D01*
X149729815Y-109692539D01*
X149677011Y-109738294D01*
X149625500Y-109749500D01*
X65398500Y-109749500D01*
X65331461Y-109729815D01*
X65285706Y-109677011D01*
X65274500Y-109625500D01*
X65274500Y-103246135D01*
X113207500Y-103246135D01*
X113207500Y-105541870D01*
X113207501Y-105541876D01*
X113213908Y-105601483D01*
X113264202Y-105736328D01*
X113264206Y-105736335D01*
X113350452Y-105851544D01*
X113350455Y-105851547D01*
X113465664Y-105937793D01*
X113465671Y-105937797D01*
X113600517Y-105988091D01*
X113600516Y-105988091D01*
X113607444Y-105988835D01*
X113660127Y-105994500D01*
X115955872Y-105994499D01*
X116015483Y-105988091D01*
X116150331Y-105937796D01*
X116265546Y-105851546D01*
X116351796Y-105736331D01*
X116402091Y-105601483D01*
X116408500Y-105541873D01*
X116408499Y-103246128D01*
X116402091Y-103186517D01*
X116398010Y-103175576D01*
X116351797Y-103051671D01*
X116351793Y-103051664D01*
X116265547Y-102936455D01*
X116265544Y-102936452D01*
X116150335Y-102850206D01*
X116150328Y-102850202D01*
X116015482Y-102799908D01*
X116015483Y-102799908D01*
X115955883Y-102793501D01*
X115955881Y-102793500D01*
X115955873Y-102793500D01*
X115955864Y-102793500D01*
X113660129Y-102793500D01*
X113660123Y-102793501D01*
X113600516Y-102799908D01*
X113465671Y-102850202D01*
X113465664Y-102850206D01*
X113350455Y-102936452D01*
X113350452Y-102936455D01*
X113264206Y-103051664D01*
X113264202Y-103051671D01*
X113213908Y-103186517D01*
X113210685Y-103216500D01*
X113207501Y-103246123D01*
X113207500Y-103246135D01*
X65274500Y-103246135D01*
X65274500Y-75691998D01*
X71338532Y-75691998D01*
X71338532Y-75692001D01*
X71358364Y-75918686D01*
X71358366Y-75918697D01*
X71417258Y-76138488D01*
X71417261Y-76138497D01*
X71513431Y-76344732D01*
X71513432Y-76344734D01*
X71643954Y-76531141D01*
X71804858Y-76692045D01*
X71804861Y-76692047D01*
X71991266Y-76822568D01*
X72197504Y-76918739D01*
X72417308Y-76977635D01*
X72579230Y-76991801D01*
X72643998Y-76997468D01*
X72644000Y-76997468D01*
X72644002Y-76997468D01*
X72700673Y-76992509D01*
X72870692Y-76977635D01*
X73090496Y-76918739D01*
X73296734Y-76822568D01*
X73483139Y-76692047D01*
X73644047Y-76531139D01*
X73774118Y-76345375D01*
X73828693Y-76301752D01*
X73875692Y-76292500D01*
X77129331Y-76292500D01*
X77129347Y-76292501D01*
X77136943Y-76292501D01*
X77295054Y-76292501D01*
X77295057Y-76292501D01*
X77447785Y-76251577D01*
X77497904Y-76222639D01*
X77584716Y-76172520D01*
X77696520Y-76060716D01*
X77696520Y-76060714D01*
X77706728Y-76050507D01*
X77706730Y-76050504D01*
X81648713Y-72108521D01*
X81648716Y-72108520D01*
X81760520Y-71996716D01*
X81810639Y-71909904D01*
X81839577Y-71859785D01*
X81880501Y-71707057D01*
X81880501Y-71548943D01*
X81880501Y-71541348D01*
X81880500Y-71541330D01*
X81880500Y-70319692D01*
X81900185Y-70252653D01*
X81933374Y-70218119D01*
X82119139Y-70088047D01*
X82280047Y-69927139D01*
X82410568Y-69740734D01*
X82506739Y-69534496D01*
X82565635Y-69314692D01*
X82585468Y-69088000D01*
X82584826Y-69080666D01*
X82565635Y-68861313D01*
X82565635Y-68861308D01*
X82539847Y-68765066D01*
X82541510Y-68695217D01*
X82571939Y-68645294D01*
X87390573Y-63826660D01*
X87451894Y-63793177D01*
X87521586Y-63798161D01*
X87577519Y-63840033D01*
X87601936Y-63905497D01*
X87601780Y-63925150D01*
X87594532Y-64007997D01*
X87594532Y-64008001D01*
X87614364Y-64234686D01*
X87614366Y-64234697D01*
X87673258Y-64454488D01*
X87673261Y-64454497D01*
X87769431Y-64660732D01*
X87769432Y-64660734D01*
X87899954Y-64847141D01*
X88060858Y-65008045D01*
X88107693Y-65040839D01*
X88247266Y-65138568D01*
X88453504Y-65234739D01*
X88673308Y-65293635D01*
X88835230Y-65307801D01*
X88899998Y-65313468D01*
X88900000Y-65313468D01*
X88900002Y-65313468D01*
X88956673Y-65308509D01*
X89126692Y-65293635D01*
X89346496Y-65234739D01*
X89552734Y-65138568D01*
X89739139Y-65008047D01*
X89900047Y-64847139D01*
X90030568Y-64660734D01*
X90126739Y-64454496D01*
X90185635Y-64234692D01*
X90205468Y-64008000D01*
X90205468Y-64007996D01*
X90204008Y-63991306D01*
X90217775Y-63922806D01*
X90266391Y-63872624D01*
X90327536Y-63856500D01*
X92081398Y-63856500D01*
X92148437Y-63876185D01*
X92191883Y-63924205D01*
X92198715Y-63937614D01*
X92319028Y-64103213D01*
X92463786Y-64247971D01*
X92618749Y-64360556D01*
X92629390Y-64368287D01*
X92720840Y-64414883D01*
X92722080Y-64415515D01*
X92772876Y-64463490D01*
X92789671Y-64531311D01*
X92767134Y-64597446D01*
X92722080Y-64636485D01*
X92629386Y-64683715D01*
X92463786Y-64804028D01*
X92319028Y-64948786D01*
X92198715Y-65114386D01*
X92105781Y-65296776D01*
X92042522Y-65491465D01*
X92010500Y-65693648D01*
X92010500Y-65898351D01*
X92042522Y-66100534D01*
X92105781Y-66295223D01*
X92157870Y-66397451D01*
X92194976Y-66470276D01*
X92198715Y-66477613D01*
X92319028Y-66643213D01*
X92463786Y-66787971D01*
X92618749Y-66900556D01*
X92629390Y-66908287D01*
X92701575Y-66945067D01*
X92811776Y-67001218D01*
X92811778Y-67001218D01*
X92811781Y-67001220D01*
X92912898Y-67034075D01*
X93006465Y-67064477D01*
X93107557Y-67080488D01*
X93208648Y-67096500D01*
X93898770Y-67096500D01*
X93965809Y-67116185D01*
X93986451Y-67132819D01*
X97033222Y-70179590D01*
X97066707Y-70240913D01*
X97061723Y-70310605D01*
X97019851Y-70366538D01*
X96954387Y-70390955D01*
X96913448Y-70387046D01*
X96746697Y-70342366D01*
X96746693Y-70342365D01*
X96746692Y-70342365D01*
X96746691Y-70342364D01*
X96746686Y-70342364D01*
X96520002Y-70322532D01*
X96519998Y-70322532D01*
X96293313Y-70342364D01*
X96293302Y-70342366D01*
X96073511Y-70401258D01*
X96073502Y-70401261D01*
X95867267Y-70497431D01*
X95867265Y-70497432D01*
X95680858Y-70627954D01*
X95519954Y-70788858D01*
X95389432Y-70975265D01*
X95389431Y-70975267D01*
X95293261Y-71181502D01*
X95293258Y-71181511D01*
X95234366Y-71401302D01*
X95234364Y-71401313D01*
X95214532Y-71627998D01*
X95214532Y-71628001D01*
X95234364Y-71854686D01*
X95234366Y-71854697D01*
X95260152Y-71950931D01*
X95258489Y-72020781D01*
X95228058Y-72070705D01*
X93611286Y-73687478D01*
X93499481Y-73799282D01*
X93499479Y-73799285D01*
X93449361Y-73886094D01*
X93449359Y-73886096D01*
X93420425Y-73936209D01*
X93420424Y-73936210D01*
X93420423Y-73936215D01*
X93379499Y-74088943D01*
X93379499Y-74088945D01*
X93379499Y-74257046D01*
X93379500Y-74257059D01*
X93379500Y-90689330D01*
X93379499Y-90689348D01*
X93379499Y-90855054D01*
X93379498Y-90855054D01*
X93420423Y-91007785D01*
X93449358Y-91057900D01*
X93449359Y-91057904D01*
X93449360Y-91057904D01*
X93499479Y-91144714D01*
X93499481Y-91144717D01*
X93618349Y-91263585D01*
X93618355Y-91263590D01*
X93856584Y-91501819D01*
X93890069Y-91563142D01*
X93885085Y-91632834D01*
X93843213Y-91688767D01*
X93777749Y-91713184D01*
X93768903Y-91713500D01*
X93598097Y-91713500D01*
X93531058Y-91693815D01*
X93510416Y-91677181D01*
X85291590Y-83458355D01*
X85291588Y-83458352D01*
X85172717Y-83339481D01*
X85172716Y-83339480D01*
X85062393Y-83275785D01*
X85062393Y-83275784D01*
X85062388Y-83275783D01*
X85053105Y-83270423D01*
X85035786Y-83260423D01*
X84997603Y-83250192D01*
X84883057Y-83219499D01*
X84812681Y-83219499D01*
X84745642Y-83199814D01*
X84699887Y-83147010D01*
X84689943Y-83077852D01*
X84696499Y-83052167D01*
X84726590Y-82971485D01*
X84726591Y-82971483D01*
X84729693Y-82942630D01*
X84733000Y-82911873D01*
X84732999Y-80816128D01*
X84726591Y-80756517D01*
X84722116Y-80744520D01*
X84676297Y-80621671D01*
X84676293Y-80621664D01*
X84590047Y-80506455D01*
X84590044Y-80506452D01*
X84474835Y-80420206D01*
X84474828Y-80420202D01*
X84339982Y-80369908D01*
X84339983Y-80369908D01*
X84280383Y-80363501D01*
X84280381Y-80363500D01*
X84280373Y-80363500D01*
X84280365Y-80363500D01*
X83389097Y-80363500D01*
X83322058Y-80343815D01*
X83276303Y-80291011D01*
X83266359Y-80221853D01*
X83295384Y-80158297D01*
X83301416Y-80151819D01*
X83366095Y-80087141D01*
X83568417Y-79884819D01*
X83629740Y-79851334D01*
X83656098Y-79848500D01*
X87668308Y-79848500D01*
X87735347Y-79868185D01*
X87769880Y-79901374D01*
X87855480Y-80023624D01*
X87899954Y-80087141D01*
X88060858Y-80248045D01*
X88060861Y-80248047D01*
X88247266Y-80378568D01*
X88453504Y-80474739D01*
X88673308Y-80533635D01*
X88835230Y-80547801D01*
X88899998Y-80553468D01*
X88900000Y-80553468D01*
X88900002Y-80553468D01*
X88956673Y-80548509D01*
X89126692Y-80533635D01*
X89346496Y-80474739D01*
X89552734Y-80378568D01*
X89739139Y-80248047D01*
X89900047Y-80087139D01*
X90030568Y-79900734D01*
X90126739Y-79694496D01*
X90185635Y-79474692D01*
X90205468Y-79248000D01*
X90185635Y-79021308D01*
X90126739Y-78801504D01*
X90030568Y-78595266D01*
X89900047Y-78408861D01*
X89900045Y-78408858D01*
X89739141Y-78247954D01*
X89552734Y-78117432D01*
X89552732Y-78117431D01*
X89346497Y-78021261D01*
X89346488Y-78021258D01*
X89126697Y-77962366D01*
X89126693Y-77962365D01*
X89126692Y-77962365D01*
X89126691Y-77962364D01*
X89126686Y-77962364D01*
X88900002Y-77942532D01*
X88899998Y-77942532D01*
X88673313Y-77962364D01*
X88673302Y-77962366D01*
X88453511Y-78021258D01*
X88453502Y-78021261D01*
X88247267Y-78117431D01*
X88247265Y-78117432D01*
X88060858Y-78247954D01*
X87899954Y-78408858D01*
X87823450Y-78518118D01*
X87769881Y-78594624D01*
X87715307Y-78638248D01*
X87668308Y-78647500D01*
X83442670Y-78647500D01*
X83442654Y-78647499D01*
X83435058Y-78647499D01*
X83276943Y-78647499D01*
X83200579Y-78667961D01*
X83124214Y-78688423D01*
X83124209Y-78688426D01*
X82987290Y-78767475D01*
X82987282Y-78767481D01*
X81341718Y-80413045D01*
X81280395Y-80446530D01*
X81215720Y-80443295D01*
X81080247Y-80399278D01*
X81080248Y-80399278D01*
X80894812Y-80369908D01*
X80854354Y-80363500D01*
X80625646Y-80363500D01*
X80585188Y-80369908D01*
X80399753Y-80399278D01*
X80399750Y-80399278D01*
X80182244Y-80469950D01*
X79978461Y-80573783D01*
X79912550Y-80621671D01*
X79793434Y-80708214D01*
X79793432Y-80708216D01*
X79793431Y-80708216D01*
X79631716Y-80869931D01*
X79631709Y-80869940D01*
X79570007Y-80954864D01*
X79514677Y-80997530D01*
X79445063Y-81003508D01*
X79383269Y-80970901D01*
X79369372Y-80954863D01*
X79307907Y-80870263D01*
X79307902Y-80870257D01*
X79146242Y-80708597D01*
X78961276Y-80574211D01*
X78757568Y-80470417D01*
X78540124Y-80399765D01*
X78450000Y-80385490D01*
X78450000Y-81373252D01*
X78412292Y-81351482D01*
X78272409Y-81314000D01*
X78127591Y-81314000D01*
X77987708Y-81351482D01*
X77950000Y-81373252D01*
X77950000Y-80385490D01*
X77949999Y-80385490D01*
X77859875Y-80399765D01*
X77642431Y-80470417D01*
X77438723Y-80574211D01*
X77253757Y-80708597D01*
X77092097Y-80870257D01*
X76957711Y-81055223D01*
X76853917Y-81258929D01*
X76783265Y-81476371D01*
X76761468Y-81614000D01*
X77709252Y-81614000D01*
X77687482Y-81651708D01*
X77650000Y-81791591D01*
X77650000Y-81936409D01*
X77687482Y-82076292D01*
X77709252Y-82114000D01*
X76761468Y-82114000D01*
X76783265Y-82251628D01*
X76853917Y-82469070D01*
X76957711Y-82672776D01*
X77092097Y-82857742D01*
X77253757Y-83019402D01*
X77438723Y-83153788D01*
X77642429Y-83257582D01*
X77859871Y-83328234D01*
X77950000Y-83342509D01*
X77950000Y-82354747D01*
X77987708Y-82376518D01*
X78127591Y-82414000D01*
X78272409Y-82414000D01*
X78412292Y-82376518D01*
X78450000Y-82354747D01*
X78450000Y-83342508D01*
X78540128Y-83328234D01*
X78757570Y-83257582D01*
X78961276Y-83153788D01*
X79146242Y-83019402D01*
X79307905Y-82857739D01*
X79369371Y-82773137D01*
X79424701Y-82730470D01*
X79494314Y-82724491D01*
X79556109Y-82757096D01*
X79570007Y-82773134D01*
X79631714Y-82858066D01*
X79793434Y-83019786D01*
X79978462Y-83154217D01*
X80110599Y-83221544D01*
X80182244Y-83258049D01*
X80399751Y-83328721D01*
X80399752Y-83328721D01*
X80399755Y-83328722D01*
X80625646Y-83364500D01*
X80625647Y-83364500D01*
X80854353Y-83364500D01*
X80854354Y-83364500D01*
X81080245Y-83328722D01*
X81080248Y-83328721D01*
X81080249Y-83328721D01*
X81297755Y-83258049D01*
X81297755Y-83258048D01*
X81297758Y-83258048D01*
X81501538Y-83154217D01*
X81684245Y-83021472D01*
X81750046Y-82997994D01*
X81818100Y-83013819D01*
X81866795Y-83063924D01*
X81873308Y-83078459D01*
X81883702Y-83106328D01*
X81883706Y-83106335D01*
X81969952Y-83221544D01*
X81969955Y-83221547D01*
X82085164Y-83307793D01*
X82085171Y-83307797D01*
X82100312Y-83313444D01*
X82220017Y-83358091D01*
X82279627Y-83364500D01*
X82555501Y-83364499D01*
X82622539Y-83384183D01*
X82668294Y-83436987D01*
X82679500Y-83488499D01*
X82679500Y-83701330D01*
X82679499Y-83701348D01*
X82679499Y-83867054D01*
X82679498Y-83867054D01*
X82707055Y-83969896D01*
X82720423Y-84019785D01*
X82742698Y-84058366D01*
X82742764Y-84058479D01*
X82742765Y-84058483D01*
X82742766Y-84058483D01*
X82799480Y-84156716D01*
X82831480Y-84188716D01*
X82943284Y-84300520D01*
X83024790Y-84347577D01*
X83080215Y-84379577D01*
X83232943Y-84420501D01*
X83232946Y-84420501D01*
X83398653Y-84420501D01*
X83398669Y-84420500D01*
X84503903Y-84420500D01*
X84570942Y-84440185D01*
X84591584Y-84456819D01*
X92886181Y-92751416D01*
X92919666Y-92812739D01*
X92922500Y-92839097D01*
X92922500Y-93120901D01*
X92902815Y-93187940D01*
X92886181Y-93208582D01*
X88834705Y-97260058D01*
X88773382Y-97293543D01*
X88714931Y-97292152D01*
X88618697Y-97266366D01*
X88618693Y-97266365D01*
X88618692Y-97266365D01*
X88618691Y-97266364D01*
X88618686Y-97266364D01*
X88392002Y-97246532D01*
X88391998Y-97246532D01*
X88165313Y-97266364D01*
X88165302Y-97266366D01*
X87945511Y-97325258D01*
X87945502Y-97325261D01*
X87739267Y-97421431D01*
X87739265Y-97421432D01*
X87552858Y-97551954D01*
X87391954Y-97712858D01*
X87261432Y-97899265D01*
X87261431Y-97899267D01*
X87165261Y-98105502D01*
X87165258Y-98105511D01*
X87106366Y-98325302D01*
X87106364Y-98325313D01*
X87086532Y-98551998D01*
X87086532Y-98552001D01*
X87104135Y-98753203D01*
X87090368Y-98821703D01*
X87041753Y-98871886D01*
X86973725Y-98887819D01*
X86907881Y-98864444D01*
X86892926Y-98851691D01*
X80761416Y-92720181D01*
X80727931Y-92658858D01*
X80732915Y-92589166D01*
X80774787Y-92533233D01*
X80840251Y-92508816D01*
X80849097Y-92508500D01*
X80854353Y-92508500D01*
X80854354Y-92508500D01*
X81080245Y-92472722D01*
X81080248Y-92472721D01*
X81080249Y-92472721D01*
X81297755Y-92402049D01*
X81297755Y-92402048D01*
X81297758Y-92402048D01*
X81501538Y-92298217D01*
X81686566Y-92163786D01*
X81848286Y-92002066D01*
X81909992Y-91917134D01*
X81965319Y-91874470D01*
X82034932Y-91868491D01*
X82096727Y-91901096D01*
X82110626Y-91917135D01*
X82172097Y-92001741D01*
X82172097Y-92001742D01*
X82333757Y-92163402D01*
X82518723Y-92297788D01*
X82722429Y-92401582D01*
X82939871Y-92472234D01*
X83030000Y-92486509D01*
X83030000Y-91498747D01*
X83067708Y-91520518D01*
X83207591Y-91558000D01*
X83352409Y-91558000D01*
X83492292Y-91520518D01*
X83530000Y-91498747D01*
X83530000Y-92486508D01*
X83620128Y-92472234D01*
X83837570Y-92401582D01*
X84041276Y-92297788D01*
X84226242Y-92163402D01*
X84387902Y-92001742D01*
X84522288Y-91816776D01*
X84626082Y-91613070D01*
X84696734Y-91395628D01*
X84718532Y-91258000D01*
X83770748Y-91258000D01*
X83792518Y-91220292D01*
X83830000Y-91080409D01*
X83830000Y-90935591D01*
X83792518Y-90795708D01*
X83770748Y-90758000D01*
X84718532Y-90758000D01*
X84696734Y-90620371D01*
X84626082Y-90402929D01*
X84522288Y-90199223D01*
X84387902Y-90014257D01*
X84226242Y-89852597D01*
X84041276Y-89718211D01*
X83837568Y-89614417D01*
X83620124Y-89543765D01*
X83530000Y-89529490D01*
X83530000Y-90517252D01*
X83492292Y-90495482D01*
X83352409Y-90458000D01*
X83207591Y-90458000D01*
X83067708Y-90495482D01*
X83030000Y-90517252D01*
X83030000Y-89529490D01*
X83029999Y-89529490D01*
X82939875Y-89543765D01*
X82722431Y-89614417D01*
X82518723Y-89718211D01*
X82333757Y-89852597D01*
X82172097Y-90014257D01*
X82110627Y-90098864D01*
X82055297Y-90141529D01*
X81985684Y-90147508D01*
X81923889Y-90114902D01*
X81909991Y-90098864D01*
X81848286Y-90013934D01*
X81686566Y-89852214D01*
X81501538Y-89717783D01*
X81476956Y-89705258D01*
X81297755Y-89613950D01*
X81080248Y-89543278D01*
X80894812Y-89513908D01*
X80854354Y-89507500D01*
X80625646Y-89507500D01*
X80585188Y-89513908D01*
X80399753Y-89543278D01*
X80399750Y-89543278D01*
X80182244Y-89613950D01*
X79978461Y-89717783D01*
X79795759Y-89850525D01*
X79729952Y-89874005D01*
X79661898Y-89858180D01*
X79613203Y-89808074D01*
X79606690Y-89793538D01*
X79596296Y-89765669D01*
X79596293Y-89765664D01*
X79510047Y-89650455D01*
X79510044Y-89650452D01*
X79394835Y-89564206D01*
X79394828Y-89564202D01*
X79259982Y-89513908D01*
X79259983Y-89513908D01*
X79200383Y-89507501D01*
X79200381Y-89507500D01*
X79200373Y-89507500D01*
X79200364Y-89507500D01*
X77199629Y-89507500D01*
X77199623Y-89507501D01*
X77140016Y-89513908D01*
X77005171Y-89564202D01*
X77005164Y-89564206D01*
X76889955Y-89650452D01*
X76889952Y-89650455D01*
X76803706Y-89765664D01*
X76803702Y-89765671D01*
X76753408Y-89900517D01*
X76747001Y-89960116D01*
X76747000Y-89960135D01*
X76747000Y-90283500D01*
X76727315Y-90350539D01*
X76674511Y-90396294D01*
X76623000Y-90407500D01*
X73913362Y-90407500D01*
X73846323Y-90387815D01*
X73800980Y-90335906D01*
X73774568Y-90279266D01*
X73644045Y-90092858D01*
X73483141Y-89931954D01*
X73296734Y-89801432D01*
X73296732Y-89801431D01*
X73090497Y-89705261D01*
X73090488Y-89705258D01*
X72870697Y-89646366D01*
X72870693Y-89646365D01*
X72870692Y-89646365D01*
X72870691Y-89646364D01*
X72870686Y-89646364D01*
X72644002Y-89626532D01*
X72643998Y-89626532D01*
X72417313Y-89646364D01*
X72417302Y-89646366D01*
X72197511Y-89705258D01*
X72197502Y-89705261D01*
X71991267Y-89801431D01*
X71991265Y-89801432D01*
X71804858Y-89931954D01*
X71643954Y-90092858D01*
X71513432Y-90279265D01*
X71513431Y-90279267D01*
X71417261Y-90485502D01*
X71417258Y-90485511D01*
X71358366Y-90705302D01*
X71358364Y-90705313D01*
X71338532Y-90931998D01*
X71338532Y-90932001D01*
X71358364Y-91158686D01*
X71358366Y-91158697D01*
X71417258Y-91378488D01*
X71417261Y-91378497D01*
X71513431Y-91584732D01*
X71513432Y-91584734D01*
X71643954Y-91771141D01*
X71804858Y-91932045D01*
X71804861Y-91932047D01*
X71991266Y-92062568D01*
X72197504Y-92158739D01*
X72197509Y-92158740D01*
X72197511Y-92158741D01*
X72250415Y-92172916D01*
X72417308Y-92217635D01*
X72579230Y-92231801D01*
X72643998Y-92237468D01*
X72644000Y-92237468D01*
X72644002Y-92237468D01*
X72700673Y-92232509D01*
X72870692Y-92217635D01*
X73090496Y-92158739D01*
X73296734Y-92062568D01*
X73483139Y-91932047D01*
X73644047Y-91771139D01*
X73684791Y-91712948D01*
X73720903Y-91661377D01*
X73775480Y-91617752D01*
X73822478Y-91608500D01*
X76623001Y-91608500D01*
X76690040Y-91628185D01*
X76735795Y-91680989D01*
X76747001Y-91732500D01*
X76747001Y-92055876D01*
X76753408Y-92115483D01*
X76803702Y-92250328D01*
X76803706Y-92250335D01*
X76889952Y-92365544D01*
X76889955Y-92365547D01*
X77005164Y-92451793D01*
X77005171Y-92451797D01*
X77140017Y-92502091D01*
X77140016Y-92502091D01*
X77146944Y-92502835D01*
X77199627Y-92508500D01*
X78799902Y-92508499D01*
X78866941Y-92528184D01*
X78887583Y-92544818D01*
X89323139Y-102980374D01*
X89323149Y-102980385D01*
X89327479Y-102984715D01*
X89327480Y-102984716D01*
X89439284Y-103096520D01*
X89526095Y-103146639D01*
X89526097Y-103146641D01*
X89564151Y-103168611D01*
X89576215Y-103175577D01*
X89728943Y-103216501D01*
X89728946Y-103216501D01*
X89894653Y-103216501D01*
X89894669Y-103216500D01*
X108625331Y-103216500D01*
X108625347Y-103216501D01*
X108632943Y-103216501D01*
X108791054Y-103216501D01*
X108791057Y-103216501D01*
X108943785Y-103175577D01*
X108993904Y-103146639D01*
X109080716Y-103096520D01*
X109192520Y-102984716D01*
X109192520Y-102984714D01*
X109202728Y-102974507D01*
X109202730Y-102974504D01*
X110064713Y-102112521D01*
X110064716Y-102112520D01*
X110176520Y-102000716D01*
X110226639Y-101913904D01*
X110255577Y-101863785D01*
X110296500Y-101711057D01*
X110296500Y-101552943D01*
X110296500Y-99859692D01*
X110316185Y-99792653D01*
X110349374Y-99758119D01*
X110535139Y-99628047D01*
X110696047Y-99467139D01*
X110826568Y-99280734D01*
X110922739Y-99074496D01*
X110981635Y-98854692D01*
X111001468Y-98628000D01*
X110981635Y-98401308D01*
X110922739Y-98181504D01*
X110826568Y-97975266D01*
X110696047Y-97788861D01*
X110696045Y-97788858D01*
X110535140Y-97627953D01*
X110349377Y-97497881D01*
X110305752Y-97443304D01*
X110296500Y-97396306D01*
X110296500Y-96774000D01*
X113202551Y-96774000D01*
X113222317Y-97025151D01*
X113281126Y-97270110D01*
X113377533Y-97502859D01*
X113509160Y-97717653D01*
X113509161Y-97717656D01*
X113509164Y-97717659D01*
X113672776Y-97909224D01*
X113821066Y-98035875D01*
X113864343Y-98072838D01*
X113864346Y-98072839D01*
X114079140Y-98204466D01*
X114311889Y-98300873D01*
X114556852Y-98359683D01*
X114808000Y-98379449D01*
X115059148Y-98359683D01*
X115304111Y-98300873D01*
X115536859Y-98204466D01*
X115751659Y-98072836D01*
X115943224Y-97909224D01*
X116106836Y-97717659D01*
X116238466Y-97502859D01*
X116334873Y-97270111D01*
X116393683Y-97025148D01*
X116413449Y-96774000D01*
X116393683Y-96522852D01*
X116334873Y-96277889D01*
X116263054Y-96104501D01*
X116238466Y-96045140D01*
X116106839Y-95830346D01*
X116106838Y-95830343D01*
X116069875Y-95787066D01*
X115943224Y-95638776D01*
X115816571Y-95530604D01*
X115751656Y-95475161D01*
X115751653Y-95475160D01*
X115536859Y-95343533D01*
X115304110Y-95247126D01*
X115059151Y-95188317D01*
X114808000Y-95168551D01*
X114556848Y-95188317D01*
X114311889Y-95247126D01*
X114079140Y-95343533D01*
X113864346Y-95475160D01*
X113864343Y-95475161D01*
X113672776Y-95638776D01*
X113509161Y-95830343D01*
X113509160Y-95830346D01*
X113377533Y-96045140D01*
X113281126Y-96277889D01*
X113222317Y-96522848D01*
X113202551Y-96774000D01*
X110296500Y-96774000D01*
X110296500Y-94412256D01*
X110316185Y-94345217D01*
X110364204Y-94301772D01*
X110457538Y-94254217D01*
X110642566Y-94119786D01*
X110804286Y-93958066D01*
X110938717Y-93773038D01*
X111042548Y-93569258D01*
X111113222Y-93351745D01*
X111149000Y-93125854D01*
X111149000Y-92802146D01*
X111113222Y-92576255D01*
X111113221Y-92576251D01*
X111113221Y-92576250D01*
X111042549Y-92358744D01*
X110979570Y-92235141D01*
X110938717Y-92154962D01*
X110804286Y-91969934D01*
X110642566Y-91808214D01*
X110457538Y-91673783D01*
X110433190Y-91661377D01*
X110253755Y-91569950D01*
X110036248Y-91499278D01*
X109850812Y-91469908D01*
X109810354Y-91463500D01*
X109581646Y-91463500D01*
X109541188Y-91469908D01*
X109355753Y-91499278D01*
X109355750Y-91499278D01*
X109138244Y-91569950D01*
X108934461Y-91673783D01*
X108868550Y-91721671D01*
X108749434Y-91808214D01*
X108749432Y-91808216D01*
X108749431Y-91808216D01*
X108587715Y-91969932D01*
X108526318Y-92054438D01*
X108470987Y-92097103D01*
X108401374Y-92103082D01*
X108339579Y-92070476D01*
X108325682Y-92054438D01*
X108314773Y-92039423D01*
X108264286Y-91969934D01*
X108102566Y-91808214D01*
X107917538Y-91673783D01*
X107893190Y-91661377D01*
X107713755Y-91569950D01*
X107496248Y-91499278D01*
X107310812Y-91469908D01*
X107270354Y-91463500D01*
X107041646Y-91463500D01*
X107001188Y-91469908D01*
X106815753Y-91499278D01*
X106815750Y-91499278D01*
X106598244Y-91569950D01*
X106394461Y-91673783D01*
X106211759Y-91806525D01*
X106145952Y-91830005D01*
X106077898Y-91814180D01*
X106029203Y-91764074D01*
X106022690Y-91749538D01*
X106020492Y-91743645D01*
X106012296Y-91721669D01*
X106012293Y-91721664D01*
X105926047Y-91606455D01*
X105926044Y-91606452D01*
X105810835Y-91520206D01*
X105810828Y-91520202D01*
X105675982Y-91469908D01*
X105675983Y-91469908D01*
X105616383Y-91463501D01*
X105616381Y-91463500D01*
X105616373Y-91463500D01*
X105616364Y-91463500D01*
X103615629Y-91463500D01*
X103615623Y-91463501D01*
X103556016Y-91469908D01*
X103421171Y-91520202D01*
X103421164Y-91520206D01*
X103305955Y-91606452D01*
X103305952Y-91606455D01*
X103219706Y-91721664D01*
X103219702Y-91721671D01*
X103169408Y-91856517D01*
X103163001Y-91916116D01*
X103163000Y-91916135D01*
X103163000Y-93548401D01*
X103143315Y-93615440D01*
X103126680Y-93636082D01*
X102193316Y-94569449D01*
X101895584Y-94867181D01*
X101834261Y-94900666D01*
X101807903Y-94903500D01*
X94788097Y-94903500D01*
X94721058Y-94883815D01*
X94700416Y-94867181D01*
X94584819Y-94751584D01*
X94551334Y-94690261D01*
X94548500Y-94663903D01*
X94548500Y-94306115D01*
X94568185Y-94239076D01*
X94620989Y-94193321D01*
X94629167Y-94189933D01*
X94644128Y-94184353D01*
X94715331Y-94157796D01*
X94716430Y-94156972D01*
X94717717Y-94156492D01*
X94723112Y-94153547D01*
X94723535Y-94154322D01*
X94781887Y-94132552D01*
X94838198Y-94141673D01*
X94918873Y-94175091D01*
X95084777Y-94208091D01*
X95116992Y-94214499D01*
X95116996Y-94214500D01*
X95116997Y-94214500D01*
X95319004Y-94214500D01*
X95319005Y-94214499D01*
X95517127Y-94175091D01*
X95703756Y-94097786D01*
X95784562Y-94043792D01*
X95851234Y-94022917D01*
X95918614Y-94041401D01*
X95922340Y-94043795D01*
X96002479Y-94097343D01*
X96002486Y-94097347D01*
X96189016Y-94174609D01*
X96189025Y-94174612D01*
X96238000Y-94184353D01*
X96238000Y-93329865D01*
X96240383Y-93305671D01*
X96243500Y-93290002D01*
X96243500Y-93249830D01*
X96257745Y-93264075D01*
X96343255Y-93313444D01*
X96438630Y-93339000D01*
X96537370Y-93339000D01*
X96632745Y-93313444D01*
X96718255Y-93264075D01*
X96738000Y-93244330D01*
X96738000Y-94184352D01*
X96786974Y-94174612D01*
X96786983Y-94174609D01*
X96973513Y-94097347D01*
X96973526Y-94097340D01*
X97141399Y-93985170D01*
X97141403Y-93985167D01*
X97284167Y-93842403D01*
X97284170Y-93842399D01*
X97396340Y-93674526D01*
X97396347Y-93674513D01*
X97473609Y-93487983D01*
X97473612Y-93487974D01*
X97512999Y-93289958D01*
X97513000Y-93289955D01*
X97513000Y-93214000D01*
X96768330Y-93214000D01*
X96788075Y-93194255D01*
X96837444Y-93108745D01*
X96863000Y-93013370D01*
X96863000Y-92914630D01*
X96837444Y-92819255D01*
X96788075Y-92733745D01*
X96768330Y-92714000D01*
X97513000Y-92714000D01*
X97513000Y-92638045D01*
X97512999Y-92638041D01*
X97473612Y-92440025D01*
X97473609Y-92440016D01*
X97396347Y-92253486D01*
X97396340Y-92253473D01*
X97284170Y-92085600D01*
X97284167Y-92085596D01*
X97141403Y-91942832D01*
X97141399Y-91942829D01*
X96973526Y-91830659D01*
X96973513Y-91830652D01*
X96786984Y-91753390D01*
X96786977Y-91753388D01*
X96738000Y-91743645D01*
X96738000Y-92683670D01*
X96718255Y-92663925D01*
X96632745Y-92614556D01*
X96537370Y-92589000D01*
X96438630Y-92589000D01*
X96343255Y-92614556D01*
X96257745Y-92663925D01*
X96243500Y-92678170D01*
X96243500Y-92637996D01*
X96243499Y-92637995D01*
X96240383Y-92622326D01*
X96238000Y-92598134D01*
X96238000Y-91743646D01*
X96237999Y-91743645D01*
X96189022Y-91753388D01*
X96189015Y-91753390D01*
X96002483Y-91830654D01*
X95966615Y-91854620D01*
X95899937Y-91875497D01*
X95832557Y-91857012D01*
X95785868Y-91805032D01*
X95777950Y-91783608D01*
X95777939Y-91783570D01*
X95777577Y-91782216D01*
X95762739Y-91756516D01*
X95698524Y-91645290D01*
X95698521Y-91645286D01*
X95698520Y-91645284D01*
X95586716Y-91533480D01*
X95586715Y-91533479D01*
X95582385Y-91529149D01*
X95582374Y-91529139D01*
X94616819Y-90563584D01*
X94583334Y-90502261D01*
X94580500Y-90475903D01*
X94580500Y-74468096D01*
X94600185Y-74401057D01*
X94616814Y-74380420D01*
X96077294Y-72919939D01*
X96138615Y-72886456D01*
X96197066Y-72887847D01*
X96216604Y-72893082D01*
X96293308Y-72913635D01*
X96455230Y-72927801D01*
X96519998Y-72933468D01*
X96520000Y-72933468D01*
X96520002Y-72933468D01*
X96576673Y-72928509D01*
X96746692Y-72913635D01*
X96966496Y-72854739D01*
X97172734Y-72758568D01*
X97359139Y-72628047D01*
X97520047Y-72467139D01*
X97650568Y-72280734D01*
X97746739Y-72074496D01*
X97805635Y-71854692D01*
X97825468Y-71628000D01*
X97805635Y-71401308D01*
X97760953Y-71234551D01*
X97762616Y-71164701D01*
X97801779Y-71106839D01*
X97866007Y-71079335D01*
X97934909Y-71090922D01*
X97968409Y-71114777D01*
X106176580Y-79322948D01*
X106176584Y-79322951D01*
X106299498Y-79405080D01*
X106299507Y-79405085D01*
X106347439Y-79424939D01*
X106401842Y-79468780D01*
X106423907Y-79535074D01*
X106406628Y-79602773D01*
X106355491Y-79650384D01*
X106299986Y-79663500D01*
X101392097Y-79663500D01*
X101325058Y-79643815D01*
X101304416Y-79627181D01*
X97811941Y-76134706D01*
X97778456Y-76073383D01*
X97779847Y-76014931D01*
X97805635Y-75918692D01*
X97825468Y-75692000D01*
X97805635Y-75465308D01*
X97746739Y-75245504D01*
X97650568Y-75039266D01*
X97520047Y-74852861D01*
X97520045Y-74852858D01*
X97359141Y-74691954D01*
X97172734Y-74561432D01*
X97172732Y-74561431D01*
X96966497Y-74465261D01*
X96966488Y-74465258D01*
X96746697Y-74406366D01*
X96746693Y-74406365D01*
X96746692Y-74406365D01*
X96746691Y-74406364D01*
X96746686Y-74406364D01*
X96520002Y-74386532D01*
X96519998Y-74386532D01*
X96293313Y-74406364D01*
X96293302Y-74406366D01*
X96073511Y-74465258D01*
X96073502Y-74465261D01*
X95867267Y-74561431D01*
X95867265Y-74561432D01*
X95680858Y-74691954D01*
X95519954Y-74852858D01*
X95389432Y-75039265D01*
X95389431Y-75039267D01*
X95293261Y-75245502D01*
X95293258Y-75245511D01*
X95234366Y-75465302D01*
X95234364Y-75465313D01*
X95214532Y-75691998D01*
X95214532Y-75692001D01*
X95234364Y-75918686D01*
X95234366Y-75918697D01*
X95293258Y-76138488D01*
X95293261Y-76138497D01*
X95389431Y-76344732D01*
X95389432Y-76344734D01*
X95519954Y-76531141D01*
X95680858Y-76692045D01*
X95680861Y-76692047D01*
X95867266Y-76822568D01*
X96073504Y-76918739D01*
X96293308Y-76977635D01*
X96455230Y-76991801D01*
X96519998Y-76997468D01*
X96520000Y-76997468D01*
X96520002Y-76997468D01*
X96576673Y-76992509D01*
X96746692Y-76977635D01*
X96842932Y-76951847D01*
X96912781Y-76953510D01*
X96962706Y-76983941D01*
X100607139Y-80628374D01*
X100607149Y-80628385D01*
X100611479Y-80632715D01*
X100611480Y-80632716D01*
X100723284Y-80744520D01*
X100723286Y-80744521D01*
X100723290Y-80744524D01*
X100860209Y-80823573D01*
X100860216Y-80823577D01*
X100972019Y-80853534D01*
X101012942Y-80864500D01*
X101012943Y-80864500D01*
X120513500Y-80864500D01*
X120580539Y-80884185D01*
X120626294Y-80936989D01*
X120637500Y-80988500D01*
X120637500Y-81589500D01*
X120617815Y-81656539D01*
X120565011Y-81702294D01*
X120513500Y-81713500D01*
X119395129Y-81713500D01*
X119395123Y-81713501D01*
X119335516Y-81719908D01*
X119200671Y-81770202D01*
X119200664Y-81770206D01*
X119085455Y-81856452D01*
X119085452Y-81856455D01*
X118999206Y-81971664D01*
X118999202Y-81971671D01*
X118948908Y-82106517D01*
X118942501Y-82166116D01*
X118942500Y-82166135D01*
X118942500Y-82239500D01*
X118922815Y-82306539D01*
X118870011Y-82352294D01*
X118818500Y-82363500D01*
X111272999Y-82363500D01*
X111205960Y-82343815D01*
X111160205Y-82291011D01*
X111148999Y-82239500D01*
X111148999Y-81903129D01*
X111148998Y-81903123D01*
X111142591Y-81843516D01*
X111092297Y-81708671D01*
X111092293Y-81708664D01*
X111006047Y-81593455D01*
X111006044Y-81593452D01*
X110890835Y-81507206D01*
X110890828Y-81507202D01*
X110755982Y-81456908D01*
X110755983Y-81456908D01*
X110696383Y-81450501D01*
X110696381Y-81450500D01*
X110696373Y-81450500D01*
X110696364Y-81450500D01*
X108695629Y-81450500D01*
X108695623Y-81450501D01*
X108636016Y-81456908D01*
X108501171Y-81507202D01*
X108501164Y-81507206D01*
X108385955Y-81593452D01*
X108385952Y-81593455D01*
X108299706Y-81708664D01*
X108299703Y-81708670D01*
X108289308Y-81736541D01*
X108247436Y-81792474D01*
X108181972Y-81816891D01*
X108113699Y-81802039D01*
X108100250Y-81793531D01*
X107917538Y-81660783D01*
X107838547Y-81620535D01*
X107713755Y-81556950D01*
X107496248Y-81486278D01*
X107310812Y-81456908D01*
X107270354Y-81450500D01*
X107041646Y-81450500D01*
X107001188Y-81456908D01*
X106815753Y-81486278D01*
X106815750Y-81486278D01*
X106598244Y-81556950D01*
X106394461Y-81660783D01*
X106294080Y-81733715D01*
X106209434Y-81795214D01*
X106209432Y-81795216D01*
X106209431Y-81795216D01*
X106047715Y-81956932D01*
X105986318Y-82041438D01*
X105930987Y-82084103D01*
X105861374Y-82090082D01*
X105799579Y-82057476D01*
X105785682Y-82041438D01*
X105734993Y-81971671D01*
X105724286Y-81956934D01*
X105562566Y-81795214D01*
X105377538Y-81660783D01*
X105298547Y-81620535D01*
X105173755Y-81556950D01*
X104956248Y-81486278D01*
X104770812Y-81456908D01*
X104730354Y-81450500D01*
X104501646Y-81450500D01*
X104461188Y-81456908D01*
X104275753Y-81486278D01*
X104275750Y-81486278D01*
X104058244Y-81556950D01*
X103854461Y-81660783D01*
X103754080Y-81733715D01*
X103669434Y-81795214D01*
X103669432Y-81795216D01*
X103669431Y-81795216D01*
X103507716Y-81956931D01*
X103507716Y-81956932D01*
X103507714Y-81956934D01*
X103497007Y-81971671D01*
X103373283Y-82141961D01*
X103269450Y-82345744D01*
X103198778Y-82563250D01*
X103198778Y-82563253D01*
X103163000Y-82789146D01*
X103163000Y-83112853D01*
X103198778Y-83338746D01*
X103198778Y-83338749D01*
X103269450Y-83556255D01*
X103343370Y-83701330D01*
X103373283Y-83760038D01*
X103507714Y-83945066D01*
X103669434Y-84106786D01*
X103854462Y-84241217D01*
X103970851Y-84300520D01*
X104058244Y-84345049D01*
X104275751Y-84415721D01*
X104275752Y-84415721D01*
X104275755Y-84415722D01*
X104501646Y-84451500D01*
X104501647Y-84451500D01*
X104730353Y-84451500D01*
X104730354Y-84451500D01*
X104956245Y-84415722D01*
X104956248Y-84415721D01*
X104956249Y-84415721D01*
X105067491Y-84379576D01*
X105145307Y-84354291D01*
X105215148Y-84352297D01*
X105271306Y-84384542D01*
X108311284Y-87424520D01*
X108311286Y-87424521D01*
X108311290Y-87424524D01*
X108448209Y-87503573D01*
X108448216Y-87503577D01*
X108600943Y-87544501D01*
X108600945Y-87544501D01*
X108766654Y-87544501D01*
X108766670Y-87544500D01*
X114023421Y-87544500D01*
X114090460Y-87564185D01*
X114124993Y-87597374D01*
X114210593Y-87719624D01*
X114255067Y-87783141D01*
X114415971Y-87944045D01*
X114415974Y-87944047D01*
X114602379Y-88074568D01*
X114808617Y-88170739D01*
X115028421Y-88229635D01*
X115190343Y-88243801D01*
X115255111Y-88249468D01*
X115255113Y-88249468D01*
X115255115Y-88249468D01*
X115311920Y-88244498D01*
X115481805Y-88229635D01*
X115701609Y-88170739D01*
X115907847Y-88074568D01*
X115920664Y-88065592D01*
X115986869Y-88043262D01*
X116054637Y-88060269D01*
X116091058Y-88092852D01*
X116097563Y-88101542D01*
X116097565Y-88101544D01*
X116097567Y-88101546D01*
X116097570Y-88101548D01*
X116212777Y-88187793D01*
X116212784Y-88187797D01*
X116257731Y-88204561D01*
X116347630Y-88238091D01*
X116407240Y-88244500D01*
X116530613Y-88244499D01*
X116597652Y-88264183D01*
X116643407Y-88316987D01*
X116654613Y-88368499D01*
X116654613Y-91239500D01*
X116634928Y-91306539D01*
X116582124Y-91352294D01*
X116530613Y-91363500D01*
X116200130Y-91363500D01*
X116200123Y-91363501D01*
X116140516Y-91369908D01*
X116005671Y-91420202D01*
X116005664Y-91420206D01*
X115890455Y-91506452D01*
X115890452Y-91506455D01*
X115804206Y-91621664D01*
X115804202Y-91621671D01*
X115753908Y-91756517D01*
X115747709Y-91814180D01*
X115747501Y-91816123D01*
X115747500Y-91816135D01*
X115747500Y-94111870D01*
X115747501Y-94111876D01*
X115753908Y-94171483D01*
X115804202Y-94306328D01*
X115804206Y-94306335D01*
X115890452Y-94421544D01*
X115890455Y-94421547D01*
X116005664Y-94507793D01*
X116005671Y-94507797D01*
X116140517Y-94558091D01*
X116140516Y-94558091D01*
X116147444Y-94558835D01*
X116200127Y-94564500D01*
X117977191Y-94564499D01*
X118044230Y-94584184D01*
X118064872Y-94600818D01*
X124553326Y-101089273D01*
X124553334Y-101089279D01*
X124646422Y-101151478D01*
X124646423Y-101151478D01*
X124646427Y-101151481D01*
X124659873Y-101160465D01*
X124778256Y-101209501D01*
X124778260Y-101209501D01*
X124778261Y-101209502D01*
X124903928Y-101234500D01*
X124903931Y-101234500D01*
X128343317Y-101234500D01*
X128410356Y-101254185D01*
X128444892Y-101287377D01*
X128539954Y-101423141D01*
X128700858Y-101584045D01*
X128700861Y-101584047D01*
X128887266Y-101714568D01*
X129093504Y-101810739D01*
X129313308Y-101869635D01*
X129475230Y-101883801D01*
X129539998Y-101889468D01*
X129540000Y-101889468D01*
X129540002Y-101889468D01*
X129596673Y-101884509D01*
X129766692Y-101869635D01*
X129986496Y-101810739D01*
X130192734Y-101714568D01*
X130379139Y-101584047D01*
X130540047Y-101423139D01*
X130670568Y-101236734D01*
X130766739Y-101030496D01*
X130825635Y-100810692D01*
X130845468Y-100584000D01*
X130825635Y-100357308D01*
X130766739Y-100137504D01*
X130670568Y-99931266D01*
X130540047Y-99744861D01*
X130540045Y-99744858D01*
X130379141Y-99583954D01*
X130192734Y-99453432D01*
X130192732Y-99453431D01*
X129986497Y-99357261D01*
X129986488Y-99357258D01*
X129766697Y-99298366D01*
X129766693Y-99298365D01*
X129766692Y-99298365D01*
X129766691Y-99298364D01*
X129766686Y-99298364D01*
X129540002Y-99278532D01*
X129539998Y-99278532D01*
X129313313Y-99298364D01*
X129313302Y-99298366D01*
X129093511Y-99357258D01*
X129093502Y-99357261D01*
X128887267Y-99453431D01*
X128887265Y-99453432D01*
X128700858Y-99583954D01*
X128539954Y-99744858D01*
X128444892Y-99880623D01*
X128390315Y-99924248D01*
X128343317Y-99933500D01*
X125288808Y-99933500D01*
X125221769Y-99913815D01*
X125201127Y-99897181D01*
X124503929Y-99199983D01*
X136149500Y-99199983D01*
X136149500Y-100800001D01*
X136149501Y-100800018D01*
X136160000Y-100902796D01*
X136160001Y-100902799D01*
X136194031Y-101005493D01*
X136215186Y-101069334D01*
X136307288Y-101218656D01*
X136431344Y-101342712D01*
X136580666Y-101434814D01*
X136747203Y-101489999D01*
X136849991Y-101500500D01*
X138150008Y-101500499D01*
X138252797Y-101489999D01*
X138419334Y-101434814D01*
X138568656Y-101342712D01*
X138692712Y-101218656D01*
X138784814Y-101069334D01*
X138784814Y-101069331D01*
X138788448Y-101063441D01*
X138840395Y-101016716D01*
X138909358Y-101005493D01*
X138973440Y-101033336D01*
X138981668Y-101040856D01*
X139120535Y-101179723D01*
X139120540Y-101179727D01*
X139292442Y-101304620D01*
X139481782Y-101401095D01*
X139683871Y-101466757D01*
X139750000Y-101477231D01*
X139750000Y-100433012D01*
X139807007Y-100465925D01*
X139934174Y-100500000D01*
X140065826Y-100500000D01*
X140192993Y-100465925D01*
X140250000Y-100433012D01*
X140250000Y-101477230D01*
X140316126Y-101466757D01*
X140316129Y-101466757D01*
X140518217Y-101401095D01*
X140707557Y-101304620D01*
X140879459Y-101179727D01*
X140879464Y-101179723D01*
X141029723Y-101029464D01*
X141029727Y-101029459D01*
X141154620Y-100857557D01*
X141251095Y-100668217D01*
X141316757Y-100466130D01*
X141316757Y-100466127D01*
X141350000Y-100256246D01*
X141350000Y-100250000D01*
X140433012Y-100250000D01*
X140465925Y-100192993D01*
X140500000Y-100065826D01*
X140500000Y-99934174D01*
X140465925Y-99807007D01*
X140433012Y-99750000D01*
X141350000Y-99750000D01*
X141350000Y-99743753D01*
X141316757Y-99533872D01*
X141316757Y-99533869D01*
X141251095Y-99331782D01*
X141154620Y-99142442D01*
X141029727Y-98970540D01*
X141029723Y-98970535D01*
X140879464Y-98820276D01*
X140879459Y-98820272D01*
X140707557Y-98695379D01*
X140518215Y-98598903D01*
X140316124Y-98533241D01*
X140250000Y-98522768D01*
X140250000Y-99566988D01*
X140192993Y-99534075D01*
X140065826Y-99500000D01*
X139934174Y-99500000D01*
X139807007Y-99534075D01*
X139750000Y-99566988D01*
X139750000Y-98522768D01*
X139749999Y-98522768D01*
X139683875Y-98533241D01*
X139481784Y-98598903D01*
X139292442Y-98695379D01*
X139120541Y-98820271D01*
X138981668Y-98959144D01*
X138920345Y-98992628D01*
X138850653Y-98987644D01*
X138794720Y-98945772D01*
X138788448Y-98936558D01*
X138692712Y-98781344D01*
X138568657Y-98657289D01*
X138568656Y-98657288D01*
X138419334Y-98565186D01*
X138252797Y-98510001D01*
X138252795Y-98510000D01*
X138150010Y-98499500D01*
X136849998Y-98499500D01*
X136849981Y-98499501D01*
X136747203Y-98510000D01*
X136747200Y-98510001D01*
X136580668Y-98565185D01*
X136580663Y-98565187D01*
X136431342Y-98657289D01*
X136307289Y-98781342D01*
X136215187Y-98930663D01*
X136215185Y-98930668D01*
X136210180Y-98945772D01*
X136160001Y-99097203D01*
X136160001Y-99097204D01*
X136160000Y-99097204D01*
X136149500Y-99199983D01*
X124503929Y-99199983D01*
X118984818Y-93680872D01*
X118951333Y-93619549D01*
X118948499Y-93593191D01*
X118948499Y-92964000D01*
X123362551Y-92964000D01*
X123382317Y-93215151D01*
X123441126Y-93460110D01*
X123537533Y-93692859D01*
X123669160Y-93907653D01*
X123669161Y-93907656D01*
X123712217Y-93958068D01*
X123832776Y-94099224D01*
X123958179Y-94206328D01*
X124024343Y-94262838D01*
X124024346Y-94262839D01*
X124239140Y-94394466D01*
X124415058Y-94467333D01*
X124471889Y-94490873D01*
X124716852Y-94549683D01*
X124968000Y-94569449D01*
X125219148Y-94549683D01*
X125464111Y-94490873D01*
X125696859Y-94394466D01*
X125911659Y-94262836D01*
X126103224Y-94099224D01*
X126266836Y-93907659D01*
X126398466Y-93692859D01*
X126494873Y-93460111D01*
X126553683Y-93215148D01*
X126573449Y-92964000D01*
X126553683Y-92712852D01*
X126494873Y-92467889D01*
X126452481Y-92365546D01*
X126398466Y-92235140D01*
X126266839Y-92020346D01*
X126266838Y-92020343D01*
X126200304Y-91942442D01*
X126103224Y-91828776D01*
X125921751Y-91673783D01*
X125911656Y-91665161D01*
X125911653Y-91665160D01*
X125696859Y-91533533D01*
X125464110Y-91437126D01*
X125219151Y-91378317D01*
X124968000Y-91358551D01*
X124716848Y-91378317D01*
X124471889Y-91437126D01*
X124239140Y-91533533D01*
X124024346Y-91665160D01*
X124024343Y-91665161D01*
X123832776Y-91828776D01*
X123669161Y-92020343D01*
X123669160Y-92020346D01*
X123537533Y-92235140D01*
X123441126Y-92467889D01*
X123382317Y-92712848D01*
X123362551Y-92964000D01*
X118948499Y-92964000D01*
X118948499Y-91816129D01*
X118948498Y-91816123D01*
X118948497Y-91816116D01*
X118942091Y-91756517D01*
X118937290Y-91743646D01*
X118891797Y-91621671D01*
X118891793Y-91621664D01*
X118805547Y-91506455D01*
X118805544Y-91506452D01*
X118690335Y-91420206D01*
X118690328Y-91420202D01*
X118555482Y-91369908D01*
X118555483Y-91369908D01*
X118495883Y-91363501D01*
X118495881Y-91363500D01*
X118495873Y-91363500D01*
X118495865Y-91363500D01*
X117979613Y-91363500D01*
X117912574Y-91343815D01*
X117866819Y-91291011D01*
X117855613Y-91239500D01*
X117855613Y-88368499D01*
X117875298Y-88301460D01*
X117928102Y-88255705D01*
X117979613Y-88244499D01*
X118102984Y-88244499D01*
X118102985Y-88244499D01*
X118162596Y-88238091D01*
X118297444Y-88187796D01*
X118412659Y-88101546D01*
X118498909Y-87986331D01*
X118549204Y-87851483D01*
X118555613Y-87791873D01*
X118555612Y-86096128D01*
X118549204Y-86036517D01*
X118534365Y-85996732D01*
X118498910Y-85901671D01*
X118498906Y-85901664D01*
X118412660Y-85786455D01*
X118412657Y-85786452D01*
X118297448Y-85700206D01*
X118297441Y-85700202D01*
X118162595Y-85649908D01*
X118162596Y-85649908D01*
X118102996Y-85643501D01*
X118102994Y-85643500D01*
X118102986Y-85643500D01*
X118102977Y-85643500D01*
X116407242Y-85643500D01*
X116407236Y-85643501D01*
X116347629Y-85649908D01*
X116212784Y-85700202D01*
X116212777Y-85700206D01*
X116097570Y-85786451D01*
X116097559Y-85786462D01*
X116091055Y-85795150D01*
X116035120Y-85837019D01*
X115965428Y-85842000D01*
X115920668Y-85822409D01*
X115907850Y-85813433D01*
X115907846Y-85813431D01*
X115804728Y-85765346D01*
X115701609Y-85717261D01*
X115701605Y-85717260D01*
X115701601Y-85717258D01*
X115481810Y-85658366D01*
X115481806Y-85658365D01*
X115481805Y-85658365D01*
X115481804Y-85658364D01*
X115481799Y-85658364D01*
X115255115Y-85638532D01*
X115255111Y-85638532D01*
X115028426Y-85658364D01*
X115028415Y-85658366D01*
X114808624Y-85717258D01*
X114808615Y-85717261D01*
X114602380Y-85813431D01*
X114602378Y-85813432D01*
X114415971Y-85943954D01*
X114255067Y-86104858D01*
X114200254Y-86183141D01*
X114124994Y-86290624D01*
X114070420Y-86334248D01*
X114023421Y-86343500D01*
X108980098Y-86343500D01*
X108913059Y-86323815D01*
X108892417Y-86307181D01*
X107240761Y-84655525D01*
X107207276Y-84594202D01*
X107212260Y-84524510D01*
X107254132Y-84468577D01*
X107309041Y-84445372D01*
X107496245Y-84415722D01*
X107496246Y-84415721D01*
X107496249Y-84415721D01*
X107713755Y-84345049D01*
X107713755Y-84345048D01*
X107713758Y-84345048D01*
X107917538Y-84241217D01*
X108100245Y-84108472D01*
X108166046Y-84084994D01*
X108234100Y-84100819D01*
X108282795Y-84150924D01*
X108289308Y-84165459D01*
X108299702Y-84193328D01*
X108299706Y-84193335D01*
X108385952Y-84308544D01*
X108385955Y-84308547D01*
X108501164Y-84394793D01*
X108501171Y-84394797D01*
X108636017Y-84445091D01*
X108636016Y-84445091D01*
X108638621Y-84445371D01*
X108695627Y-84451500D01*
X110696372Y-84451499D01*
X110755983Y-84445091D01*
X110890831Y-84394796D01*
X111006046Y-84308546D01*
X111092296Y-84193331D01*
X111142591Y-84058483D01*
X111142591Y-84058481D01*
X111142592Y-84058479D01*
X111146415Y-84022917D01*
X111149000Y-83998873D01*
X111149000Y-83688500D01*
X111168685Y-83621461D01*
X111221489Y-83575706D01*
X111273000Y-83564500D01*
X118818501Y-83564500D01*
X118885540Y-83584185D01*
X118931295Y-83636989D01*
X118942501Y-83688500D01*
X118942501Y-83761876D01*
X118948908Y-83821483D01*
X118999202Y-83956328D01*
X118999206Y-83956335D01*
X119085452Y-84071544D01*
X119085455Y-84071547D01*
X119200664Y-84157793D01*
X119200671Y-84157797D01*
X119335517Y-84208091D01*
X119335516Y-84208091D01*
X119397646Y-84214771D01*
X119462197Y-84241509D01*
X119482765Y-84262572D01*
X119487478Y-84268714D01*
X119606349Y-84387585D01*
X119606355Y-84387590D01*
X120927139Y-85708374D01*
X120927149Y-85708385D01*
X120931479Y-85712715D01*
X120931480Y-85712716D01*
X121043284Y-85824520D01*
X121043286Y-85824521D01*
X121043290Y-85824524D01*
X121176911Y-85901669D01*
X121180216Y-85903577D01*
X121292019Y-85933534D01*
X121332942Y-85944500D01*
X121332943Y-85944500D01*
X128308308Y-85944500D01*
X128375347Y-85964185D01*
X128409880Y-85997374D01*
X128485141Y-86104858D01*
X128539954Y-86183141D01*
X128700858Y-86344045D01*
X128700861Y-86344047D01*
X128887266Y-86474568D01*
X129093504Y-86570739D01*
X129313308Y-86629635D01*
X129475230Y-86643801D01*
X129539998Y-86649468D01*
X129540000Y-86649468D01*
X129540002Y-86649468D01*
X129596673Y-86644509D01*
X129766692Y-86629635D01*
X129986496Y-86570739D01*
X130192734Y-86474568D01*
X130379139Y-86344047D01*
X130540047Y-86183139D01*
X130670568Y-85996734D01*
X130766739Y-85790496D01*
X130825635Y-85570692D01*
X130845468Y-85344000D01*
X130825635Y-85117308D01*
X130766739Y-84897504D01*
X130670568Y-84691266D01*
X130540047Y-84504861D01*
X130540045Y-84504858D01*
X130379141Y-84343954D01*
X130192734Y-84213432D01*
X130192732Y-84213431D01*
X129986497Y-84117261D01*
X129986488Y-84117258D01*
X129766697Y-84058366D01*
X129766693Y-84058365D01*
X129766692Y-84058365D01*
X129766691Y-84058364D01*
X129766686Y-84058364D01*
X129540002Y-84038532D01*
X129539998Y-84038532D01*
X129313313Y-84058364D01*
X129313302Y-84058366D01*
X129093511Y-84117258D01*
X129093502Y-84117261D01*
X128887267Y-84213431D01*
X128887265Y-84213432D01*
X128700858Y-84343954D01*
X128539954Y-84504858D01*
X128477396Y-84594202D01*
X128409881Y-84690624D01*
X128355307Y-84734248D01*
X128308308Y-84743500D01*
X121712097Y-84743500D01*
X121645058Y-84723815D01*
X121624416Y-84707181D01*
X121330163Y-84412928D01*
X121296678Y-84351605D01*
X121301662Y-84281913D01*
X121343534Y-84225980D01*
X121393653Y-84203630D01*
X121468629Y-84188716D01*
X121537127Y-84175091D01*
X121723756Y-84097786D01*
X121804562Y-84043792D01*
X121871234Y-84022917D01*
X121938614Y-84041401D01*
X121942340Y-84043795D01*
X122022479Y-84097343D01*
X122022486Y-84097347D01*
X122209016Y-84174609D01*
X122209025Y-84174612D01*
X122258000Y-84184353D01*
X122258000Y-83329865D01*
X122260383Y-83305671D01*
X122263500Y-83290002D01*
X122263500Y-83249830D01*
X122277745Y-83264075D01*
X122363255Y-83313444D01*
X122458630Y-83339000D01*
X122557370Y-83339000D01*
X122652745Y-83313444D01*
X122738255Y-83264075D01*
X122758000Y-83244330D01*
X122758000Y-84184352D01*
X122806974Y-84174612D01*
X122806983Y-84174609D01*
X122993513Y-84097347D01*
X122993526Y-84097340D01*
X123161399Y-83985170D01*
X123161403Y-83985167D01*
X123304167Y-83842403D01*
X123304170Y-83842399D01*
X123416340Y-83674526D01*
X123416347Y-83674513D01*
X123493609Y-83487983D01*
X123493612Y-83487974D01*
X123532999Y-83289958D01*
X123533000Y-83289955D01*
X123533000Y-83214000D01*
X122788330Y-83214000D01*
X122808075Y-83194255D01*
X122857444Y-83108745D01*
X122883000Y-83013370D01*
X122883000Y-82914630D01*
X122857444Y-82819255D01*
X122808075Y-82733745D01*
X122788330Y-82714000D01*
X123533000Y-82714000D01*
X123533000Y-82638045D01*
X123532999Y-82638041D01*
X123493612Y-82440025D01*
X123493609Y-82440016D01*
X123416347Y-82253486D01*
X123416340Y-82253473D01*
X123304170Y-82085600D01*
X123304167Y-82085596D01*
X123161403Y-81942832D01*
X123161399Y-81942829D01*
X122993526Y-81830659D01*
X122993513Y-81830652D01*
X122806984Y-81753390D01*
X122806977Y-81753388D01*
X122758000Y-81743645D01*
X122758000Y-82683670D01*
X122738255Y-82663925D01*
X122652745Y-82614556D01*
X122557370Y-82589000D01*
X122458630Y-82589000D01*
X122363255Y-82614556D01*
X122277745Y-82663925D01*
X122263500Y-82678170D01*
X122263500Y-82637996D01*
X122263499Y-82637995D01*
X122260383Y-82622326D01*
X122258000Y-82598134D01*
X122258000Y-81743646D01*
X122257999Y-81743645D01*
X122209022Y-81753388D01*
X122209015Y-81753390D01*
X122022478Y-81830656D01*
X122020946Y-81831475D01*
X122020052Y-81831661D01*
X122016851Y-81832987D01*
X122016599Y-81832379D01*
X121952542Y-81845713D01*
X121887300Y-81820708D01*
X121845933Y-81764400D01*
X121838500Y-81722113D01*
X121838500Y-80518945D01*
X121838500Y-80518943D01*
X121797577Y-80366216D01*
X121729352Y-80248045D01*
X121718524Y-80229290D01*
X121718521Y-80229286D01*
X121718520Y-80229284D01*
X121606716Y-80117480D01*
X121606715Y-80117479D01*
X121602385Y-80113149D01*
X121602374Y-80113139D01*
X121391590Y-79902355D01*
X121391588Y-79902352D01*
X121272717Y-79783481D01*
X121272709Y-79783475D01*
X121177523Y-79728520D01*
X121177521Y-79728519D01*
X121166030Y-79721885D01*
X121117817Y-79671317D01*
X121104596Y-79602710D01*
X121130565Y-79537846D01*
X121187481Y-79497319D01*
X121228034Y-79490500D01*
X130877770Y-79490500D01*
X130944809Y-79510185D01*
X130965451Y-79526819D01*
X138521915Y-87083283D01*
X138555400Y-87144606D01*
X138556707Y-87190361D01*
X138524500Y-87393712D01*
X138524500Y-87606286D01*
X138553895Y-87791883D01*
X138557754Y-87816243D01*
X138616384Y-87996688D01*
X138623444Y-88018414D01*
X138719951Y-88207820D01*
X138844890Y-88379786D01*
X138983705Y-88518601D01*
X139017190Y-88579924D01*
X139012206Y-88649616D01*
X138970334Y-88705549D01*
X138961121Y-88711821D01*
X138806342Y-88807289D01*
X138682289Y-88931342D01*
X138590187Y-89080663D01*
X138590186Y-89080666D01*
X138535001Y-89247203D01*
X138535001Y-89247204D01*
X138535000Y-89247204D01*
X138524500Y-89349983D01*
X138524500Y-90650001D01*
X138524501Y-90650018D01*
X138535000Y-90752796D01*
X138535001Y-90752799D01*
X138590185Y-90919331D01*
X138590186Y-90919334D01*
X138682288Y-91068656D01*
X138806344Y-91192712D01*
X138955666Y-91284814D01*
X139122203Y-91339999D01*
X139224991Y-91350500D01*
X140775008Y-91350499D01*
X140877797Y-91339999D01*
X141044334Y-91284814D01*
X141193656Y-91192712D01*
X141317712Y-91068656D01*
X141409814Y-90919334D01*
X141464999Y-90752797D01*
X141475500Y-90650009D01*
X141475499Y-89349992D01*
X141464999Y-89247203D01*
X141409814Y-89080666D01*
X141317712Y-88931344D01*
X141193656Y-88807288D01*
X141044334Y-88715186D01*
X141044333Y-88715185D01*
X141038878Y-88711821D01*
X140992154Y-88659873D01*
X140980931Y-88590910D01*
X141008775Y-88526828D01*
X141016272Y-88518623D01*
X141155104Y-88379792D01*
X141280051Y-88207816D01*
X141376557Y-88018412D01*
X141442246Y-87816243D01*
X141475500Y-87606287D01*
X141475500Y-87393713D01*
X141442246Y-87183757D01*
X141376557Y-86981588D01*
X141280051Y-86792184D01*
X141280049Y-86792181D01*
X141280048Y-86792179D01*
X141155109Y-86620213D01*
X141004792Y-86469896D01*
X140840204Y-86350316D01*
X140797540Y-86294989D01*
X140791561Y-86225376D01*
X140824166Y-86163580D01*
X140840199Y-86149686D01*
X141004792Y-86030104D01*
X141155104Y-85879792D01*
X141155106Y-85879788D01*
X141155109Y-85879786D01*
X141280048Y-85707820D01*
X141280047Y-85707820D01*
X141280051Y-85707816D01*
X141376557Y-85518412D01*
X141442246Y-85316243D01*
X141475500Y-85106287D01*
X141475500Y-84893713D01*
X141442246Y-84683757D01*
X141376557Y-84481588D01*
X141280051Y-84292184D01*
X141280049Y-84292181D01*
X141280048Y-84292179D01*
X141155109Y-84120213D01*
X141004790Y-83969894D01*
X141004785Y-83969890D01*
X140839781Y-83850008D01*
X140797115Y-83794678D01*
X140791136Y-83725065D01*
X140823741Y-83663270D01*
X140839781Y-83649371D01*
X141004466Y-83529721D01*
X141154723Y-83379464D01*
X141154727Y-83379459D01*
X141279620Y-83207557D01*
X141376095Y-83018217D01*
X141441757Y-82816129D01*
X141441757Y-82816126D01*
X141452231Y-82750000D01*
X140404146Y-82750000D01*
X140442630Y-82683343D01*
X140475000Y-82562535D01*
X140475000Y-82437465D01*
X140442630Y-82316657D01*
X140404146Y-82250000D01*
X141452231Y-82250000D01*
X141441757Y-82183873D01*
X141441757Y-82183870D01*
X141376095Y-81981782D01*
X141279620Y-81792442D01*
X141154727Y-81620540D01*
X141154723Y-81620535D01*
X141004464Y-81470276D01*
X141004459Y-81470272D01*
X140832557Y-81345379D01*
X140643217Y-81248904D01*
X140441128Y-81183242D01*
X140250000Y-81152969D01*
X140250000Y-82095854D01*
X140183343Y-82057370D01*
X140062535Y-82025000D01*
X139937465Y-82025000D01*
X139816657Y-82057370D01*
X139750000Y-82095854D01*
X139750000Y-81152969D01*
X139558872Y-81183242D01*
X139558869Y-81183242D01*
X139356782Y-81248904D01*
X139167442Y-81345379D01*
X138995540Y-81470272D01*
X138995535Y-81470276D01*
X138845276Y-81620535D01*
X138845272Y-81620540D01*
X138720379Y-81792442D01*
X138623904Y-81981782D01*
X138558242Y-82183869D01*
X138558242Y-82183872D01*
X138553516Y-82213711D01*
X138523587Y-82276846D01*
X138464275Y-82313777D01*
X138394412Y-82312779D01*
X138343362Y-82281994D01*
X134422819Y-78361451D01*
X134389334Y-78300128D01*
X134386500Y-78273770D01*
X134386500Y-69349983D01*
X138499500Y-69349983D01*
X138499500Y-70650001D01*
X138499501Y-70650018D01*
X138510000Y-70752796D01*
X138510001Y-70752799D01*
X138521950Y-70788858D01*
X138565186Y-70919334D01*
X138657288Y-71068656D01*
X138781344Y-71192712D01*
X138930666Y-71284814D01*
X139097203Y-71339999D01*
X139199991Y-71350500D01*
X140800008Y-71350499D01*
X140902797Y-71339999D01*
X141069334Y-71284814D01*
X141218656Y-71192712D01*
X141342712Y-71068656D01*
X141434814Y-70919334D01*
X141489999Y-70752797D01*
X141500500Y-70650009D01*
X141500499Y-69349992D01*
X141496892Y-69314686D01*
X141489999Y-69247203D01*
X141489998Y-69247200D01*
X141434814Y-69080666D01*
X141342712Y-68931344D01*
X141218656Y-68807288D01*
X141069334Y-68715186D01*
X141069332Y-68715185D01*
X141063440Y-68711551D01*
X141016716Y-68659603D01*
X141005493Y-68590641D01*
X141033337Y-68526558D01*
X141040856Y-68518330D01*
X141179728Y-68379458D01*
X141304620Y-68207557D01*
X141401095Y-68018217D01*
X141466757Y-67816129D01*
X141466757Y-67816126D01*
X141477231Y-67750000D01*
X140433012Y-67750000D01*
X140465925Y-67692993D01*
X140500000Y-67565826D01*
X140500000Y-67434174D01*
X140465925Y-67307007D01*
X140433012Y-67250000D01*
X141477231Y-67250000D01*
X141466757Y-67183873D01*
X141466757Y-67183870D01*
X141401095Y-66981782D01*
X141304620Y-66792442D01*
X141179727Y-66620540D01*
X141179723Y-66620535D01*
X141029464Y-66470276D01*
X141029459Y-66470272D01*
X140857557Y-66345379D01*
X140668217Y-66248904D01*
X140466129Y-66183242D01*
X140256246Y-66150000D01*
X140250000Y-66150000D01*
X140250000Y-67066988D01*
X140192993Y-67034075D01*
X140065826Y-67000000D01*
X139934174Y-67000000D01*
X139807007Y-67034075D01*
X139750000Y-67066988D01*
X139750000Y-66150000D01*
X139743754Y-66150000D01*
X139533872Y-66183242D01*
X139533869Y-66183242D01*
X139331782Y-66248904D01*
X139142442Y-66345379D01*
X138970540Y-66470272D01*
X138970535Y-66470276D01*
X138820276Y-66620535D01*
X138820272Y-66620540D01*
X138695379Y-66792442D01*
X138598904Y-66981782D01*
X138533242Y-67183870D01*
X138533242Y-67183873D01*
X138522769Y-67250000D01*
X139566988Y-67250000D01*
X139534075Y-67307007D01*
X139500000Y-67434174D01*
X139500000Y-67565826D01*
X139534075Y-67692993D01*
X139566988Y-67750000D01*
X138522769Y-67750000D01*
X138533242Y-67816126D01*
X138533242Y-67816129D01*
X138598904Y-68018217D01*
X138695379Y-68207557D01*
X138820272Y-68379459D01*
X138820276Y-68379464D01*
X138959143Y-68518331D01*
X138992628Y-68579654D01*
X138987644Y-68649346D01*
X138945772Y-68705279D01*
X138936559Y-68711551D01*
X138781342Y-68807289D01*
X138657289Y-68931342D01*
X138565187Y-69080663D01*
X138565185Y-69080668D01*
X138562755Y-69088001D01*
X138510001Y-69247203D01*
X138510001Y-69247204D01*
X138510000Y-69247204D01*
X138499500Y-69349983D01*
X134386500Y-69349983D01*
X134386500Y-67236851D01*
X134406185Y-67169812D01*
X134458989Y-67124057D01*
X134497247Y-67113561D01*
X134543483Y-67108591D01*
X134678331Y-67058296D01*
X134793546Y-66972046D01*
X134800051Y-66963356D01*
X134855982Y-66921484D01*
X134925673Y-66916497D01*
X134970442Y-66936089D01*
X134983264Y-66945067D01*
X134983266Y-66945068D01*
X135189504Y-67041239D01*
X135409308Y-67100135D01*
X135562768Y-67113561D01*
X135635998Y-67119968D01*
X135636000Y-67119968D01*
X135636002Y-67119968D01*
X135709232Y-67113561D01*
X135862692Y-67100135D01*
X136082496Y-67041239D01*
X136288734Y-66945068D01*
X136475139Y-66814547D01*
X136636047Y-66653639D01*
X136766568Y-66467234D01*
X136862739Y-66260996D01*
X136921635Y-66041192D01*
X136941468Y-65814500D01*
X136921635Y-65587808D01*
X136862739Y-65368004D01*
X136766568Y-65161766D01*
X136636047Y-64975361D01*
X136636045Y-64975358D01*
X136475140Y-64814453D01*
X136289377Y-64684381D01*
X136245752Y-64629804D01*
X136236500Y-64582806D01*
X136236500Y-59453596D01*
X136256185Y-59386557D01*
X136272814Y-59365919D01*
X137411416Y-58227317D01*
X137472739Y-58193833D01*
X137499097Y-58190999D01*
X138174002Y-58190999D01*
X138174008Y-58190999D01*
X138276797Y-58180499D01*
X138443334Y-58125314D01*
X138592656Y-58033212D01*
X138716712Y-57909156D01*
X138753259Y-57849902D01*
X138805207Y-57803179D01*
X138858798Y-57791000D01*
X141589202Y-57791000D01*
X141656241Y-57810685D01*
X141694739Y-57849901D01*
X141731288Y-57909156D01*
X141855344Y-58033212D01*
X142004666Y-58125314D01*
X142171203Y-58180499D01*
X142273991Y-58191000D01*
X143424008Y-58190999D01*
X143526797Y-58180499D01*
X143693334Y-58125314D01*
X143842656Y-58033212D01*
X143966712Y-57909156D01*
X144058814Y-57759834D01*
X144113999Y-57593297D01*
X144124500Y-57490509D01*
X144124499Y-56890492D01*
X144122163Y-56867628D01*
X144113999Y-56787703D01*
X144113998Y-56787700D01*
X144058814Y-56621166D01*
X143966712Y-56471844D01*
X143842656Y-56347788D01*
X143693334Y-56255686D01*
X143693331Y-56255685D01*
X143534496Y-56203052D01*
X143477051Y-56163279D01*
X143450228Y-56098763D01*
X143449500Y-56085346D01*
X143449500Y-55095654D01*
X143469185Y-55028615D01*
X143521989Y-54982860D01*
X143534496Y-54977948D01*
X143561179Y-54969105D01*
X143693334Y-54925314D01*
X143842656Y-54833212D01*
X143966712Y-54709156D01*
X144058814Y-54559834D01*
X144113999Y-54393297D01*
X144124500Y-54290509D01*
X144124499Y-53690492D01*
X144122163Y-53667628D01*
X144113999Y-53587703D01*
X144113998Y-53587700D01*
X144110771Y-53577963D01*
X144058814Y-53421166D01*
X143966712Y-53271844D01*
X143842656Y-53147788D01*
X143693334Y-53055686D01*
X143526797Y-53000501D01*
X143526795Y-53000500D01*
X143424010Y-52990000D01*
X142273998Y-52990000D01*
X142273981Y-52990001D01*
X142171203Y-53000500D01*
X142171200Y-53000501D01*
X142004668Y-53055685D01*
X142004663Y-53055687D01*
X141855342Y-53147789D01*
X141731289Y-53271842D01*
X141694741Y-53331097D01*
X141642793Y-53377821D01*
X141589202Y-53390000D01*
X138858798Y-53390000D01*
X138791759Y-53370315D01*
X138753259Y-53331097D01*
X138744786Y-53317360D01*
X138716712Y-53271844D01*
X138592656Y-53147788D01*
X138443334Y-53055686D01*
X138276797Y-53000501D01*
X138276795Y-53000500D01*
X138174016Y-52990000D01*
X138174009Y-52990000D01*
X137499097Y-52990000D01*
X137432058Y-52970315D01*
X137411416Y-52953681D01*
X135860819Y-51403084D01*
X135827334Y-51341761D01*
X135824500Y-51315403D01*
X135824500Y-49442192D01*
X135844185Y-49375153D01*
X135877374Y-49340619D01*
X136063139Y-49210547D01*
X136224047Y-49049639D01*
X136354568Y-48863234D01*
X136450739Y-48656996D01*
X136509635Y-48437192D01*
X136529468Y-48210500D01*
X136528195Y-48195954D01*
X136509635Y-47983813D01*
X136509635Y-47983808D01*
X136450739Y-47764004D01*
X136354568Y-47557766D01*
X136224047Y-47371361D01*
X136224045Y-47371358D01*
X136063141Y-47210454D01*
X135876734Y-47079932D01*
X135876732Y-47079931D01*
X135670497Y-46983761D01*
X135670488Y-46983758D01*
X135450697Y-46924866D01*
X135450693Y-46924865D01*
X135450692Y-46924865D01*
X135450691Y-46924864D01*
X135450686Y-46924864D01*
X135224002Y-46905032D01*
X135223998Y-46905032D01*
X134997313Y-46924864D01*
X134997302Y-46924866D01*
X134777511Y-46983758D01*
X134777502Y-46983761D01*
X134571267Y-47079931D01*
X134571265Y-47079932D01*
X134384858Y-47210454D01*
X134223954Y-47371358D01*
X134093432Y-47557765D01*
X134093431Y-47557767D01*
X133997261Y-47764002D01*
X133997258Y-47764011D01*
X133938366Y-47983802D01*
X133938364Y-47983813D01*
X133918532Y-48210498D01*
X133918532Y-48210501D01*
X133938364Y-48437186D01*
X133938366Y-48437197D01*
X133997258Y-48656988D01*
X133997261Y-48656997D01*
X134093431Y-48863232D01*
X134093432Y-48863234D01*
X134223954Y-49049641D01*
X134384858Y-49210545D01*
X134384861Y-49210547D01*
X134570624Y-49340618D01*
X134614248Y-49395193D01*
X134623500Y-49442192D01*
X134623500Y-51528830D01*
X134623499Y-51528848D01*
X134623499Y-51694554D01*
X134623498Y-51694554D01*
X134664423Y-51847285D01*
X134693358Y-51897400D01*
X134693359Y-51897404D01*
X134693360Y-51897404D01*
X134739455Y-51977245D01*
X134743479Y-51984214D01*
X134743481Y-51984217D01*
X134862349Y-52103085D01*
X134862355Y-52103090D01*
X136293537Y-53534272D01*
X136327022Y-53595595D01*
X136329214Y-53634555D01*
X136323500Y-53690481D01*
X136323500Y-54290501D01*
X136323501Y-54290519D01*
X136334000Y-54393296D01*
X136334001Y-54393299D01*
X136369602Y-54500734D01*
X136389186Y-54559834D01*
X136481288Y-54709156D01*
X136605344Y-54833212D01*
X136754666Y-54925314D01*
X136921203Y-54980499D01*
X137023991Y-54991000D01*
X138174008Y-54990999D01*
X138276797Y-54980499D01*
X138443334Y-54925314D01*
X138592656Y-54833212D01*
X138716712Y-54709156D01*
X138753259Y-54649902D01*
X138805207Y-54603179D01*
X138858798Y-54591000D01*
X141589202Y-54591000D01*
X141656241Y-54610685D01*
X141694739Y-54649901D01*
X141731288Y-54709156D01*
X141855344Y-54833212D01*
X142004666Y-54925314D01*
X142126580Y-54965712D01*
X142163504Y-54977948D01*
X142220949Y-55017721D01*
X142247772Y-55082237D01*
X142248500Y-55095654D01*
X142248500Y-56085345D01*
X142228815Y-56152384D01*
X142176011Y-56198139D01*
X142163505Y-56203051D01*
X142004666Y-56255686D01*
X142004663Y-56255687D01*
X141855342Y-56347789D01*
X141731289Y-56471842D01*
X141731288Y-56471844D01*
X141703121Y-56517511D01*
X141694741Y-56531097D01*
X141642793Y-56577821D01*
X141589202Y-56590000D01*
X138858798Y-56590000D01*
X138791759Y-56570315D01*
X138753259Y-56531097D01*
X138716712Y-56471844D01*
X138592656Y-56347788D01*
X138443334Y-56255686D01*
X138276797Y-56200501D01*
X138276795Y-56200500D01*
X138174010Y-56190000D01*
X137023998Y-56190000D01*
X137023981Y-56190001D01*
X136921203Y-56200500D01*
X136921200Y-56200501D01*
X136754668Y-56255685D01*
X136754663Y-56255687D01*
X136605342Y-56347789D01*
X136481289Y-56471842D01*
X136481288Y-56471844D01*
X136453121Y-56517511D01*
X136444741Y-56531097D01*
X136392793Y-56577821D01*
X136339202Y-56590000D01*
X129898500Y-56590000D01*
X129831461Y-56570315D01*
X129785706Y-56517511D01*
X129774500Y-56466000D01*
X129774499Y-56067629D01*
X129774499Y-56067628D01*
X129768091Y-56008017D01*
X129768089Y-56008013D01*
X129767632Y-56003755D01*
X129767632Y-55977245D01*
X129768089Y-55972986D01*
X129768091Y-55972983D01*
X129774500Y-55913373D01*
X129774499Y-55267628D01*
X129768091Y-55208017D01*
X129768089Y-55208013D01*
X129767632Y-55203755D01*
X129767632Y-55177245D01*
X129768089Y-55172986D01*
X129768091Y-55172983D01*
X129774500Y-55113373D01*
X129774499Y-54467628D01*
X129768091Y-54408017D01*
X129768089Y-54408013D01*
X129767632Y-54403755D01*
X129767632Y-54377245D01*
X129768089Y-54372986D01*
X129768091Y-54372983D01*
X129774500Y-54313373D01*
X129774499Y-53667628D01*
X129768091Y-53608017D01*
X129768089Y-53608013D01*
X129767632Y-53603755D01*
X129767632Y-53577245D01*
X129768089Y-53572986D01*
X129768091Y-53572983D01*
X129774500Y-53513373D01*
X129774499Y-52867628D01*
X129768091Y-52808017D01*
X129768089Y-52808013D01*
X129767632Y-52803755D01*
X129767632Y-52777245D01*
X129768089Y-52772986D01*
X129768091Y-52772983D01*
X129774500Y-52713373D01*
X129774499Y-52067628D01*
X129768091Y-52008017D01*
X129768089Y-52008013D01*
X129767632Y-52003755D01*
X129767632Y-51977245D01*
X129768089Y-51972986D01*
X129768091Y-51972983D01*
X129774500Y-51913373D01*
X129774499Y-51267628D01*
X129768091Y-51208017D01*
X129747274Y-51152205D01*
X129717797Y-51073171D01*
X129717793Y-51073164D01*
X129631547Y-50957955D01*
X129631544Y-50957952D01*
X129516335Y-50871706D01*
X129516328Y-50871702D01*
X129381482Y-50821408D01*
X129381483Y-50821408D01*
X129321883Y-50815001D01*
X129321881Y-50815000D01*
X129321873Y-50815000D01*
X129321865Y-50815000D01*
X127723499Y-50815000D01*
X127656460Y-50795315D01*
X127610705Y-50742511D01*
X127599499Y-50691000D01*
X127599499Y-50688382D01*
X127599500Y-50688373D01*
X127599499Y-49092628D01*
X127593091Y-49033017D01*
X127542796Y-48898169D01*
X127542795Y-48898168D01*
X127542793Y-48898164D01*
X127456547Y-48782955D01*
X127456544Y-48782952D01*
X127341335Y-48696706D01*
X127341328Y-48696702D01*
X127206486Y-48646410D01*
X127206485Y-48646409D01*
X127206483Y-48646409D01*
X127146873Y-48640000D01*
X127146863Y-48640000D01*
X126501129Y-48640000D01*
X126501120Y-48640001D01*
X126437248Y-48646867D01*
X126410742Y-48646867D01*
X126406483Y-48646409D01*
X126346873Y-48640000D01*
X126346867Y-48640000D01*
X125998500Y-48640000D01*
X125931461Y-48620315D01*
X125885706Y-48567511D01*
X125874500Y-48516000D01*
X125874500Y-47935308D01*
X125894185Y-47868269D01*
X125910819Y-47847627D01*
X126103273Y-47655173D01*
X126103277Y-47655169D01*
X126174465Y-47548627D01*
X126223501Y-47430244D01*
X126227033Y-47412487D01*
X126248500Y-47304569D01*
X126248500Y-46850999D01*
X126268185Y-46783960D01*
X126320989Y-46738205D01*
X126372500Y-46726999D01*
X126645871Y-46726999D01*
X126645872Y-46726999D01*
X126705483Y-46720591D01*
X126840331Y-46670296D01*
X126955546Y-46584046D01*
X127041796Y-46468831D01*
X127092091Y-46333983D01*
X127098500Y-46274373D01*
X127098499Y-44497307D01*
X127118184Y-44430269D01*
X127134818Y-44409627D01*
X128317272Y-43227174D01*
X128317273Y-43227173D01*
X128317273Y-43227172D01*
X128317277Y-43227169D01*
X128388465Y-43120627D01*
X128437501Y-43002244D01*
X128449558Y-42941633D01*
X128462500Y-42876571D01*
X128462500Y-40635182D01*
X128482185Y-40568143D01*
X128515371Y-40533611D01*
X128651139Y-40438547D01*
X128812047Y-40277639D01*
X128942568Y-40091234D01*
X129038739Y-39884996D01*
X129097635Y-39665192D01*
X129117468Y-39438500D01*
X129113968Y-39398500D01*
X129097635Y-39211813D01*
X129097635Y-39211808D01*
X129038739Y-38992004D01*
X128942568Y-38785766D01*
X128812047Y-38599361D01*
X128812045Y-38599358D01*
X128651141Y-38438454D01*
X128464734Y-38307932D01*
X128464732Y-38307931D01*
X128258497Y-38211761D01*
X128258488Y-38211758D01*
X128038697Y-38152866D01*
X128038693Y-38152865D01*
X128038692Y-38152865D01*
X128038691Y-38152864D01*
X128038686Y-38152864D01*
X127812002Y-38133032D01*
X127811998Y-38133032D01*
X127585313Y-38152864D01*
X127585302Y-38152866D01*
X127365511Y-38211758D01*
X127365502Y-38211761D01*
X127159267Y-38307931D01*
X127159265Y-38307932D01*
X126972858Y-38438454D01*
X126811954Y-38599358D01*
X126681432Y-38785765D01*
X126681431Y-38785767D01*
X126585261Y-38992002D01*
X126585258Y-38992011D01*
X126526366Y-39211802D01*
X126526364Y-39211813D01*
X126506532Y-39438498D01*
X126506532Y-39438501D01*
X126526364Y-39665186D01*
X126526366Y-39665197D01*
X126585258Y-39884988D01*
X126585261Y-39884997D01*
X126681431Y-40091232D01*
X126681432Y-40091234D01*
X126811954Y-40277641D01*
X126972855Y-40438542D01*
X126972858Y-40438544D01*
X126972861Y-40438547D01*
X127108626Y-40533609D01*
X127152248Y-40588183D01*
X127161500Y-40635182D01*
X127161500Y-42491691D01*
X127141815Y-42558730D01*
X127125181Y-42579372D01*
X126414872Y-43289681D01*
X126353549Y-43323166D01*
X126327191Y-43326000D01*
X124550129Y-43326000D01*
X124550123Y-43326001D01*
X124490516Y-43332408D01*
X124355671Y-43382702D01*
X124355664Y-43382706D01*
X124240455Y-43468952D01*
X124240452Y-43468955D01*
X124154206Y-43584164D01*
X124154202Y-43584171D01*
X124103908Y-43719017D01*
X124097501Y-43778616D01*
X124097501Y-43778623D01*
X124097500Y-43778635D01*
X124097500Y-46006692D01*
X124077815Y-46073731D01*
X124025011Y-46119486D01*
X123955853Y-46129430D01*
X123892297Y-46100405D01*
X123885819Y-46094373D01*
X123434818Y-45643372D01*
X123401333Y-45582049D01*
X123398499Y-45555691D01*
X123398499Y-43778629D01*
X123398498Y-43778623D01*
X123398497Y-43778616D01*
X123392091Y-43719017D01*
X123341796Y-43584169D01*
X123341795Y-43584168D01*
X123341793Y-43584164D01*
X123255547Y-43468955D01*
X123255544Y-43468952D01*
X123140335Y-43382706D01*
X123140328Y-43382702D01*
X123005482Y-43332408D01*
X123005483Y-43332408D01*
X122945883Y-43326001D01*
X122945881Y-43326000D01*
X122945873Y-43326000D01*
X122945865Y-43326000D01*
X121168808Y-43326000D01*
X121101769Y-43306315D01*
X121081127Y-43289681D01*
X120878819Y-43087373D01*
X120845334Y-43026050D01*
X120842500Y-42999692D01*
X120842500Y-40595182D01*
X120862185Y-40528143D01*
X120895371Y-40493611D01*
X121031139Y-40398547D01*
X121192047Y-40237639D01*
X121322568Y-40051234D01*
X121418739Y-39844996D01*
X121477635Y-39625192D01*
X121497468Y-39398500D01*
X121477635Y-39171808D01*
X121418739Y-38952004D01*
X121322568Y-38745766D01*
X121192047Y-38559361D01*
X121192045Y-38559358D01*
X121031141Y-38398454D01*
X120844734Y-38267932D01*
X120844732Y-38267931D01*
X120638497Y-38171761D01*
X120638488Y-38171758D01*
X120418697Y-38112866D01*
X120418693Y-38112865D01*
X120418692Y-38112865D01*
X120418691Y-38112864D01*
X120418686Y-38112864D01*
X120192002Y-38093032D01*
X120191998Y-38093032D01*
X119965313Y-38112864D01*
X119965302Y-38112866D01*
X119745511Y-38171758D01*
X119745502Y-38171761D01*
X119539267Y-38267931D01*
X119539265Y-38267932D01*
X119352858Y-38398454D01*
X119191954Y-38559358D01*
X119061432Y-38745765D01*
X119061431Y-38745767D01*
X118965261Y-38952002D01*
X118965258Y-38952011D01*
X118906366Y-39171802D01*
X118906364Y-39171813D01*
X118886532Y-39398498D01*
X118886532Y-39398501D01*
X118906364Y-39625186D01*
X118906366Y-39625197D01*
X118965258Y-39844988D01*
X118965261Y-39844997D01*
X119061431Y-40051232D01*
X119061432Y-40051234D01*
X119191954Y-40237641D01*
X119352855Y-40398542D01*
X119352858Y-40398544D01*
X119352861Y-40398547D01*
X119488626Y-40493609D01*
X119532248Y-40548183D01*
X119541500Y-40595182D01*
X119541500Y-43384570D01*
X119546388Y-43409141D01*
X119558286Y-43468954D01*
X119566499Y-43510244D01*
X119615534Y-43628625D01*
X119686726Y-43735173D01*
X119686727Y-43735174D01*
X120361181Y-44409627D01*
X120394666Y-44470950D01*
X120397500Y-44497308D01*
X120397500Y-46274370D01*
X120397501Y-46274376D01*
X120403908Y-46333983D01*
X120454202Y-46468828D01*
X120454206Y-46468835D01*
X120540452Y-46584044D01*
X120540455Y-46584047D01*
X120655664Y-46670293D01*
X120655671Y-46670297D01*
X120790517Y-46720591D01*
X120790516Y-46720591D01*
X120797444Y-46721335D01*
X120850127Y-46727000D01*
X122627191Y-46726999D01*
X122694230Y-46746684D01*
X122714872Y-46763318D01*
X123737181Y-47785627D01*
X123770666Y-47846950D01*
X123773500Y-47873308D01*
X123773500Y-48765665D01*
X123753815Y-48832704D01*
X123748767Y-48839976D01*
X123705204Y-48898168D01*
X123705202Y-48898171D01*
X123654908Y-49033017D01*
X123648501Y-49092616D01*
X123648501Y-49092623D01*
X123648500Y-49092635D01*
X123648500Y-50688370D01*
X123648501Y-50688376D01*
X123654908Y-50747983D01*
X123705202Y-50882828D01*
X123705203Y-50882829D01*
X123705204Y-50882831D01*
X123748329Y-50940438D01*
X123791454Y-50998047D01*
X123824309Y-51022641D01*
X123866181Y-51078574D01*
X123874000Y-51121909D01*
X123874000Y-51140500D01*
X123946828Y-51140500D01*
X123946839Y-51140499D01*
X124008395Y-51133880D01*
X124034909Y-51133880D01*
X124041514Y-51134590D01*
X124041517Y-51134591D01*
X124101127Y-51141000D01*
X124746872Y-51140999D01*
X124806483Y-51134591D01*
X124806486Y-51134589D01*
X124810744Y-51134132D01*
X124837254Y-51134132D01*
X124841514Y-51134589D01*
X124841517Y-51134591D01*
X124901127Y-51141000D01*
X125546872Y-51140999D01*
X125606483Y-51134591D01*
X125606486Y-51134589D01*
X125610744Y-51134132D01*
X125637254Y-51134132D01*
X125641514Y-51134589D01*
X125641517Y-51134591D01*
X125701127Y-51141000D01*
X126346872Y-51140999D01*
X126406483Y-51134591D01*
X126406486Y-51134589D01*
X126410744Y-51134132D01*
X126437254Y-51134132D01*
X126441514Y-51134589D01*
X126441517Y-51134591D01*
X126501127Y-51141000D01*
X127146872Y-51140999D01*
X127149500Y-51140999D01*
X127216539Y-51160683D01*
X127262294Y-51213487D01*
X127273500Y-51264999D01*
X127273500Y-51913370D01*
X127273501Y-51913379D01*
X127280367Y-51977251D01*
X127280367Y-52003757D01*
X127279909Y-52008016D01*
X127279909Y-52008017D01*
X127273500Y-52067627D01*
X127273500Y-52067629D01*
X127273500Y-52067633D01*
X127273500Y-52713370D01*
X127273501Y-52713379D01*
X127280367Y-52777251D01*
X127280367Y-52803757D01*
X127279909Y-52808016D01*
X127279909Y-52808017D01*
X127273500Y-52867627D01*
X127273500Y-52867629D01*
X127273500Y-52867633D01*
X127273500Y-53513370D01*
X127273501Y-53513379D01*
X127280367Y-53577251D01*
X127280367Y-53603757D01*
X127279909Y-53608016D01*
X127279909Y-53608017D01*
X127273500Y-53667627D01*
X127273500Y-53667629D01*
X127273500Y-53667633D01*
X127273500Y-54313370D01*
X127273501Y-54313379D01*
X127280367Y-54377251D01*
X127280367Y-54403757D01*
X127279909Y-54408016D01*
X127279909Y-54408017D01*
X127273500Y-54467627D01*
X127273500Y-54467629D01*
X127273500Y-54467633D01*
X127273500Y-55113370D01*
X127273501Y-55113379D01*
X127280367Y-55177251D01*
X127280367Y-55203757D01*
X127279909Y-55208016D01*
X127279909Y-55208017D01*
X127273500Y-55267627D01*
X127273500Y-55267629D01*
X127273500Y-55267633D01*
X127273500Y-55913370D01*
X127273501Y-55913379D01*
X127280367Y-55977251D01*
X127280367Y-56003757D01*
X127279909Y-56008016D01*
X127279909Y-56008017D01*
X127273500Y-56067627D01*
X127273500Y-56067629D01*
X127273500Y-56067633D01*
X127273500Y-56713370D01*
X127273501Y-56713379D01*
X127280367Y-56777251D01*
X127280367Y-56803757D01*
X127279909Y-56808016D01*
X127279909Y-56808017D01*
X127273500Y-56867627D01*
X127273500Y-56867629D01*
X127273500Y-56867633D01*
X127273500Y-57513370D01*
X127273501Y-57513379D01*
X127280367Y-57577251D01*
X127280367Y-57603757D01*
X127279909Y-57608016D01*
X127279909Y-57608017D01*
X127273500Y-57667627D01*
X127273500Y-57667629D01*
X127273500Y-57667633D01*
X127273500Y-58313370D01*
X127273501Y-58313379D01*
X127280367Y-58377251D01*
X127280367Y-58403757D01*
X127279909Y-58408016D01*
X127279909Y-58408017D01*
X127273500Y-58467627D01*
X127273500Y-58467629D01*
X127273500Y-58467633D01*
X127273500Y-59113370D01*
X127273501Y-59113379D01*
X127280367Y-59177251D01*
X127280367Y-59203757D01*
X127279909Y-59208016D01*
X127279909Y-59208017D01*
X127273500Y-59267627D01*
X127273500Y-59267629D01*
X127273500Y-59267633D01*
X127273500Y-59916000D01*
X127253815Y-59983039D01*
X127201011Y-60028794D01*
X127149500Y-60040000D01*
X126501129Y-60040000D01*
X126501120Y-60040001D01*
X126437248Y-60046867D01*
X126410742Y-60046867D01*
X126406483Y-60046409D01*
X126346873Y-60040000D01*
X126346864Y-60040000D01*
X125701129Y-60040000D01*
X125701120Y-60040001D01*
X125637248Y-60046867D01*
X125610742Y-60046867D01*
X125606483Y-60046409D01*
X125546873Y-60040000D01*
X125546864Y-60040000D01*
X124901129Y-60040000D01*
X124901120Y-60040001D01*
X124837248Y-60046867D01*
X124810742Y-60046867D01*
X124806483Y-60046409D01*
X124746873Y-60040000D01*
X124746864Y-60040000D01*
X124101129Y-60040000D01*
X124101120Y-60040001D01*
X124037248Y-60046867D01*
X124010742Y-60046867D01*
X124006483Y-60046409D01*
X123946873Y-60040000D01*
X123946864Y-60040000D01*
X123301129Y-60040000D01*
X123301120Y-60040001D01*
X123237248Y-60046867D01*
X123210742Y-60046867D01*
X123206483Y-60046409D01*
X123146873Y-60040000D01*
X123146864Y-60040000D01*
X122501129Y-60040000D01*
X122501120Y-60040001D01*
X122437248Y-60046867D01*
X122410742Y-60046867D01*
X122406483Y-60046409D01*
X122346873Y-60040000D01*
X122346864Y-60040000D01*
X121701129Y-60040000D01*
X121701120Y-60040001D01*
X121637248Y-60046867D01*
X121610742Y-60046867D01*
X121606483Y-60046409D01*
X121546873Y-60040000D01*
X121546864Y-60040000D01*
X120901129Y-60040000D01*
X120901120Y-60040001D01*
X120837248Y-60046867D01*
X120810742Y-60046867D01*
X120806483Y-60046409D01*
X120746873Y-60040000D01*
X120746864Y-60040000D01*
X120101129Y-60040000D01*
X120101120Y-60040001D01*
X120037248Y-60046867D01*
X120010742Y-60046867D01*
X120006483Y-60046409D01*
X119946873Y-60040000D01*
X119946864Y-60040000D01*
X119301129Y-60040000D01*
X119301120Y-60040001D01*
X119237248Y-60046867D01*
X119210742Y-60046867D01*
X119206483Y-60046409D01*
X119146873Y-60040000D01*
X119146866Y-60040000D01*
X118498499Y-60040000D01*
X118431460Y-60020315D01*
X118385705Y-59967511D01*
X118374499Y-59916000D01*
X118374499Y-59913382D01*
X118374500Y-59913373D01*
X118374499Y-59267628D01*
X118368091Y-59208017D01*
X118368089Y-59208013D01*
X118367632Y-59203755D01*
X118367632Y-59177245D01*
X118368089Y-59172986D01*
X118368091Y-59172983D01*
X118374500Y-59113373D01*
X118374499Y-58467628D01*
X118368091Y-58408017D01*
X118368089Y-58408013D01*
X118367632Y-58403755D01*
X118367632Y-58377245D01*
X118368089Y-58372986D01*
X118368091Y-58372983D01*
X118374500Y-58313373D01*
X118374499Y-57667628D01*
X118368091Y-57608017D01*
X118368089Y-57608013D01*
X118367632Y-57603755D01*
X118367632Y-57577245D01*
X118368089Y-57572986D01*
X118368091Y-57572983D01*
X118374500Y-57513373D01*
X118374499Y-56867628D01*
X118368091Y-56808017D01*
X118368089Y-56808013D01*
X118367632Y-56803755D01*
X118367632Y-56777245D01*
X118368089Y-56772986D01*
X118368091Y-56772983D01*
X118374500Y-56713373D01*
X118374499Y-56067628D01*
X118368091Y-56008017D01*
X118368089Y-56008013D01*
X118367632Y-56003755D01*
X118367632Y-55977245D01*
X118368089Y-55972986D01*
X118368091Y-55972983D01*
X118374500Y-55913373D01*
X118374499Y-55267628D01*
X118368091Y-55208017D01*
X118368089Y-55208013D01*
X118367632Y-55203755D01*
X118367632Y-55177245D01*
X118368089Y-55172986D01*
X118368091Y-55172983D01*
X118374500Y-55113373D01*
X118374499Y-54467628D01*
X118368091Y-54408017D01*
X118368089Y-54408013D01*
X118367632Y-54403755D01*
X118367632Y-54377245D01*
X118368089Y-54372986D01*
X118368091Y-54372983D01*
X118374500Y-54313373D01*
X118374499Y-53667628D01*
X118368091Y-53608017D01*
X118368089Y-53608013D01*
X118367632Y-53603755D01*
X118367632Y-53577245D01*
X118368089Y-53572986D01*
X118368091Y-53572983D01*
X118374500Y-53513373D01*
X118374499Y-52867628D01*
X118368091Y-52808017D01*
X118368089Y-52808013D01*
X118367632Y-52803755D01*
X118367632Y-52777245D01*
X118368089Y-52772986D01*
X118368091Y-52772983D01*
X118374500Y-52713373D01*
X118374499Y-52067628D01*
X118368091Y-52008017D01*
X118368089Y-52008013D01*
X118367632Y-52003755D01*
X118367632Y-51977245D01*
X118368089Y-51972986D01*
X118368091Y-51972983D01*
X118374500Y-51913373D01*
X118374499Y-51267628D01*
X118374499Y-51267627D01*
X118374499Y-51264999D01*
X118394183Y-51197960D01*
X118446987Y-51152205D01*
X118498499Y-51140999D01*
X118501118Y-51140999D01*
X118501127Y-51141000D01*
X119146872Y-51140999D01*
X119206483Y-51134591D01*
X119206486Y-51134589D01*
X119210744Y-51134132D01*
X119237254Y-51134132D01*
X119241514Y-51134589D01*
X119241517Y-51134591D01*
X119301127Y-51141000D01*
X119946872Y-51140999D01*
X120006483Y-51134591D01*
X120006486Y-51134589D01*
X120010744Y-51134132D01*
X120037254Y-51134132D01*
X120041514Y-51134589D01*
X120041517Y-51134591D01*
X120101127Y-51141000D01*
X120746872Y-51140999D01*
X120806483Y-51134591D01*
X120806486Y-51134589D01*
X120810744Y-51134132D01*
X120837254Y-51134132D01*
X120841514Y-51134589D01*
X120841517Y-51134591D01*
X120901127Y-51141000D01*
X121546872Y-51140999D01*
X121606483Y-51134591D01*
X121606486Y-51134589D01*
X121610744Y-51134132D01*
X121637254Y-51134132D01*
X121641514Y-51134589D01*
X121641517Y-51134591D01*
X121701127Y-51141000D01*
X122346872Y-51140999D01*
X122406483Y-51134591D01*
X122406483Y-51134590D01*
X122413096Y-51133880D01*
X122439607Y-51133881D01*
X122501157Y-51140499D01*
X122501172Y-51140500D01*
X122574000Y-51140500D01*
X123074000Y-51140500D01*
X123146828Y-51140500D01*
X123146841Y-51140499D01*
X123210743Y-51133628D01*
X123237257Y-51133628D01*
X123301158Y-51140499D01*
X123301172Y-51140500D01*
X123374000Y-51140500D01*
X123374000Y-50140500D01*
X123074000Y-50140500D01*
X123074000Y-51140500D01*
X122574000Y-51140500D01*
X122574000Y-51121909D01*
X122593685Y-51054870D01*
X122623691Y-51022641D01*
X122656545Y-50998047D01*
X122656546Y-50998046D01*
X122742796Y-50882831D01*
X122793091Y-50747983D01*
X122799500Y-50688373D01*
X122799499Y-49640500D01*
X123074000Y-49640500D01*
X123374000Y-49640500D01*
X123374000Y-48640500D01*
X123301172Y-48640500D01*
X123301153Y-48640501D01*
X123237255Y-48647371D01*
X123210745Y-48647371D01*
X123146846Y-48640501D01*
X123146828Y-48640500D01*
X123074000Y-48640500D01*
X123074000Y-49640500D01*
X122799499Y-49640500D01*
X122799499Y-49092628D01*
X122793091Y-49033017D01*
X122742796Y-48898169D01*
X122742795Y-48898168D01*
X122742793Y-48898164D01*
X122656548Y-48782956D01*
X122656546Y-48782955D01*
X122656546Y-48782954D01*
X122623686Y-48758355D01*
X122581817Y-48702421D01*
X122574000Y-48659090D01*
X122574000Y-48640500D01*
X122501166Y-48640500D01*
X122439595Y-48647119D01*
X122413088Y-48647119D01*
X122403818Y-48646122D01*
X122346873Y-48640000D01*
X122346865Y-48640000D01*
X121701129Y-48640000D01*
X121701120Y-48640001D01*
X121637248Y-48646867D01*
X121610742Y-48646867D01*
X121606483Y-48646409D01*
X121546873Y-48640000D01*
X121546864Y-48640000D01*
X120901129Y-48640000D01*
X120901120Y-48640001D01*
X120837248Y-48646867D01*
X120810742Y-48646867D01*
X120806483Y-48646409D01*
X120746873Y-48640000D01*
X120746864Y-48640000D01*
X120101129Y-48640000D01*
X120101120Y-48640001D01*
X120037248Y-48646867D01*
X120010742Y-48646867D01*
X120006483Y-48646409D01*
X119946873Y-48640000D01*
X119946864Y-48640000D01*
X119301129Y-48640000D01*
X119301120Y-48640001D01*
X119237248Y-48646867D01*
X119210742Y-48646867D01*
X119206483Y-48646409D01*
X119146873Y-48640000D01*
X119146864Y-48640000D01*
X118501129Y-48640000D01*
X118501123Y-48640001D01*
X118441516Y-48646408D01*
X118306671Y-48696702D01*
X118306664Y-48696706D01*
X118191455Y-48782952D01*
X118191452Y-48782955D01*
X118105206Y-48898164D01*
X118105202Y-48898171D01*
X118054908Y-49033017D01*
X118048501Y-49092616D01*
X118048501Y-49092623D01*
X118048500Y-49092635D01*
X118048500Y-50691000D01*
X118028815Y-50758039D01*
X117976011Y-50803794D01*
X117924500Y-50815000D01*
X116326129Y-50815000D01*
X116326123Y-50815001D01*
X116266516Y-50821408D01*
X116131671Y-50871702D01*
X116131664Y-50871706D01*
X116016455Y-50957952D01*
X116016452Y-50957955D01*
X115930206Y-51073164D01*
X115930202Y-51073171D01*
X115879910Y-51208013D01*
X115879909Y-51208017D01*
X115873500Y-51267627D01*
X115873500Y-51267634D01*
X115873500Y-51267635D01*
X115873500Y-51913370D01*
X115873501Y-51913379D01*
X115880367Y-51977251D01*
X115880367Y-52003757D01*
X115879909Y-52008016D01*
X115879909Y-52008017D01*
X115873500Y-52067627D01*
X115873500Y-52067629D01*
X115873500Y-52067633D01*
X115873500Y-52713370D01*
X115873501Y-52713379D01*
X115880367Y-52777251D01*
X115880367Y-52803757D01*
X115879909Y-52808016D01*
X115879909Y-52808017D01*
X115873500Y-52867627D01*
X115873500Y-52867629D01*
X115873500Y-52867633D01*
X115873500Y-53513370D01*
X115873501Y-53513379D01*
X115880367Y-53577251D01*
X115880367Y-53603757D01*
X115879909Y-53608016D01*
X115879909Y-53608017D01*
X115873500Y-53667627D01*
X115873500Y-53667629D01*
X115873500Y-53667633D01*
X115873500Y-54313370D01*
X115873501Y-54313379D01*
X115880367Y-54377251D01*
X115880367Y-54403757D01*
X115879909Y-54408016D01*
X115879909Y-54408017D01*
X115873500Y-54467627D01*
X115873500Y-54467629D01*
X115873500Y-54467633D01*
X115873500Y-55113370D01*
X115873501Y-55113379D01*
X115880367Y-55177251D01*
X115880367Y-55203757D01*
X115879909Y-55208016D01*
X115879909Y-55208017D01*
X115873500Y-55267627D01*
X115873500Y-55267629D01*
X115873500Y-55267633D01*
X115873500Y-55913370D01*
X115873501Y-55913379D01*
X115880367Y-55977251D01*
X115880367Y-56003757D01*
X115879909Y-56008016D01*
X115879909Y-56008017D01*
X115873500Y-56067627D01*
X115873500Y-56067629D01*
X115873500Y-56067633D01*
X115873500Y-56713370D01*
X115873501Y-56713379D01*
X115880367Y-56777251D01*
X115880367Y-56803757D01*
X115879909Y-56808016D01*
X115879909Y-56808017D01*
X115873500Y-56867627D01*
X115873500Y-56867629D01*
X115873500Y-56867633D01*
X115873500Y-57513370D01*
X115873501Y-57513379D01*
X115880367Y-57577251D01*
X115880367Y-57603757D01*
X115879909Y-57608016D01*
X115879909Y-57608017D01*
X115873500Y-57667627D01*
X115873500Y-57667629D01*
X115873500Y-57667633D01*
X115873500Y-58313370D01*
X115873501Y-58313379D01*
X115880367Y-58377251D01*
X115880367Y-58403757D01*
X115879909Y-58408016D01*
X115879909Y-58408017D01*
X115873500Y-58467627D01*
X115873500Y-58467629D01*
X115873500Y-58467633D01*
X115873500Y-59113370D01*
X115873501Y-59113379D01*
X115880367Y-59177251D01*
X115880367Y-59203757D01*
X115879909Y-59208016D01*
X115879909Y-59208017D01*
X115873500Y-59267627D01*
X115873500Y-59267629D01*
X115873500Y-59267633D01*
X115873500Y-59913370D01*
X115873501Y-59913376D01*
X115879908Y-59972983D01*
X115930202Y-60107828D01*
X115930206Y-60107835D01*
X116016452Y-60223044D01*
X116016455Y-60223047D01*
X116131664Y-60309293D01*
X116131671Y-60309297D01*
X116266517Y-60359591D01*
X116266516Y-60359591D01*
X116273444Y-60360335D01*
X116326127Y-60366000D01*
X117921872Y-60365999D01*
X117924500Y-60365999D01*
X117991539Y-60385684D01*
X118037294Y-60438487D01*
X118048500Y-60489999D01*
X118048500Y-62088370D01*
X118048501Y-62088376D01*
X118054908Y-62147983D01*
X118105202Y-62282828D01*
X118105206Y-62282835D01*
X118191452Y-62398044D01*
X118191455Y-62398047D01*
X118306664Y-62484293D01*
X118306671Y-62484297D01*
X118344942Y-62498571D01*
X118441517Y-62534591D01*
X118501127Y-62541000D01*
X119146872Y-62540999D01*
X119206483Y-62534591D01*
X119206486Y-62534589D01*
X119210744Y-62534132D01*
X119237254Y-62534132D01*
X119241514Y-62534589D01*
X119241517Y-62534591D01*
X119301127Y-62541000D01*
X119698403Y-62540999D01*
X119765442Y-62560683D01*
X119811197Y-62613487D01*
X119821141Y-62682646D01*
X119792116Y-62746201D01*
X119786084Y-62752680D01*
X112202705Y-70336058D01*
X112141382Y-70369543D01*
X112082931Y-70368152D01*
X111986697Y-70342366D01*
X111986693Y-70342365D01*
X111986692Y-70342365D01*
X111986691Y-70342364D01*
X111986686Y-70342364D01*
X111760002Y-70322532D01*
X111759998Y-70322532D01*
X111533313Y-70342364D01*
X111533302Y-70342366D01*
X111313511Y-70401258D01*
X111313502Y-70401261D01*
X111107267Y-70497431D01*
X111107265Y-70497432D01*
X110920858Y-70627954D01*
X110759954Y-70788858D01*
X110629432Y-70975265D01*
X110629431Y-70975267D01*
X110533261Y-71181502D01*
X110533258Y-71181511D01*
X110474366Y-71401302D01*
X110474364Y-71401313D01*
X110454532Y-71627998D01*
X110454532Y-71628001D01*
X110474364Y-71854686D01*
X110474366Y-71854697D01*
X110533258Y-72074488D01*
X110533261Y-72074497D01*
X110629431Y-72280732D01*
X110629432Y-72280734D01*
X110759954Y-72467141D01*
X110920858Y-72628045D01*
X110920861Y-72628047D01*
X111107266Y-72758568D01*
X111313504Y-72854739D01*
X111533308Y-72913635D01*
X111695230Y-72927801D01*
X111759998Y-72933468D01*
X111760000Y-72933468D01*
X111760002Y-72933468D01*
X111816673Y-72928509D01*
X111986692Y-72913635D01*
X112206496Y-72854739D01*
X112412734Y-72758568D01*
X112599139Y-72628047D01*
X112760047Y-72467139D01*
X112890568Y-72280734D01*
X112986739Y-72074496D01*
X113045635Y-71854692D01*
X113065468Y-71628000D01*
X113045635Y-71401308D01*
X113019847Y-71305066D01*
X113021510Y-71235217D01*
X113051939Y-71185294D01*
X120411821Y-63825413D01*
X120473142Y-63791930D01*
X120542834Y-63796914D01*
X120598767Y-63838786D01*
X120623184Y-63904250D01*
X120623500Y-63913096D01*
X120623500Y-65927902D01*
X120603815Y-65994941D01*
X120587181Y-66015583D01*
X112202705Y-74400058D01*
X112141382Y-74433543D01*
X112082931Y-74432152D01*
X111986697Y-74406366D01*
X111986693Y-74406365D01*
X111986692Y-74406365D01*
X111986691Y-74406364D01*
X111986686Y-74406364D01*
X111760002Y-74386532D01*
X111759998Y-74386532D01*
X111533313Y-74406364D01*
X111533302Y-74406366D01*
X111313511Y-74465258D01*
X111313502Y-74465261D01*
X111107267Y-74561431D01*
X111107265Y-74561432D01*
X110920858Y-74691954D01*
X110759954Y-74852858D01*
X110629432Y-75039265D01*
X110629431Y-75039267D01*
X110533261Y-75245502D01*
X110533258Y-75245511D01*
X110474366Y-75465302D01*
X110474364Y-75465313D01*
X110454532Y-75691998D01*
X110454532Y-75692001D01*
X110474364Y-75918686D01*
X110474366Y-75918697D01*
X110533258Y-76138488D01*
X110533261Y-76138497D01*
X110629431Y-76344732D01*
X110629432Y-76344734D01*
X110759954Y-76531141D01*
X110920858Y-76692045D01*
X110920861Y-76692047D01*
X111107266Y-76822568D01*
X111313504Y-76918739D01*
X111533308Y-76977635D01*
X111695230Y-76991801D01*
X111759998Y-76997468D01*
X111760000Y-76997468D01*
X111760002Y-76997468D01*
X111816673Y-76992509D01*
X111986692Y-76977635D01*
X112206496Y-76918739D01*
X112412734Y-76822568D01*
X112599139Y-76692047D01*
X112760047Y-76531139D01*
X112890568Y-76344734D01*
X112986739Y-76138496D01*
X113045635Y-75918692D01*
X113065468Y-75692000D01*
X113045635Y-75465308D01*
X113019847Y-75369066D01*
X113021510Y-75299217D01*
X113051939Y-75249294D01*
X121582506Y-66718728D01*
X121582511Y-66718724D01*
X121592714Y-66708520D01*
X121592716Y-66708520D01*
X121704520Y-66596716D01*
X121772146Y-66479584D01*
X121783577Y-66459785D01*
X121824500Y-66307057D01*
X121824500Y-66148943D01*
X121824500Y-63750617D01*
X121844185Y-63683578D01*
X121896989Y-63637823D01*
X121966147Y-63627879D01*
X122029703Y-63656904D01*
X122036181Y-63662936D01*
X124666161Y-66292916D01*
X124718624Y-66345379D01*
X124770697Y-66397452D01*
X124893610Y-66479580D01*
X124893623Y-66479587D01*
X125030194Y-66536156D01*
X125030199Y-66536158D01*
X125030203Y-66536158D01*
X125030204Y-66536159D01*
X125175191Y-66565000D01*
X125175194Y-66565000D01*
X125175195Y-66565000D01*
X125323029Y-66565000D01*
X132213649Y-66565000D01*
X132280688Y-66584685D01*
X132326443Y-66637489D01*
X132336939Y-66675748D01*
X132341908Y-66721983D01*
X132392202Y-66856828D01*
X132392206Y-66856835D01*
X132478452Y-66972044D01*
X132478455Y-66972047D01*
X132593664Y-67058293D01*
X132593671Y-67058297D01*
X132728516Y-67108591D01*
X132774757Y-67113563D01*
X132839307Y-67140301D01*
X132879155Y-67197694D01*
X132885500Y-67236851D01*
X132885500Y-78709918D01*
X132885500Y-78709920D01*
X132885499Y-78709920D01*
X132914340Y-78854907D01*
X132914343Y-78854917D01*
X132970914Y-78991492D01*
X132970915Y-78991494D01*
X132970916Y-78991495D01*
X132990836Y-79021308D01*
X133003812Y-79040727D01*
X133003813Y-79040730D01*
X133053046Y-79114414D01*
X133053052Y-79114421D01*
X138521915Y-84583282D01*
X138555400Y-84644605D01*
X138556707Y-84690361D01*
X138553078Y-84713273D01*
X138523149Y-84776408D01*
X138463837Y-84813339D01*
X138393974Y-84812341D01*
X138342924Y-84781556D01*
X131718421Y-78157052D01*
X131718414Y-78157046D01*
X131644729Y-78107812D01*
X131644729Y-78107813D01*
X131595491Y-78074913D01*
X131458917Y-78018343D01*
X131458907Y-78018340D01*
X131313920Y-77989500D01*
X131313918Y-77989500D01*
X107017229Y-77989500D01*
X106950190Y-77969815D01*
X106929548Y-77953181D01*
X95359005Y-66382637D01*
X95325520Y-66321314D01*
X95328754Y-66256640D01*
X95379477Y-66100534D01*
X95411500Y-65898352D01*
X95411500Y-65693648D01*
X95379477Y-65491466D01*
X95316220Y-65296781D01*
X95316218Y-65296778D01*
X95316218Y-65296776D01*
X95282503Y-65230607D01*
X95223287Y-65114390D01*
X95186677Y-65064000D01*
X95102971Y-64948786D01*
X94958213Y-64804028D01*
X94792614Y-64683715D01*
X94786006Y-64680348D01*
X94699917Y-64636483D01*
X94649123Y-64588511D01*
X94632328Y-64520690D01*
X94654865Y-64454555D01*
X94699917Y-64415516D01*
X94792610Y-64368287D01*
X94813770Y-64352913D01*
X94958213Y-64247971D01*
X94958215Y-64247968D01*
X94958219Y-64247966D01*
X95102966Y-64103219D01*
X95102968Y-64103215D01*
X95102971Y-64103213D01*
X95184275Y-63991306D01*
X95223287Y-63937610D01*
X95316220Y-63755219D01*
X95379477Y-63560534D01*
X95411500Y-63358352D01*
X95411500Y-63153648D01*
X95379477Y-62951466D01*
X95379476Y-62951464D01*
X95350127Y-62861137D01*
X95316220Y-62756781D01*
X95316218Y-62756778D01*
X95316218Y-62756776D01*
X95270451Y-62666954D01*
X95223287Y-62574390D01*
X95199027Y-62540999D01*
X95102971Y-62408786D01*
X94958213Y-62264028D01*
X94792614Y-62143715D01*
X94786006Y-62140348D01*
X94699917Y-62096483D01*
X94649123Y-62048511D01*
X94632328Y-61980690D01*
X94654865Y-61914555D01*
X94699917Y-61875516D01*
X94792610Y-61828287D01*
X94813770Y-61812913D01*
X94958213Y-61707971D01*
X94958215Y-61707968D01*
X94958219Y-61707966D01*
X95102966Y-61563219D01*
X95102968Y-61563215D01*
X95102971Y-61563213D01*
X95155732Y-61490590D01*
X95223287Y-61397610D01*
X95316220Y-61215219D01*
X95379477Y-61020534D01*
X95411500Y-60818352D01*
X95411500Y-60613648D01*
X95396908Y-60521518D01*
X95379477Y-60411465D01*
X95346279Y-60309293D01*
X95316220Y-60216781D01*
X95223287Y-60034390D01*
X95174697Y-59967511D01*
X95102971Y-59868786D01*
X94958219Y-59724034D01*
X94921930Y-59697669D01*
X94879264Y-59642339D01*
X94873285Y-59572726D01*
X94905890Y-59510931D01*
X94966728Y-59476573D01*
X94981562Y-59474060D01*
X95018483Y-59470091D01*
X95153328Y-59419797D01*
X95153327Y-59419797D01*
X95153331Y-59419796D01*
X95268546Y-59333546D01*
X95354796Y-59218331D01*
X95405091Y-59083483D01*
X95411500Y-59023873D01*
X95411499Y-57328128D01*
X95405091Y-57268517D01*
X95385131Y-57215002D01*
X95354797Y-57133671D01*
X95354793Y-57133664D01*
X95268547Y-57018455D01*
X95268544Y-57018452D01*
X95153335Y-56932206D01*
X95153328Y-56932202D01*
X95018482Y-56881908D01*
X95018483Y-56881908D01*
X94958883Y-56875501D01*
X94958881Y-56875500D01*
X94958873Y-56875500D01*
X94958864Y-56875500D01*
X92463129Y-56875500D01*
X92463123Y-56875501D01*
X92403516Y-56881908D01*
X92268671Y-56932202D01*
X92268664Y-56932206D01*
X92153455Y-57018452D01*
X92153452Y-57018455D01*
X92067206Y-57133664D01*
X92067202Y-57133671D01*
X92016908Y-57268517D01*
X92010842Y-57324942D01*
X92010501Y-57328123D01*
X92010500Y-57328135D01*
X92010500Y-59023870D01*
X92010501Y-59023876D01*
X92016908Y-59083483D01*
X92067202Y-59218328D01*
X92067206Y-59218335D01*
X92153452Y-59333544D01*
X92153455Y-59333547D01*
X92268664Y-59419793D01*
X92268671Y-59419797D01*
X92313618Y-59436561D01*
X92403517Y-59470091D01*
X92440441Y-59474060D01*
X92504989Y-59500796D01*
X92544838Y-59558188D01*
X92547333Y-59628013D01*
X92511681Y-59688102D01*
X92500071Y-59697666D01*
X92463784Y-59724030D01*
X92319028Y-59868786D01*
X92198715Y-60034385D01*
X92191883Y-60047795D01*
X92143909Y-60098591D01*
X92081398Y-60115500D01*
X89738669Y-60115500D01*
X89738653Y-60115499D01*
X89731057Y-60115499D01*
X89572943Y-60115499D01*
X89465587Y-60144265D01*
X89420210Y-60156424D01*
X89420209Y-60156425D01*
X89370096Y-60185359D01*
X89370095Y-60185360D01*
X89326689Y-60210420D01*
X89283285Y-60235479D01*
X89283282Y-60235481D01*
X89171478Y-60347286D01*
X81722705Y-67796058D01*
X81661382Y-67829543D01*
X81602931Y-67828152D01*
X81506697Y-67802366D01*
X81506693Y-67802365D01*
X81506692Y-67802365D01*
X81506691Y-67802364D01*
X81506686Y-67802364D01*
X81280002Y-67782532D01*
X81279998Y-67782532D01*
X81053313Y-67802364D01*
X81053302Y-67802366D01*
X80833511Y-67861258D01*
X80833502Y-67861261D01*
X80627267Y-67957431D01*
X80627265Y-67957432D01*
X80440858Y-68087954D01*
X80279954Y-68248858D01*
X80149432Y-68435265D01*
X80149431Y-68435267D01*
X80053261Y-68641502D01*
X80053258Y-68641511D01*
X79994366Y-68861302D01*
X79994364Y-68861313D01*
X79974532Y-69087998D01*
X79974532Y-69088001D01*
X79994364Y-69314686D01*
X79994366Y-69314697D01*
X80053258Y-69534488D01*
X80053261Y-69534497D01*
X80149431Y-69740732D01*
X80149432Y-69740734D01*
X80279954Y-69927141D01*
X80440858Y-70088045D01*
X80440861Y-70088047D01*
X80626624Y-70218118D01*
X80670248Y-70272693D01*
X80679500Y-70319692D01*
X80679500Y-71327903D01*
X80659815Y-71394942D01*
X80643181Y-71415584D01*
X77003584Y-75055181D01*
X76942261Y-75088666D01*
X76915903Y-75091500D01*
X73875692Y-75091500D01*
X73808653Y-75071815D01*
X73774119Y-75038625D01*
X73644047Y-74852861D01*
X73644045Y-74852858D01*
X73483141Y-74691954D01*
X73296734Y-74561432D01*
X73296732Y-74561431D01*
X73090497Y-74465261D01*
X73090488Y-74465258D01*
X72870697Y-74406366D01*
X72870693Y-74406365D01*
X72870692Y-74406365D01*
X72870691Y-74406364D01*
X72870686Y-74406364D01*
X72644002Y-74386532D01*
X72643998Y-74386532D01*
X72417313Y-74406364D01*
X72417302Y-74406366D01*
X72197511Y-74465258D01*
X72197502Y-74465261D01*
X71991267Y-74561431D01*
X71991265Y-74561432D01*
X71804858Y-74691954D01*
X71643954Y-74852858D01*
X71513432Y-75039265D01*
X71513431Y-75039267D01*
X71417261Y-75245502D01*
X71417258Y-75245511D01*
X71358366Y-75465302D01*
X71358364Y-75465313D01*
X71338532Y-75691998D01*
X65274500Y-75691998D01*
X65274500Y-69087998D01*
X75402532Y-69087998D01*
X75402532Y-69088001D01*
X75422364Y-69314686D01*
X75422366Y-69314697D01*
X75481258Y-69534488D01*
X75481261Y-69534497D01*
X75577431Y-69740732D01*
X75577432Y-69740734D01*
X75707954Y-69927141D01*
X75868858Y-70088045D01*
X75868861Y-70088047D01*
X76055266Y-70218568D01*
X76261504Y-70314739D01*
X76481308Y-70373635D01*
X76643230Y-70387801D01*
X76707998Y-70393468D01*
X76708000Y-70393468D01*
X76708002Y-70393468D01*
X76764673Y-70388509D01*
X76934692Y-70373635D01*
X77154496Y-70314739D01*
X77360734Y-70218568D01*
X77547139Y-70088047D01*
X77708047Y-69927139D01*
X77838568Y-69740734D01*
X77934739Y-69534496D01*
X77993635Y-69314692D01*
X78013468Y-69088000D01*
X78012826Y-69080666D01*
X77993635Y-68861313D01*
X77993635Y-68861308D01*
X77967847Y-68765066D01*
X77969510Y-68695217D01*
X77999939Y-68645294D01*
X81638506Y-65006728D01*
X81638511Y-65006724D01*
X81648714Y-64996520D01*
X81648716Y-64996520D01*
X81760520Y-64884716D01*
X81839577Y-64747784D01*
X81880500Y-64595057D01*
X81880500Y-55079692D01*
X81900185Y-55012653D01*
X81933374Y-54978119D01*
X82119139Y-54848047D01*
X82280047Y-54687139D01*
X82410118Y-54501375D01*
X82464693Y-54457752D01*
X82511692Y-54448500D01*
X93679903Y-54448500D01*
X93746942Y-54468185D01*
X93767584Y-54484819D01*
X96899181Y-57616416D01*
X96932666Y-57677739D01*
X96935500Y-57704097D01*
X96935500Y-59374330D01*
X96935499Y-59374348D01*
X96935499Y-59540054D01*
X96935498Y-59540054D01*
X96935499Y-59540057D01*
X96976423Y-59692785D01*
X96976424Y-59692787D01*
X96976423Y-59692787D01*
X96988139Y-59713078D01*
X96988140Y-59713080D01*
X97055475Y-59829709D01*
X97055481Y-59829717D01*
X97174349Y-59948585D01*
X97174355Y-59948590D01*
X99748744Y-62522979D01*
X99782229Y-62584302D01*
X99777245Y-62653994D01*
X99771548Y-62666954D01*
X99725779Y-62756781D01*
X99725779Y-62756782D01*
X99662523Y-62951461D01*
X99662523Y-62951464D01*
X99630500Y-63153648D01*
X99630500Y-63358351D01*
X99662522Y-63560534D01*
X99725781Y-63755223D01*
X99768995Y-63840033D01*
X99812364Y-63925150D01*
X99818715Y-63937613D01*
X99939028Y-64103213D01*
X100083786Y-64247971D01*
X100238749Y-64360556D01*
X100249390Y-64368287D01*
X100340840Y-64414883D01*
X100342080Y-64415515D01*
X100392876Y-64463490D01*
X100409671Y-64531311D01*
X100387134Y-64597446D01*
X100342080Y-64636485D01*
X100249386Y-64683715D01*
X100083786Y-64804028D01*
X99939028Y-64948786D01*
X99818715Y-65114386D01*
X99725781Y-65296776D01*
X99662522Y-65491465D01*
X99630500Y-65693648D01*
X99630500Y-65898351D01*
X99662522Y-66100534D01*
X99725781Y-66295223D01*
X99777870Y-66397451D01*
X99814976Y-66470276D01*
X99818715Y-66477613D01*
X99939028Y-66643213D01*
X100083786Y-66787971D01*
X100238749Y-66900556D01*
X100249390Y-66908287D01*
X100321575Y-66945067D01*
X100431776Y-67001218D01*
X100431778Y-67001218D01*
X100431781Y-67001220D01*
X100532898Y-67034075D01*
X100626465Y-67064477D01*
X100727557Y-67080488D01*
X100828648Y-67096500D01*
X100828649Y-67096500D01*
X101833351Y-67096500D01*
X101833352Y-67096500D01*
X102035534Y-67064477D01*
X102230219Y-67001220D01*
X102412610Y-66908287D01*
X102505590Y-66840732D01*
X102578213Y-66787971D01*
X102578215Y-66787968D01*
X102578219Y-66787966D01*
X102722966Y-66643219D01*
X102722968Y-66643215D01*
X102722971Y-66643213D01*
X102800749Y-66536159D01*
X102843287Y-66477610D01*
X102936220Y-66295219D01*
X102999477Y-66100534D01*
X103031500Y-65898352D01*
X103031500Y-65693648D01*
X102999477Y-65491466D01*
X102936220Y-65296781D01*
X102936218Y-65296778D01*
X102936218Y-65296776D01*
X102902503Y-65230607D01*
X102843287Y-65114390D01*
X102806677Y-65064000D01*
X102722971Y-64948786D01*
X102578213Y-64804028D01*
X102412614Y-64683715D01*
X102406006Y-64680348D01*
X102319917Y-64636483D01*
X102269123Y-64588511D01*
X102252328Y-64520690D01*
X102274865Y-64454555D01*
X102319917Y-64415516D01*
X102412610Y-64368287D01*
X102433770Y-64352913D01*
X102578213Y-64247971D01*
X102578215Y-64247968D01*
X102578219Y-64247966D01*
X102722966Y-64103219D01*
X102722968Y-64103215D01*
X102722971Y-64103213D01*
X102804275Y-63991306D01*
X102843287Y-63937610D01*
X102936220Y-63755219D01*
X102999477Y-63560534D01*
X103031500Y-63358352D01*
X103031500Y-63153648D01*
X102999477Y-62951466D01*
X102999476Y-62951464D01*
X102970127Y-62861137D01*
X102936220Y-62756781D01*
X102936218Y-62756778D01*
X102936218Y-62756776D01*
X102890451Y-62666954D01*
X102843287Y-62574390D01*
X102819027Y-62540999D01*
X102722971Y-62408786D01*
X102578213Y-62264028D01*
X102412614Y-62143715D01*
X102406006Y-62140348D01*
X102319917Y-62096483D01*
X102269123Y-62048511D01*
X102252328Y-61980690D01*
X102274865Y-61914555D01*
X102319917Y-61875516D01*
X102412610Y-61828287D01*
X102433770Y-61812913D01*
X102578213Y-61707971D01*
X102578215Y-61707968D01*
X102578219Y-61707966D01*
X102722966Y-61563219D01*
X102722968Y-61563215D01*
X102722971Y-61563213D01*
X102775732Y-61490590D01*
X102843287Y-61397610D01*
X102936220Y-61215219D01*
X102999477Y-61020534D01*
X103031500Y-60818352D01*
X103031500Y-60613648D01*
X103016908Y-60521518D01*
X102999477Y-60411465D01*
X102966279Y-60309293D01*
X102936220Y-60216781D01*
X102843287Y-60034390D01*
X102794697Y-59967511D01*
X102722971Y-59868786D01*
X102578213Y-59724028D01*
X102412614Y-59603715D01*
X102406006Y-59600348D01*
X102319917Y-59556483D01*
X102269123Y-59508511D01*
X102252328Y-59440690D01*
X102274865Y-59374555D01*
X102319917Y-59335516D01*
X102412610Y-59288287D01*
X102475568Y-59242546D01*
X102578213Y-59167971D01*
X102578215Y-59167968D01*
X102578219Y-59167966D01*
X102722966Y-59023219D01*
X102722968Y-59023215D01*
X102722971Y-59023213D01*
X102796714Y-58921713D01*
X102843287Y-58857610D01*
X102936220Y-58675219D01*
X102999477Y-58480534D01*
X103031500Y-58278352D01*
X103031500Y-58073648D01*
X102999477Y-57871466D01*
X102936220Y-57676781D01*
X102936218Y-57676778D01*
X102936218Y-57676776D01*
X102893682Y-57593295D01*
X102843287Y-57494390D01*
X102835556Y-57483749D01*
X102722971Y-57328786D01*
X102578213Y-57184028D01*
X102412613Y-57063715D01*
X102412612Y-57063714D01*
X102412610Y-57063713D01*
X102355653Y-57034691D01*
X102230223Y-56970781D01*
X102035534Y-56907522D01*
X101860995Y-56879878D01*
X101833352Y-56875500D01*
X100828648Y-56875500D01*
X100804329Y-56879351D01*
X100626465Y-56907522D01*
X100431776Y-56970781D01*
X100249386Y-57063715D01*
X100083786Y-57184028D01*
X99939028Y-57328786D01*
X99818715Y-57494386D01*
X99725781Y-57676776D01*
X99662522Y-57871465D01*
X99630500Y-58073648D01*
X99630500Y-58278351D01*
X99662522Y-58480534D01*
X99725781Y-58675223D01*
X99818715Y-58857613D01*
X99939028Y-59023213D01*
X100083786Y-59167971D01*
X100186432Y-59242546D01*
X100249390Y-59288287D01*
X100338212Y-59333544D01*
X100342080Y-59335515D01*
X100392876Y-59383490D01*
X100409671Y-59451311D01*
X100387134Y-59517446D01*
X100342080Y-59556485D01*
X100249386Y-59603715D01*
X100083786Y-59724028D01*
X99939028Y-59868786D01*
X99818715Y-60034386D01*
X99818713Y-60034390D01*
X99725780Y-60216781D01*
X99695721Y-60309293D01*
X99662523Y-60411464D01*
X99655907Y-60453236D01*
X99625977Y-60516370D01*
X99566666Y-60553301D01*
X99496803Y-60552303D01*
X99445753Y-60521518D01*
X98172819Y-59248584D01*
X98139334Y-59187261D01*
X98136500Y-59160903D01*
X98136500Y-57324942D01*
X98132524Y-57310106D01*
X98132523Y-57310102D01*
X98107041Y-57215002D01*
X98107041Y-57215001D01*
X98095577Y-57172216D01*
X98073319Y-57133664D01*
X98016524Y-57035290D01*
X98016521Y-57035286D01*
X98016520Y-57035284D01*
X97904716Y-56923480D01*
X97904715Y-56923479D01*
X97900385Y-56919149D01*
X97900374Y-56919139D01*
X94467590Y-53486355D01*
X94467588Y-53486352D01*
X94348717Y-53367481D01*
X94348716Y-53367480D01*
X94261904Y-53317360D01*
X94261904Y-53317359D01*
X94261900Y-53317358D01*
X94211785Y-53288423D01*
X94059057Y-53247499D01*
X93900943Y-53247499D01*
X93893347Y-53247499D01*
X93893331Y-53247500D01*
X82511692Y-53247500D01*
X82444653Y-53227815D01*
X82410119Y-53194625D01*
X82280047Y-53008861D01*
X82280045Y-53008858D01*
X82119141Y-52847954D01*
X81932734Y-52717432D01*
X81932732Y-52717431D01*
X81726497Y-52621261D01*
X81726488Y-52621258D01*
X81506697Y-52562366D01*
X81506693Y-52562365D01*
X81506692Y-52562365D01*
X81506691Y-52562364D01*
X81506686Y-52562364D01*
X81280002Y-52542532D01*
X81279998Y-52542532D01*
X81053313Y-52562364D01*
X81053302Y-52562366D01*
X80833511Y-52621258D01*
X80833502Y-52621261D01*
X80627267Y-52717431D01*
X80627265Y-52717432D01*
X80440858Y-52847954D01*
X80279954Y-53008858D01*
X80149432Y-53195265D01*
X80149431Y-53195267D01*
X80053261Y-53401502D01*
X80053258Y-53401511D01*
X79994366Y-53621302D01*
X79994364Y-53621313D01*
X79974532Y-53847998D01*
X79974532Y-53848001D01*
X79994364Y-54074686D01*
X79994366Y-54074697D01*
X80053258Y-54294488D01*
X80053261Y-54294497D01*
X80149431Y-54500732D01*
X80149432Y-54500734D01*
X80279954Y-54687141D01*
X80440858Y-54848045D01*
X80440861Y-54848047D01*
X80626624Y-54978118D01*
X80670248Y-55032693D01*
X80679500Y-55079692D01*
X80679500Y-64215902D01*
X80659815Y-64282941D01*
X80643181Y-64303583D01*
X77150705Y-67796058D01*
X77089382Y-67829543D01*
X77030931Y-67828152D01*
X76934697Y-67802366D01*
X76934693Y-67802365D01*
X76934692Y-67802365D01*
X76934691Y-67802364D01*
X76934686Y-67802364D01*
X76708002Y-67782532D01*
X76707998Y-67782532D01*
X76481313Y-67802364D01*
X76481302Y-67802366D01*
X76261511Y-67861258D01*
X76261502Y-67861261D01*
X76055267Y-67957431D01*
X76055265Y-67957432D01*
X75868858Y-68087954D01*
X75707954Y-68248858D01*
X75577432Y-68435265D01*
X75577431Y-68435267D01*
X75481261Y-68641502D01*
X75481258Y-68641511D01*
X75422366Y-68861302D01*
X75422364Y-68861313D01*
X75402532Y-69087998D01*
X65274500Y-69087998D01*
X65274500Y-45719997D01*
X70363034Y-45719997D01*
X70363034Y-45720002D01*
X70382858Y-45946599D01*
X70382860Y-45946610D01*
X70441730Y-46166317D01*
X70441735Y-46166331D01*
X70537863Y-46372478D01*
X70588974Y-46445472D01*
X71268000Y-45766446D01*
X71268000Y-45772661D01*
X71295259Y-45874394D01*
X71347920Y-45965606D01*
X71422394Y-46040080D01*
X71513606Y-46092741D01*
X71615339Y-46120000D01*
X71621553Y-46120000D01*
X70942526Y-46799025D01*
X71015513Y-46850132D01*
X71015521Y-46850136D01*
X71221668Y-46946264D01*
X71221682Y-46946269D01*
X71441389Y-47005139D01*
X71441400Y-47005141D01*
X71667998Y-47024966D01*
X71668002Y-47024966D01*
X71894599Y-47005141D01*
X71894610Y-47005139D01*
X72114317Y-46946269D01*
X72114331Y-46946264D01*
X72320478Y-46850136D01*
X72393471Y-46799024D01*
X71714447Y-46120000D01*
X71720661Y-46120000D01*
X71822394Y-46092741D01*
X71913606Y-46040080D01*
X71988080Y-45965606D01*
X72040741Y-45874394D01*
X72068000Y-45772661D01*
X72068000Y-45766447D01*
X72747024Y-46445471D01*
X72798136Y-46372478D01*
X72894264Y-46166331D01*
X72894269Y-46166317D01*
X72953139Y-45946610D01*
X72953141Y-45946599D01*
X72972966Y-45720002D01*
X72972966Y-45719998D01*
X75362532Y-45719998D01*
X75362532Y-45720001D01*
X75382364Y-45946686D01*
X75382366Y-45946697D01*
X75441258Y-46166488D01*
X75441261Y-46166497D01*
X75537431Y-46372732D01*
X75537432Y-46372734D01*
X75667954Y-46559141D01*
X75828858Y-46720045D01*
X75838791Y-46727000D01*
X76014624Y-46850118D01*
X76058248Y-46904693D01*
X76067500Y-46951692D01*
X76067500Y-48072314D01*
X76047815Y-48139353D01*
X76014623Y-48173889D01*
X75868859Y-48275953D01*
X75707954Y-48436858D01*
X75577432Y-48623265D01*
X75577431Y-48623267D01*
X75481261Y-48829502D01*
X75481258Y-48829511D01*
X75422366Y-49049302D01*
X75422364Y-49049313D01*
X75402532Y-49275998D01*
X75402532Y-49276001D01*
X75422364Y-49502686D01*
X75422366Y-49502697D01*
X75481258Y-49722488D01*
X75481261Y-49722497D01*
X75577431Y-49928732D01*
X75577432Y-49928734D01*
X75707954Y-50115141D01*
X75868858Y-50276045D01*
X75868861Y-50276047D01*
X76054624Y-50406118D01*
X76098248Y-50460693D01*
X76107500Y-50507692D01*
X76107500Y-52616306D01*
X76087815Y-52683345D01*
X76054623Y-52717881D01*
X75868859Y-52847953D01*
X75707954Y-53008858D01*
X75577432Y-53195265D01*
X75577431Y-53195267D01*
X75481261Y-53401502D01*
X75481258Y-53401511D01*
X75422366Y-53621302D01*
X75422364Y-53621313D01*
X75402532Y-53847998D01*
X75402532Y-53848001D01*
X75422364Y-54074686D01*
X75422366Y-54074697D01*
X75481258Y-54294488D01*
X75481261Y-54294497D01*
X75577431Y-54500732D01*
X75577432Y-54500734D01*
X75707954Y-54687141D01*
X75868858Y-54848045D01*
X75868861Y-54848047D01*
X76055266Y-54978568D01*
X76261504Y-55074739D01*
X76481308Y-55133635D01*
X76643230Y-55147801D01*
X76707998Y-55153468D01*
X76708000Y-55153468D01*
X76708002Y-55153468D01*
X76764673Y-55148509D01*
X76934692Y-55133635D01*
X77154496Y-55074739D01*
X77360734Y-54978568D01*
X77547139Y-54848047D01*
X77708047Y-54687139D01*
X77838568Y-54500734D01*
X77934739Y-54294496D01*
X77993635Y-54074692D01*
X78013468Y-53848000D01*
X77993635Y-53621308D01*
X77934739Y-53401504D01*
X77838568Y-53195266D01*
X77708047Y-53008861D01*
X77708045Y-53008858D01*
X77547140Y-52847953D01*
X77361377Y-52717881D01*
X77317752Y-52663304D01*
X77308500Y-52616306D01*
X77308500Y-50507692D01*
X77328185Y-50440653D01*
X77361374Y-50406119D01*
X77547139Y-50276047D01*
X77708047Y-50115139D01*
X77838568Y-49928734D01*
X77934739Y-49722496D01*
X77993635Y-49502692D01*
X78013468Y-49276000D01*
X77993635Y-49049308D01*
X77937545Y-48839976D01*
X77934741Y-48829511D01*
X77934738Y-48829502D01*
X77854297Y-48656997D01*
X77838568Y-48623266D01*
X77708047Y-48436861D01*
X77708045Y-48436858D01*
X77547141Y-48275954D01*
X77360731Y-48145430D01*
X77360730Y-48145429D01*
X77340093Y-48135806D01*
X77287655Y-48089632D01*
X77268500Y-48023425D01*
X77268500Y-46951692D01*
X77288185Y-46884653D01*
X77321374Y-46850119D01*
X77507139Y-46720047D01*
X77668047Y-46559139D01*
X77798568Y-46372734D01*
X77894739Y-46166496D01*
X77953635Y-45946692D01*
X77973468Y-45720000D01*
X77953635Y-45493308D01*
X77894739Y-45273504D01*
X77798568Y-45067266D01*
X77668047Y-44880861D01*
X77668045Y-44880858D01*
X77507141Y-44719954D01*
X77320734Y-44589432D01*
X77320732Y-44589431D01*
X77114497Y-44493261D01*
X77114488Y-44493258D01*
X76894697Y-44434366D01*
X76894693Y-44434365D01*
X76894692Y-44434365D01*
X76894691Y-44434364D01*
X76894686Y-44434364D01*
X76668002Y-44414532D01*
X76667998Y-44414532D01*
X76441313Y-44434364D01*
X76441302Y-44434366D01*
X76221511Y-44493258D01*
X76221502Y-44493261D01*
X76015267Y-44589431D01*
X76015265Y-44589432D01*
X75828858Y-44719954D01*
X75667954Y-44880858D01*
X75537432Y-45067265D01*
X75537431Y-45067267D01*
X75441261Y-45273502D01*
X75441258Y-45273511D01*
X75382366Y-45493302D01*
X75382364Y-45493313D01*
X75362532Y-45719998D01*
X72972966Y-45719998D01*
X72972966Y-45719997D01*
X72953141Y-45493400D01*
X72953139Y-45493389D01*
X72894269Y-45273682D01*
X72894264Y-45273668D01*
X72798136Y-45067521D01*
X72798132Y-45067513D01*
X72747025Y-44994526D01*
X72068000Y-45673551D01*
X72068000Y-45667339D01*
X72040741Y-45565606D01*
X71988080Y-45474394D01*
X71913606Y-45399920D01*
X71822394Y-45347259D01*
X71720661Y-45320000D01*
X71714448Y-45320000D01*
X72393472Y-44640974D01*
X72320478Y-44589863D01*
X72114331Y-44493735D01*
X72114317Y-44493730D01*
X71894610Y-44434860D01*
X71894599Y-44434858D01*
X71668002Y-44415034D01*
X71667998Y-44415034D01*
X71441400Y-44434858D01*
X71441389Y-44434860D01*
X71221682Y-44493730D01*
X71221673Y-44493734D01*
X71015516Y-44589866D01*
X71015512Y-44589868D01*
X70942526Y-44640973D01*
X70942526Y-44640974D01*
X71621553Y-45320000D01*
X71615339Y-45320000D01*
X71513606Y-45347259D01*
X71422394Y-45399920D01*
X71347920Y-45474394D01*
X71295259Y-45565606D01*
X71268000Y-45667339D01*
X71268000Y-45673552D01*
X70588974Y-44994526D01*
X70588973Y-44994526D01*
X70537868Y-45067512D01*
X70537866Y-45067516D01*
X70441734Y-45273673D01*
X70441730Y-45273682D01*
X70382860Y-45493389D01*
X70382858Y-45493400D01*
X70363034Y-45719997D01*
X65274500Y-45719997D01*
X65274500Y-42123997D01*
X70831034Y-42123997D01*
X70831034Y-42124002D01*
X70850858Y-42350599D01*
X70850860Y-42350610D01*
X70909730Y-42570317D01*
X70909735Y-42570331D01*
X71005863Y-42776478D01*
X71056974Y-42849472D01*
X71736000Y-42170446D01*
X71736000Y-42176661D01*
X71763259Y-42278394D01*
X71815920Y-42369606D01*
X71890394Y-42444080D01*
X71981606Y-42496741D01*
X72083339Y-42524000D01*
X72089553Y-42524000D01*
X71410526Y-43203025D01*
X71483513Y-43254132D01*
X71483521Y-43254136D01*
X71689668Y-43350264D01*
X71689682Y-43350269D01*
X71909389Y-43409139D01*
X71909400Y-43409141D01*
X72135998Y-43428966D01*
X72136002Y-43428966D01*
X72362599Y-43409141D01*
X72362610Y-43409139D01*
X72582317Y-43350269D01*
X72582331Y-43350264D01*
X72788478Y-43254136D01*
X72861471Y-43203024D01*
X72182447Y-42524000D01*
X72188661Y-42524000D01*
X72290394Y-42496741D01*
X72381606Y-42444080D01*
X72456080Y-42369606D01*
X72508741Y-42278394D01*
X72536000Y-42176661D01*
X72536000Y-42170447D01*
X73215024Y-42849471D01*
X73266136Y-42776478D01*
X73362264Y-42570331D01*
X73362269Y-42570317D01*
X73421139Y-42350610D01*
X73421141Y-42350599D01*
X73440966Y-42124002D01*
X73440966Y-42123997D01*
X73421141Y-41897400D01*
X73421139Y-41897389D01*
X73362269Y-41677682D01*
X73362264Y-41677668D01*
X73266136Y-41471521D01*
X73266132Y-41471513D01*
X73215025Y-41398526D01*
X72536000Y-42077551D01*
X72536000Y-42071339D01*
X72508741Y-41969606D01*
X72456080Y-41878394D01*
X72381606Y-41803920D01*
X72290394Y-41751259D01*
X72188661Y-41724000D01*
X72182448Y-41724000D01*
X72861472Y-41044974D01*
X72788478Y-40993863D01*
X72582331Y-40897735D01*
X72582317Y-40897730D01*
X72362610Y-40838860D01*
X72362599Y-40838858D01*
X72136002Y-40819034D01*
X72135998Y-40819034D01*
X71909400Y-40838858D01*
X71909389Y-40838860D01*
X71689682Y-40897730D01*
X71689673Y-40897734D01*
X71483516Y-40993866D01*
X71483512Y-40993868D01*
X71410526Y-41044973D01*
X71410526Y-41044974D01*
X72089553Y-41724000D01*
X72083339Y-41724000D01*
X71981606Y-41751259D01*
X71890394Y-41803920D01*
X71815920Y-41878394D01*
X71763259Y-41969606D01*
X71736000Y-42071339D01*
X71736000Y-42077552D01*
X71056974Y-41398526D01*
X71056973Y-41398526D01*
X71005868Y-41471512D01*
X71005866Y-41471516D01*
X70909734Y-41677673D01*
X70909730Y-41677682D01*
X70850860Y-41897389D01*
X70850858Y-41897400D01*
X70831034Y-42123997D01*
X65274500Y-42123997D01*
X65274500Y-37123998D01*
X70830532Y-37123998D01*
X70830532Y-37124001D01*
X70850364Y-37350686D01*
X70850366Y-37350697D01*
X70909258Y-37570488D01*
X70909261Y-37570497D01*
X71005431Y-37776732D01*
X71005432Y-37776734D01*
X71135954Y-37963141D01*
X71296858Y-38124045D01*
X71296861Y-38124047D01*
X71483266Y-38254568D01*
X71689504Y-38350739D01*
X71689509Y-38350740D01*
X71689511Y-38350741D01*
X71691004Y-38351141D01*
X71909308Y-38409635D01*
X72071230Y-38423801D01*
X72135998Y-38429468D01*
X72136000Y-38429468D01*
X72136002Y-38429468D01*
X72192673Y-38424509D01*
X72362692Y-38409635D01*
X72582496Y-38350739D01*
X72788734Y-38254568D01*
X72975139Y-38124047D01*
X73136047Y-37963139D01*
X73266118Y-37777375D01*
X73320693Y-37733752D01*
X73367692Y-37724500D01*
X75504315Y-37724500D01*
X75571354Y-37744185D01*
X75605890Y-37777377D01*
X75707954Y-37923141D01*
X75868858Y-38084045D01*
X75868861Y-38084047D01*
X76054624Y-38214118D01*
X76098248Y-38268693D01*
X76107500Y-38315692D01*
X76107500Y-40424306D01*
X76087815Y-40491345D01*
X76054623Y-40525881D01*
X75868859Y-40655953D01*
X75707954Y-40816858D01*
X75577432Y-41003265D01*
X75577431Y-41003267D01*
X75481261Y-41209502D01*
X75481258Y-41209511D01*
X75422366Y-41429302D01*
X75422364Y-41429313D01*
X75402532Y-41655998D01*
X75402532Y-41656001D01*
X75422364Y-41882686D01*
X75422366Y-41882697D01*
X75481258Y-42102488D01*
X75481261Y-42102497D01*
X75577431Y-42308732D01*
X75577432Y-42308734D01*
X75707954Y-42495141D01*
X75868858Y-42656045D01*
X75868861Y-42656047D01*
X76055266Y-42786568D01*
X76261504Y-42882739D01*
X76481308Y-42941635D01*
X76643230Y-42955801D01*
X76707998Y-42961468D01*
X76708000Y-42961468D01*
X76708002Y-42961468D01*
X76764673Y-42956509D01*
X76934692Y-42941635D01*
X77154496Y-42882739D01*
X77360734Y-42786568D01*
X77547139Y-42656047D01*
X77708047Y-42495139D01*
X77838568Y-42308734D01*
X77934739Y-42102496D01*
X77993635Y-41882692D01*
X78013468Y-41656000D01*
X78013468Y-41655998D01*
X90642532Y-41655998D01*
X90642532Y-41656001D01*
X90662364Y-41882686D01*
X90662366Y-41882697D01*
X90721258Y-42102488D01*
X90721261Y-42102497D01*
X90817431Y-42308732D01*
X90817432Y-42308734D01*
X90947954Y-42495141D01*
X91108858Y-42656045D01*
X91108861Y-42656047D01*
X91294624Y-42786118D01*
X91338248Y-42840693D01*
X91347500Y-42887692D01*
X91347500Y-48044306D01*
X91327815Y-48111345D01*
X91294623Y-48145881D01*
X91108859Y-48275953D01*
X90947954Y-48436858D01*
X90817432Y-48623265D01*
X90817431Y-48623267D01*
X90721261Y-48829502D01*
X90721258Y-48829511D01*
X90662366Y-49049302D01*
X90662364Y-49049313D01*
X90642532Y-49275998D01*
X90642532Y-49276001D01*
X90662364Y-49502686D01*
X90662366Y-49502697D01*
X90721258Y-49722488D01*
X90721261Y-49722497D01*
X90817431Y-49928732D01*
X90817432Y-49928734D01*
X90947954Y-50115141D01*
X91108858Y-50276045D01*
X91108861Y-50276047D01*
X91295266Y-50406568D01*
X91501504Y-50502739D01*
X91721308Y-50561635D01*
X91883230Y-50575801D01*
X91947998Y-50581468D01*
X91948000Y-50581468D01*
X91948002Y-50581468D01*
X92004673Y-50576509D01*
X92174692Y-50561635D01*
X92394496Y-50502739D01*
X92600734Y-50406568D01*
X92787139Y-50276047D01*
X92948047Y-50115139D01*
X93078568Y-49928734D01*
X93106844Y-49868095D01*
X93153016Y-49815656D01*
X93219226Y-49796500D01*
X97320308Y-49796500D01*
X97387347Y-49816185D01*
X97421880Y-49849374D01*
X97477444Y-49928728D01*
X97551954Y-50035141D01*
X97712858Y-50196045D01*
X97712861Y-50196047D01*
X97899266Y-50326568D01*
X98105504Y-50422739D01*
X98325308Y-50481635D01*
X98487230Y-50495801D01*
X98551998Y-50501468D01*
X98552000Y-50501468D01*
X98552002Y-50501468D01*
X98608673Y-50496509D01*
X98778692Y-50481635D01*
X98998496Y-50422739D01*
X99204734Y-50326568D01*
X99391139Y-50196047D01*
X99552047Y-50035139D01*
X99682568Y-49848734D01*
X99778739Y-49642496D01*
X99837635Y-49422692D01*
X99856195Y-49210547D01*
X99857468Y-49196001D01*
X99857468Y-49195998D01*
X99844663Y-49049639D01*
X99837635Y-48969308D01*
X99778739Y-48749504D01*
X99682568Y-48543266D01*
X99552047Y-48356861D01*
X99552045Y-48356858D01*
X99391141Y-48195954D01*
X99204734Y-48065432D01*
X99204732Y-48065431D01*
X98998497Y-47969261D01*
X98998488Y-47969258D01*
X98778697Y-47910366D01*
X98778693Y-47910365D01*
X98778692Y-47910365D01*
X98778691Y-47910364D01*
X98778686Y-47910364D01*
X98552002Y-47890532D01*
X98551998Y-47890532D01*
X98325313Y-47910364D01*
X98325302Y-47910366D01*
X98105511Y-47969258D01*
X98105502Y-47969261D01*
X97899267Y-48065431D01*
X97899265Y-48065432D01*
X97712858Y-48195954D01*
X97551954Y-48356858D01*
X97475450Y-48466118D01*
X97421881Y-48542624D01*
X97367307Y-48586248D01*
X97320308Y-48595500D01*
X93123677Y-48595500D01*
X93056638Y-48575815D01*
X93022102Y-48542623D01*
X92948045Y-48436858D01*
X92787140Y-48275953D01*
X92601377Y-48145881D01*
X92557752Y-48091304D01*
X92548500Y-48044306D01*
X92548500Y-42887692D01*
X92568185Y-42820653D01*
X92601374Y-42786119D01*
X92787139Y-42656047D01*
X92948047Y-42495139D01*
X93078568Y-42308734D01*
X93174739Y-42102496D01*
X93233635Y-41882692D01*
X93253468Y-41656000D01*
X93233635Y-41429308D01*
X93174739Y-41209504D01*
X93078568Y-41003266D01*
X92948047Y-40816861D01*
X92948045Y-40816858D01*
X92787141Y-40655954D01*
X92600734Y-40525432D01*
X92600732Y-40525431D01*
X92394497Y-40429261D01*
X92394488Y-40429258D01*
X92174697Y-40370366D01*
X92174693Y-40370365D01*
X92174692Y-40370365D01*
X92174691Y-40370364D01*
X92174686Y-40370364D01*
X91948002Y-40350532D01*
X91947998Y-40350532D01*
X91721313Y-40370364D01*
X91721302Y-40370366D01*
X91501511Y-40429258D01*
X91501502Y-40429261D01*
X91295267Y-40525431D01*
X91295265Y-40525432D01*
X91108858Y-40655954D01*
X90947954Y-40816858D01*
X90817432Y-41003265D01*
X90817431Y-41003267D01*
X90721261Y-41209502D01*
X90721258Y-41209511D01*
X90662366Y-41429302D01*
X90662364Y-41429313D01*
X90642532Y-41655998D01*
X78013468Y-41655998D01*
X77993635Y-41429308D01*
X77934739Y-41209504D01*
X77838568Y-41003266D01*
X77708047Y-40816861D01*
X77708045Y-40816858D01*
X77547140Y-40655953D01*
X77361377Y-40525881D01*
X77317752Y-40471304D01*
X77308500Y-40424306D01*
X77308500Y-38315692D01*
X77328185Y-38248653D01*
X77361374Y-38214119D01*
X77547139Y-38084047D01*
X77708047Y-37923139D01*
X77838568Y-37736734D01*
X77934739Y-37530496D01*
X77993635Y-37310692D01*
X78013468Y-37084000D01*
X78013468Y-37083998D01*
X90642532Y-37083998D01*
X90642532Y-37084001D01*
X90662364Y-37310686D01*
X90662366Y-37310697D01*
X90721258Y-37530488D01*
X90721261Y-37530497D01*
X90817431Y-37736732D01*
X90817432Y-37736734D01*
X90947954Y-37923141D01*
X91108858Y-38084045D01*
X91108861Y-38084047D01*
X91295266Y-38214568D01*
X91501504Y-38310739D01*
X91721308Y-38369635D01*
X91846308Y-38380570D01*
X91911376Y-38406022D01*
X91923182Y-38416417D01*
X97260058Y-43753293D01*
X97293543Y-43814616D01*
X97292152Y-43873067D01*
X97266366Y-43969302D01*
X97266364Y-43969313D01*
X97246532Y-44195998D01*
X97246532Y-44196001D01*
X97266364Y-44422686D01*
X97266366Y-44422697D01*
X97325258Y-44642488D01*
X97325261Y-44642497D01*
X97421431Y-44848732D01*
X97421432Y-44848734D01*
X97551954Y-45035141D01*
X97712858Y-45196045D01*
X97712861Y-45196047D01*
X97899266Y-45326568D01*
X98105504Y-45422739D01*
X98325308Y-45481635D01*
X98487230Y-45495801D01*
X98551998Y-45501468D01*
X98552000Y-45501468D01*
X98552002Y-45501468D01*
X98608673Y-45496509D01*
X98778692Y-45481635D01*
X98998496Y-45422739D01*
X99204734Y-45326568D01*
X99391139Y-45196047D01*
X99552047Y-45035139D01*
X99682568Y-44848734D01*
X99778739Y-44642496D01*
X99837635Y-44422692D01*
X99857468Y-44196000D01*
X99837635Y-43969308D01*
X99786541Y-43778623D01*
X99778741Y-43749511D01*
X99778738Y-43749502D01*
X99772054Y-43735169D01*
X99682568Y-43543266D01*
X99552047Y-43356861D01*
X99552045Y-43356858D01*
X99391140Y-43195953D01*
X99205377Y-43065881D01*
X99161752Y-43011304D01*
X99152500Y-42964306D01*
X99152500Y-38743692D01*
X99172185Y-38676653D01*
X99205374Y-38642119D01*
X99391139Y-38512047D01*
X99552047Y-38351139D01*
X99682568Y-38164734D01*
X99778739Y-37958496D01*
X99837635Y-37738692D01*
X99857468Y-37512000D01*
X99837635Y-37285308D01*
X99783695Y-37084000D01*
X99778741Y-37065511D01*
X99778738Y-37065502D01*
X99682568Y-36859266D01*
X99552047Y-36672861D01*
X99552045Y-36672858D01*
X99391141Y-36511954D01*
X99204734Y-36381432D01*
X99204732Y-36381431D01*
X98998497Y-36285261D01*
X98998488Y-36285258D01*
X98778697Y-36226366D01*
X98778693Y-36226365D01*
X98778692Y-36226365D01*
X98778691Y-36226364D01*
X98778686Y-36226364D01*
X98552002Y-36206532D01*
X98551998Y-36206532D01*
X98325313Y-36226364D01*
X98325302Y-36226366D01*
X98105511Y-36285258D01*
X98105502Y-36285261D01*
X97899267Y-36381431D01*
X97899265Y-36381432D01*
X97712858Y-36511954D01*
X97551954Y-36672858D01*
X97421432Y-36859265D01*
X97421431Y-36859267D01*
X97325261Y-37065502D01*
X97325258Y-37065511D01*
X97266366Y-37285302D01*
X97266364Y-37285313D01*
X97246532Y-37511998D01*
X97246532Y-37512001D01*
X97266364Y-37738686D01*
X97266366Y-37738697D01*
X97325258Y-37958488D01*
X97325261Y-37958497D01*
X97421431Y-38164732D01*
X97421432Y-38164734D01*
X97551954Y-38351141D01*
X97712858Y-38512045D01*
X97712861Y-38512047D01*
X97898624Y-38642118D01*
X97942248Y-38696693D01*
X97951500Y-38743692D01*
X97951500Y-42446903D01*
X97931815Y-42513942D01*
X97879011Y-42559697D01*
X97809853Y-42569641D01*
X97746297Y-42540616D01*
X97739819Y-42534584D01*
X93095849Y-37890614D01*
X93062364Y-37829291D01*
X93067348Y-37759599D01*
X93076149Y-37740923D01*
X93078561Y-37736743D01*
X93078568Y-37736734D01*
X93174739Y-37530496D01*
X93233635Y-37310692D01*
X93253468Y-37084000D01*
X93251850Y-37065511D01*
X93237135Y-36897313D01*
X93233635Y-36857308D01*
X93174739Y-36637504D01*
X93078568Y-36431266D01*
X92948047Y-36244861D01*
X92948045Y-36244858D01*
X92787141Y-36083954D01*
X92600734Y-35953432D01*
X92600732Y-35953431D01*
X92394497Y-35857261D01*
X92394488Y-35857258D01*
X92174697Y-35798366D01*
X92174693Y-35798365D01*
X92174692Y-35798365D01*
X92174691Y-35798364D01*
X92174686Y-35798364D01*
X91948002Y-35778532D01*
X91947998Y-35778532D01*
X91721313Y-35798364D01*
X91721302Y-35798366D01*
X91501511Y-35857258D01*
X91501502Y-35857261D01*
X91295267Y-35953431D01*
X91295265Y-35953432D01*
X91108858Y-36083954D01*
X90947954Y-36244858D01*
X90817432Y-36431265D01*
X90817431Y-36431267D01*
X90721261Y-36637502D01*
X90721258Y-36637511D01*
X90662366Y-36857302D01*
X90662364Y-36857313D01*
X90642532Y-37083998D01*
X78013468Y-37083998D01*
X78011850Y-37065511D01*
X77997135Y-36897313D01*
X77993635Y-36857308D01*
X77934739Y-36637504D01*
X77838568Y-36431266D01*
X77708047Y-36244861D01*
X77708045Y-36244858D01*
X77547140Y-36083953D01*
X77361377Y-35953881D01*
X77317752Y-35899304D01*
X77308500Y-35852306D01*
X77308500Y-33743692D01*
X77328185Y-33676653D01*
X77361374Y-33642119D01*
X77547139Y-33512047D01*
X77708047Y-33351139D01*
X77838568Y-33164734D01*
X77934739Y-32958496D01*
X77993635Y-32738692D01*
X78013468Y-32512000D01*
X77993635Y-32285308D01*
X77934739Y-32065504D01*
X77838568Y-31859266D01*
X77708047Y-31672861D01*
X77708045Y-31672858D01*
X77547141Y-31511954D01*
X77360734Y-31381432D01*
X77360732Y-31381431D01*
X77154497Y-31285261D01*
X77154488Y-31285258D01*
X76934697Y-31226366D01*
X76934693Y-31226365D01*
X76934692Y-31226365D01*
X76934691Y-31226364D01*
X76934686Y-31226364D01*
X76708002Y-31206532D01*
X76707998Y-31206532D01*
X76481313Y-31226364D01*
X76481302Y-31226366D01*
X76261511Y-31285258D01*
X76261502Y-31285261D01*
X76055267Y-31381431D01*
X76055265Y-31381432D01*
X75868858Y-31511954D01*
X75707954Y-31672858D01*
X75577432Y-31859265D01*
X75577431Y-31859267D01*
X75481261Y-32065502D01*
X75481258Y-32065511D01*
X75422366Y-32285302D01*
X75422364Y-32285313D01*
X75402532Y-32511998D01*
X75402532Y-32512001D01*
X75422364Y-32738686D01*
X75422366Y-32738697D01*
X75481258Y-32958488D01*
X75481261Y-32958497D01*
X75577431Y-33164732D01*
X75577432Y-33164734D01*
X75707954Y-33351141D01*
X75868858Y-33512045D01*
X75868861Y-33512047D01*
X76054624Y-33642118D01*
X76098248Y-33696693D01*
X76107500Y-33743692D01*
X76107500Y-35852306D01*
X76087815Y-35919345D01*
X76054623Y-35953881D01*
X75868859Y-36083953D01*
X75707954Y-36244858D01*
X75577432Y-36431265D01*
X75573851Y-36438943D01*
X75567807Y-36451905D01*
X75521637Y-36504343D01*
X75455426Y-36523500D01*
X73367692Y-36523500D01*
X73300653Y-36503815D01*
X73266119Y-36470625D01*
X73136047Y-36284861D01*
X73136045Y-36284858D01*
X72975141Y-36123954D01*
X72788734Y-35993432D01*
X72788732Y-35993431D01*
X72582497Y-35897261D01*
X72582488Y-35897258D01*
X72362697Y-35838366D01*
X72362693Y-35838365D01*
X72362692Y-35838365D01*
X72362691Y-35838364D01*
X72362686Y-35838364D01*
X72136002Y-35818532D01*
X72135998Y-35818532D01*
X71909313Y-35838364D01*
X71909302Y-35838366D01*
X71689511Y-35897258D01*
X71689502Y-35897261D01*
X71483267Y-35993431D01*
X71483265Y-35993432D01*
X71296858Y-36123954D01*
X71135954Y-36284858D01*
X71005432Y-36471265D01*
X71005431Y-36471267D01*
X70909261Y-36677502D01*
X70909258Y-36677511D01*
X70850366Y-36897302D01*
X70850364Y-36897313D01*
X70830532Y-37123998D01*
X65274500Y-37123998D01*
X65274500Y-27939997D01*
X75403034Y-27939997D01*
X75403034Y-27940002D01*
X75422858Y-28166599D01*
X75422860Y-28166610D01*
X75481730Y-28386317D01*
X75481735Y-28386331D01*
X75577863Y-28592478D01*
X75628974Y-28665472D01*
X76308000Y-27986446D01*
X76308000Y-27992661D01*
X76335259Y-28094394D01*
X76387920Y-28185606D01*
X76462394Y-28260080D01*
X76553606Y-28312741D01*
X76655339Y-28340000D01*
X76661553Y-28340000D01*
X75982526Y-29019025D01*
X76055513Y-29070132D01*
X76055521Y-29070136D01*
X76261668Y-29166264D01*
X76261682Y-29166269D01*
X76481389Y-29225139D01*
X76481400Y-29225141D01*
X76707998Y-29244966D01*
X76708002Y-29244966D01*
X76934599Y-29225141D01*
X76934610Y-29225139D01*
X77154317Y-29166269D01*
X77154331Y-29166264D01*
X77360478Y-29070136D01*
X77433471Y-29019024D01*
X76754447Y-28340000D01*
X76760661Y-28340000D01*
X76862394Y-28312741D01*
X76953606Y-28260080D01*
X77028080Y-28185606D01*
X77080741Y-28094394D01*
X77108000Y-27992661D01*
X77108000Y-27986447D01*
X77787024Y-28665471D01*
X77838136Y-28592478D01*
X77934264Y-28386331D01*
X77934269Y-28386317D01*
X77993139Y-28166610D01*
X77993141Y-28166599D01*
X78012966Y-27940002D01*
X78012966Y-27939998D01*
X90642532Y-27939998D01*
X90642532Y-27940001D01*
X90662364Y-28166686D01*
X90662366Y-28166697D01*
X90721258Y-28386488D01*
X90721261Y-28386497D01*
X90817431Y-28592732D01*
X90817432Y-28592734D01*
X90947954Y-28779141D01*
X91108858Y-28940045D01*
X91108861Y-28940047D01*
X91295266Y-29070568D01*
X91501504Y-29166739D01*
X91721308Y-29225635D01*
X91883230Y-29239801D01*
X91947998Y-29245468D01*
X91948000Y-29245468D01*
X91948002Y-29245468D01*
X92004673Y-29240509D01*
X92174692Y-29225635D01*
X92394496Y-29166739D01*
X92600734Y-29070568D01*
X92787139Y-28940047D01*
X92948047Y-28779139D01*
X93078568Y-28592734D01*
X93174739Y-28386496D01*
X93233635Y-28166692D01*
X93250634Y-27972384D01*
X93253468Y-27940001D01*
X93253468Y-27939998D01*
X93233635Y-27713313D01*
X93233635Y-27713308D01*
X93207847Y-27617066D01*
X93209510Y-27547217D01*
X93239939Y-27497294D01*
X94348713Y-26388521D01*
X94348716Y-26388520D01*
X94460520Y-26276716D01*
X94510639Y-26189904D01*
X94539577Y-26139785D01*
X94580501Y-25987057D01*
X94580501Y-25828943D01*
X94580501Y-25821348D01*
X94580500Y-25821330D01*
X94580500Y-24091692D01*
X94600185Y-24024653D01*
X94633374Y-23990119D01*
X94819139Y-23860047D01*
X94980047Y-23699139D01*
X95110118Y-23513375D01*
X95164693Y-23469752D01*
X95211692Y-23460500D01*
X98495903Y-23460500D01*
X98562942Y-23480185D01*
X98583584Y-23496819D01*
X104081743Y-28994979D01*
X104115228Y-29056302D01*
X104110244Y-29125994D01*
X104104548Y-29138953D01*
X104058778Y-29228783D01*
X103995523Y-29423461D01*
X103995523Y-29423464D01*
X103963500Y-29625648D01*
X103963500Y-29830351D01*
X103995522Y-30032534D01*
X104032726Y-30147035D01*
X104058780Y-30227219D01*
X104058781Y-30227222D01*
X104058782Y-30227223D01*
X104095248Y-30298792D01*
X104108144Y-30367462D01*
X104081868Y-30432202D01*
X104024761Y-30472459D01*
X103954955Y-30475451D01*
X103922766Y-30462476D01*
X103913906Y-30457361D01*
X103913906Y-30457359D01*
X103913900Y-30457358D01*
X103863785Y-30428423D01*
X103711057Y-30387499D01*
X103552943Y-30387499D01*
X103545347Y-30387499D01*
X103545331Y-30387500D01*
X99996940Y-30387500D01*
X99956019Y-30398464D01*
X99956019Y-30398465D01*
X99918751Y-30408451D01*
X99844214Y-30428423D01*
X99844209Y-30428426D01*
X99707290Y-30507475D01*
X99707282Y-30507481D01*
X99595478Y-30619286D01*
X98994705Y-31220058D01*
X98933382Y-31253543D01*
X98874931Y-31252152D01*
X98778697Y-31226366D01*
X98778693Y-31226365D01*
X98778692Y-31226365D01*
X98778691Y-31226364D01*
X98778686Y-31226364D01*
X98552002Y-31206532D01*
X98551998Y-31206532D01*
X98325313Y-31226364D01*
X98325302Y-31226366D01*
X98105511Y-31285258D01*
X98105502Y-31285261D01*
X97899267Y-31381431D01*
X97899265Y-31381432D01*
X97712858Y-31511954D01*
X97551954Y-31672858D01*
X97484793Y-31768776D01*
X97421881Y-31858624D01*
X97367307Y-31902248D01*
X97320308Y-31911500D01*
X93179692Y-31911500D01*
X93112653Y-31891815D01*
X93078119Y-31858625D01*
X92948047Y-31672861D01*
X92948045Y-31672858D01*
X92787141Y-31511954D01*
X92600734Y-31381432D01*
X92600732Y-31381431D01*
X92394497Y-31285261D01*
X92394488Y-31285258D01*
X92174697Y-31226366D01*
X92174693Y-31226365D01*
X92174692Y-31226365D01*
X92174691Y-31226364D01*
X92174686Y-31226364D01*
X91948002Y-31206532D01*
X91947998Y-31206532D01*
X91721313Y-31226364D01*
X91721302Y-31226366D01*
X91501511Y-31285258D01*
X91501502Y-31285261D01*
X91295267Y-31381431D01*
X91295265Y-31381432D01*
X91108858Y-31511954D01*
X90947954Y-31672858D01*
X90817432Y-31859265D01*
X90817431Y-31859267D01*
X90721261Y-32065502D01*
X90721258Y-32065511D01*
X90662366Y-32285302D01*
X90662364Y-32285313D01*
X90642532Y-32511998D01*
X90642532Y-32512001D01*
X90662364Y-32738686D01*
X90662366Y-32738697D01*
X90721258Y-32958488D01*
X90721261Y-32958497D01*
X90817431Y-33164732D01*
X90817432Y-33164734D01*
X90947954Y-33351141D01*
X91108858Y-33512045D01*
X91143751Y-33536477D01*
X91295266Y-33642568D01*
X91501504Y-33738739D01*
X91721308Y-33797635D01*
X91883230Y-33811801D01*
X91947998Y-33817468D01*
X91948000Y-33817468D01*
X91948002Y-33817468D01*
X92004673Y-33812509D01*
X92174692Y-33797635D01*
X92394496Y-33738739D01*
X92600734Y-33642568D01*
X92787139Y-33512047D01*
X92948047Y-33351139D01*
X93078118Y-33165375D01*
X93132693Y-33121752D01*
X93179692Y-33112500D01*
X97320308Y-33112500D01*
X97387347Y-33132185D01*
X97421880Y-33165374D01*
X97488114Y-33259966D01*
X97551954Y-33351141D01*
X97712858Y-33512045D01*
X97747751Y-33536477D01*
X97899266Y-33642568D01*
X98105504Y-33738739D01*
X98325308Y-33797635D01*
X98487230Y-33811801D01*
X98551998Y-33817468D01*
X98552000Y-33817468D01*
X98552002Y-33817468D01*
X98608673Y-33812509D01*
X98778692Y-33797635D01*
X98998496Y-33738739D01*
X99204734Y-33642568D01*
X99391139Y-33512047D01*
X99552047Y-33351139D01*
X99682568Y-33164734D01*
X99778739Y-32958496D01*
X99837635Y-32738692D01*
X99857468Y-32512000D01*
X99837635Y-32285308D01*
X99811847Y-32189066D01*
X99813510Y-32119217D01*
X99843939Y-32069294D01*
X100288416Y-31624819D01*
X100349739Y-31591334D01*
X100376097Y-31588500D01*
X103331903Y-31588500D01*
X103398942Y-31608185D01*
X103419584Y-31624819D01*
X103927181Y-32132416D01*
X103960666Y-32193739D01*
X103963500Y-32220097D01*
X103963500Y-32370351D01*
X103995522Y-32572534D01*
X104058781Y-32767223D01*
X104151715Y-32949613D01*
X104272028Y-33115213D01*
X104416786Y-33259971D01*
X104553742Y-33359473D01*
X104582390Y-33380287D01*
X104654084Y-33416817D01*
X104675080Y-33427515D01*
X104725876Y-33475490D01*
X104742671Y-33543311D01*
X104720134Y-33609446D01*
X104675080Y-33648485D01*
X104582386Y-33695715D01*
X104416786Y-33816028D01*
X104272028Y-33960786D01*
X104151715Y-34126386D01*
X104058781Y-34308776D01*
X103995522Y-34503465D01*
X103963500Y-34705648D01*
X103963500Y-34910351D01*
X103995522Y-35112534D01*
X104058781Y-35307223D01*
X104122691Y-35432653D01*
X104145555Y-35477525D01*
X104151715Y-35489613D01*
X104272028Y-35655213D01*
X104416786Y-35799971D01*
X104495641Y-35857261D01*
X104582390Y-35920287D01*
X104698607Y-35979503D01*
X104764776Y-36013218D01*
X104764778Y-36013218D01*
X104764781Y-36013220D01*
X104869137Y-36047127D01*
X104959465Y-36076477D01*
X105006673Y-36083954D01*
X105161648Y-36108500D01*
X105161649Y-36108500D01*
X106166351Y-36108500D01*
X106166352Y-36108500D01*
X106368534Y-36076477D01*
X106563219Y-36013220D01*
X106745610Y-35920287D01*
X106885665Y-35818532D01*
X106911213Y-35799971D01*
X106911215Y-35799968D01*
X106911219Y-35799966D01*
X107055966Y-35655219D01*
X107055968Y-35655215D01*
X107055971Y-35655213D01*
X107147936Y-35528632D01*
X107176287Y-35489610D01*
X107269220Y-35307219D01*
X107332477Y-35112534D01*
X107364500Y-34910352D01*
X107364500Y-34705648D01*
X107332477Y-34503466D01*
X107269220Y-34308781D01*
X107269218Y-34308778D01*
X107269218Y-34308776D01*
X107235503Y-34242607D01*
X107176287Y-34126390D01*
X107141435Y-34078420D01*
X107055971Y-33960786D01*
X106911213Y-33816028D01*
X106745614Y-33695715D01*
X106739006Y-33692348D01*
X106652917Y-33648483D01*
X106602123Y-33600511D01*
X106585328Y-33532690D01*
X106607865Y-33466555D01*
X106652917Y-33427516D01*
X106745610Y-33380287D01*
X106844606Y-33308363D01*
X106911213Y-33259971D01*
X106911215Y-33259968D01*
X106911219Y-33259966D01*
X107055966Y-33115219D01*
X107055968Y-33115215D01*
X107055971Y-33115213D01*
X107108732Y-33042590D01*
X107176287Y-32949610D01*
X107269220Y-32767219D01*
X107332477Y-32572534D01*
X107364500Y-32370352D01*
X107364500Y-32165648D01*
X107332477Y-31963465D01*
X107269218Y-31768776D01*
X107220346Y-31672861D01*
X107176287Y-31586390D01*
X107122206Y-31511953D01*
X107055971Y-31420786D01*
X106911213Y-31276028D01*
X106745614Y-31155715D01*
X106701516Y-31133246D01*
X106652917Y-31108483D01*
X106602123Y-31060511D01*
X106585328Y-30992690D01*
X106607865Y-30926555D01*
X106652917Y-30887516D01*
X106745610Y-30840287D01*
X106791898Y-30806657D01*
X106911213Y-30719971D01*
X106911215Y-30719968D01*
X106911219Y-30719966D01*
X107055966Y-30575219D01*
X107055968Y-30575215D01*
X107055971Y-30575213D01*
X107141594Y-30457361D01*
X107176287Y-30409610D01*
X107269220Y-30227219D01*
X107332477Y-30032534D01*
X107364500Y-29830352D01*
X107364500Y-29625648D01*
X107349908Y-29533518D01*
X107332477Y-29423465D01*
X107274479Y-29244966D01*
X107269220Y-29228781D01*
X107269218Y-29228778D01*
X107269218Y-29228776D01*
X107188606Y-29070568D01*
X107176287Y-29046390D01*
X107138935Y-28994979D01*
X107055971Y-28880786D01*
X106911219Y-28736034D01*
X106874930Y-28709669D01*
X106832264Y-28654339D01*
X106826285Y-28584726D01*
X106858890Y-28522931D01*
X106919728Y-28488573D01*
X106934562Y-28486060D01*
X106971483Y-28482091D01*
X107050311Y-28452690D01*
X107106331Y-28431796D01*
X107221546Y-28345546D01*
X107307796Y-28230331D01*
X107358091Y-28095483D01*
X107364500Y-28035873D01*
X107364499Y-26340128D01*
X107358091Y-26280517D01*
X107356673Y-26276716D01*
X107307797Y-26145671D01*
X107307793Y-26145664D01*
X107221547Y-26030455D01*
X107221544Y-26030452D01*
X107106335Y-25944206D01*
X107106328Y-25944202D01*
X106971482Y-25893908D01*
X106971483Y-25893908D01*
X106911883Y-25887501D01*
X106911881Y-25887500D01*
X106911873Y-25887500D01*
X106911864Y-25887500D01*
X104416129Y-25887500D01*
X104416123Y-25887501D01*
X104356516Y-25893908D01*
X104221671Y-25944202D01*
X104221664Y-25944206D01*
X104106455Y-26030452D01*
X104106452Y-26030455D01*
X104020206Y-26145664D01*
X104020202Y-26145671D01*
X103969908Y-26280517D01*
X103963501Y-26340116D01*
X103963501Y-26340123D01*
X103963500Y-26340135D01*
X103963500Y-26878902D01*
X103943815Y-26945941D01*
X103891011Y-26991696D01*
X103821853Y-27001640D01*
X103758297Y-26972615D01*
X103751819Y-26966583D01*
X99645233Y-22859998D01*
X107914532Y-22859998D01*
X107914532Y-22860001D01*
X107934364Y-23086686D01*
X107934366Y-23086697D01*
X107993258Y-23306488D01*
X107993261Y-23306497D01*
X108089431Y-23512732D01*
X108089432Y-23512734D01*
X108219954Y-23699141D01*
X108380858Y-23860045D01*
X108380861Y-23860047D01*
X108566624Y-23990118D01*
X108610248Y-24044693D01*
X108619500Y-24091692D01*
X108619500Y-28117330D01*
X108619499Y-28117348D01*
X108619499Y-28283054D01*
X108619498Y-28283054D01*
X108660424Y-28435789D01*
X108660425Y-28435790D01*
X108674128Y-28459523D01*
X108687158Y-28482091D01*
X108737037Y-28568485D01*
X108739479Y-28572714D01*
X108739481Y-28572717D01*
X108858349Y-28691585D01*
X108858355Y-28691590D01*
X111701744Y-31534979D01*
X111735229Y-31596302D01*
X111730245Y-31665994D01*
X111724548Y-31678954D01*
X111678779Y-31768781D01*
X111678779Y-31768782D01*
X111615523Y-31963461D01*
X111615523Y-31963464D01*
X111583500Y-32165648D01*
X111583500Y-32370351D01*
X111615522Y-32572534D01*
X111678781Y-32767223D01*
X111771715Y-32949613D01*
X111892028Y-33115213D01*
X112036786Y-33259971D01*
X112173742Y-33359473D01*
X112202390Y-33380287D01*
X112274084Y-33416817D01*
X112295080Y-33427515D01*
X112345876Y-33475490D01*
X112362671Y-33543311D01*
X112340134Y-33609446D01*
X112295080Y-33648485D01*
X112202386Y-33695715D01*
X112036786Y-33816028D01*
X111892028Y-33960786D01*
X111771715Y-34126386D01*
X111678781Y-34308776D01*
X111615522Y-34503465D01*
X111583500Y-34705648D01*
X111583500Y-34910351D01*
X111615522Y-35112534D01*
X111678781Y-35307223D01*
X111742691Y-35432653D01*
X111765555Y-35477525D01*
X111771715Y-35489613D01*
X111892028Y-35655213D01*
X112036786Y-35799971D01*
X112115641Y-35857261D01*
X112202390Y-35920287D01*
X112318607Y-35979503D01*
X112384776Y-36013218D01*
X112384778Y-36013218D01*
X112384781Y-36013220D01*
X112489137Y-36047127D01*
X112579465Y-36076477D01*
X112626673Y-36083954D01*
X112781648Y-36108500D01*
X112781649Y-36108500D01*
X113786351Y-36108500D01*
X113786352Y-36108500D01*
X113988534Y-36076477D01*
X114183219Y-36013220D01*
X114365610Y-35920287D01*
X114505665Y-35818532D01*
X114531213Y-35799971D01*
X114531215Y-35799968D01*
X114531219Y-35799966D01*
X114675966Y-35655219D01*
X114675968Y-35655215D01*
X114675971Y-35655213D01*
X114767936Y-35528632D01*
X114796287Y-35489610D01*
X114889220Y-35307219D01*
X114952477Y-35112534D01*
X114984500Y-34910352D01*
X114984500Y-34705648D01*
X114952477Y-34503466D01*
X114918370Y-34398497D01*
X118887034Y-34398497D01*
X118887034Y-34398502D01*
X118906858Y-34625099D01*
X118906860Y-34625110D01*
X118965730Y-34844817D01*
X118965735Y-34844831D01*
X119061863Y-35050978D01*
X119112974Y-35123972D01*
X119792000Y-34444946D01*
X119792000Y-34451161D01*
X119819259Y-34552894D01*
X119871920Y-34644106D01*
X119946394Y-34718580D01*
X120037606Y-34771241D01*
X120139339Y-34798500D01*
X120145553Y-34798500D01*
X119466526Y-35477525D01*
X119539513Y-35528632D01*
X119539521Y-35528636D01*
X119745668Y-35624764D01*
X119745682Y-35624769D01*
X119965389Y-35683639D01*
X119965400Y-35683641D01*
X120191998Y-35703466D01*
X120192002Y-35703466D01*
X120418599Y-35683641D01*
X120418610Y-35683639D01*
X120638317Y-35624769D01*
X120638331Y-35624764D01*
X120844478Y-35528636D01*
X120917471Y-35477524D01*
X120238447Y-34798500D01*
X120244661Y-34798500D01*
X120346394Y-34771241D01*
X120437606Y-34718580D01*
X120512080Y-34644106D01*
X120564741Y-34552894D01*
X120592000Y-34451161D01*
X120592000Y-34444947D01*
X121271024Y-35123971D01*
X121322136Y-35050978D01*
X121418264Y-34844831D01*
X121418269Y-34844817D01*
X121477139Y-34625110D01*
X121477141Y-34625099D01*
X121493467Y-34438497D01*
X126507034Y-34438497D01*
X126507034Y-34438502D01*
X126526858Y-34665099D01*
X126526860Y-34665110D01*
X126585730Y-34884817D01*
X126585735Y-34884831D01*
X126681863Y-35090978D01*
X126732974Y-35163972D01*
X127412000Y-34484946D01*
X127412000Y-34491161D01*
X127439259Y-34592894D01*
X127491920Y-34684106D01*
X127566394Y-34758580D01*
X127657606Y-34811241D01*
X127759339Y-34838500D01*
X127765553Y-34838500D01*
X127086526Y-35517525D01*
X127159513Y-35568632D01*
X127159521Y-35568636D01*
X127365668Y-35664764D01*
X127365682Y-35664769D01*
X127585389Y-35723639D01*
X127585400Y-35723641D01*
X127811998Y-35743466D01*
X127812002Y-35743466D01*
X128038599Y-35723641D01*
X128038610Y-35723639D01*
X128258317Y-35664769D01*
X128258331Y-35664764D01*
X128464478Y-35568636D01*
X128537471Y-35517524D01*
X127858447Y-34838500D01*
X127864661Y-34838500D01*
X127966394Y-34811241D01*
X128057606Y-34758580D01*
X128132080Y-34684106D01*
X128184741Y-34592894D01*
X128212000Y-34491161D01*
X128212000Y-34484947D01*
X128891024Y-35163971D01*
X128942136Y-35090978D01*
X129038264Y-34884831D01*
X129038269Y-34884817D01*
X129097139Y-34665110D01*
X129097141Y-34665099D01*
X129116966Y-34438502D01*
X129116966Y-34438497D01*
X129097141Y-34211900D01*
X129097139Y-34211889D01*
X129038269Y-33992182D01*
X129038264Y-33992168D01*
X128942136Y-33786021D01*
X128942132Y-33786013D01*
X128891025Y-33713026D01*
X128212000Y-34392051D01*
X128212000Y-34385839D01*
X128184741Y-34284106D01*
X128132080Y-34192894D01*
X128057606Y-34118420D01*
X127966394Y-34065759D01*
X127864661Y-34038500D01*
X127858448Y-34038500D01*
X128537472Y-33359474D01*
X128464478Y-33308363D01*
X128258331Y-33212235D01*
X128258317Y-33212230D01*
X128038610Y-33153360D01*
X128038599Y-33153358D01*
X127812002Y-33133534D01*
X127811998Y-33133534D01*
X127585400Y-33153358D01*
X127585389Y-33153360D01*
X127365682Y-33212230D01*
X127365673Y-33212234D01*
X127159516Y-33308366D01*
X127159512Y-33308368D01*
X127086526Y-33359473D01*
X127086526Y-33359474D01*
X127765553Y-34038500D01*
X127759339Y-34038500D01*
X127657606Y-34065759D01*
X127566394Y-34118420D01*
X127491920Y-34192894D01*
X127439259Y-34284106D01*
X127412000Y-34385839D01*
X127412000Y-34392052D01*
X126732974Y-33713026D01*
X126732973Y-33713026D01*
X126681868Y-33786012D01*
X126681866Y-33786016D01*
X126585734Y-33992173D01*
X126585730Y-33992182D01*
X126526860Y-34211889D01*
X126526858Y-34211900D01*
X126507034Y-34438497D01*
X121493467Y-34438497D01*
X121496966Y-34398502D01*
X121496966Y-34398497D01*
X121477141Y-34171900D01*
X121477139Y-34171889D01*
X121418269Y-33952182D01*
X121418264Y-33952168D01*
X121322136Y-33746021D01*
X121322132Y-33746013D01*
X121271025Y-33673026D01*
X120592000Y-34352051D01*
X120592000Y-34345839D01*
X120564741Y-34244106D01*
X120512080Y-34152894D01*
X120437606Y-34078420D01*
X120346394Y-34025759D01*
X120244661Y-33998500D01*
X120238448Y-33998500D01*
X120917472Y-33319474D01*
X120844478Y-33268363D01*
X120638331Y-33172235D01*
X120638317Y-33172230D01*
X120418610Y-33113360D01*
X120418599Y-33113358D01*
X120192002Y-33093534D01*
X120191998Y-33093534D01*
X119965400Y-33113358D01*
X119965389Y-33113360D01*
X119745682Y-33172230D01*
X119745673Y-33172234D01*
X119539516Y-33268366D01*
X119539512Y-33268368D01*
X119466526Y-33319473D01*
X119466526Y-33319474D01*
X120145553Y-33998500D01*
X120139339Y-33998500D01*
X120037606Y-34025759D01*
X119946394Y-34078420D01*
X119871920Y-34152894D01*
X119819259Y-34244106D01*
X119792000Y-34345839D01*
X119792000Y-34352052D01*
X119112974Y-33673026D01*
X119112973Y-33673026D01*
X119061868Y-33746012D01*
X119061866Y-33746016D01*
X118965734Y-33952173D01*
X118965730Y-33952182D01*
X118906860Y-34171889D01*
X118906858Y-34171900D01*
X118887034Y-34398497D01*
X114918370Y-34398497D01*
X114889220Y-34308781D01*
X114889218Y-34308778D01*
X114889218Y-34308776D01*
X114855503Y-34242607D01*
X114796287Y-34126390D01*
X114761435Y-34078420D01*
X114675971Y-33960786D01*
X114531213Y-33816028D01*
X114365614Y-33695715D01*
X114359006Y-33692348D01*
X114272917Y-33648483D01*
X114222123Y-33600511D01*
X114205328Y-33532690D01*
X114227865Y-33466555D01*
X114272917Y-33427516D01*
X114365610Y-33380287D01*
X114464606Y-33308363D01*
X114531213Y-33259971D01*
X114531215Y-33259968D01*
X114531219Y-33259966D01*
X114675966Y-33115219D01*
X114675968Y-33115215D01*
X114675971Y-33115213D01*
X114728732Y-33042590D01*
X114796287Y-32949610D01*
X114889220Y-32767219D01*
X114904400Y-32720499D01*
X133945127Y-32720499D01*
X133945128Y-32720500D01*
X134908314Y-32720500D01*
X134903920Y-32724894D01*
X134851259Y-32816106D01*
X134824000Y-32917839D01*
X134824000Y-33023161D01*
X134851259Y-33124894D01*
X134903920Y-33216106D01*
X134908314Y-33220500D01*
X133945128Y-33220500D01*
X133997730Y-33416817D01*
X133997734Y-33416826D01*
X134093865Y-33622982D01*
X134224342Y-33809320D01*
X134385179Y-33970157D01*
X134571517Y-34100634D01*
X134777673Y-34196765D01*
X134777682Y-34196769D01*
X134973999Y-34249372D01*
X134974000Y-34249371D01*
X134974000Y-33286186D01*
X134978394Y-33290580D01*
X135069606Y-33343241D01*
X135171339Y-33370500D01*
X135276661Y-33370500D01*
X135378394Y-33343241D01*
X135469606Y-33290580D01*
X135474000Y-33286186D01*
X135474000Y-34249372D01*
X135670317Y-34196769D01*
X135670326Y-34196765D01*
X135876482Y-34100634D01*
X136062820Y-33970157D01*
X136223657Y-33809320D01*
X136354134Y-33622982D01*
X136450265Y-33416826D01*
X136450269Y-33416817D01*
X136502872Y-33220500D01*
X135539686Y-33220500D01*
X135544080Y-33216106D01*
X135596741Y-33124894D01*
X135624000Y-33023161D01*
X135624000Y-32917839D01*
X135596741Y-32816106D01*
X135544080Y-32724894D01*
X135539686Y-32720500D01*
X136502872Y-32720500D01*
X136502872Y-32720499D01*
X136450269Y-32524182D01*
X136450265Y-32524173D01*
X136354134Y-32318017D01*
X136223657Y-32131679D01*
X136062820Y-31970842D01*
X135876482Y-31840365D01*
X135670328Y-31744234D01*
X135474000Y-31691627D01*
X135474000Y-32654814D01*
X135469606Y-32650420D01*
X135378394Y-32597759D01*
X135276661Y-32570500D01*
X135171339Y-32570500D01*
X135069606Y-32597759D01*
X134978394Y-32650420D01*
X134974000Y-32654814D01*
X134974000Y-31691627D01*
X134777671Y-31744234D01*
X134571517Y-31840365D01*
X134385179Y-31970842D01*
X134224342Y-32131679D01*
X134093865Y-32318017D01*
X133997734Y-32524173D01*
X133997730Y-32524182D01*
X133945127Y-32720499D01*
X114904400Y-32720499D01*
X114952477Y-32572534D01*
X114984500Y-32370352D01*
X114984500Y-32165648D01*
X114952477Y-31963465D01*
X114889218Y-31768776D01*
X114840346Y-31672861D01*
X114796287Y-31586390D01*
X114742206Y-31511953D01*
X114675971Y-31420786D01*
X114674274Y-31419089D01*
X114673759Y-31418197D01*
X114672809Y-31417085D01*
X114673015Y-31416908D01*
X114642180Y-31363501D01*
X114618743Y-31276034D01*
X114615577Y-31264215D01*
X114609415Y-31253543D01*
X114604983Y-31245866D01*
X114536519Y-31127284D01*
X114424716Y-31015481D01*
X114422775Y-31014360D01*
X114421468Y-31012989D01*
X114418267Y-31010533D01*
X114418650Y-31010033D01*
X114374563Y-30963793D01*
X114361342Y-30895186D01*
X114387311Y-30830322D01*
X114411889Y-30806663D01*
X114531219Y-30719966D01*
X114675966Y-30575219D01*
X114675968Y-30575215D01*
X114675971Y-30575213D01*
X114761594Y-30457361D01*
X114796287Y-30409610D01*
X114889220Y-30227219D01*
X114952477Y-30032534D01*
X114984500Y-29830352D01*
X114984500Y-29625648D01*
X114969908Y-29533518D01*
X114952477Y-29423465D01*
X114894479Y-29244966D01*
X114889220Y-29228781D01*
X114889218Y-29228778D01*
X114889218Y-29228776D01*
X114808606Y-29070568D01*
X114796287Y-29046390D01*
X114758935Y-28994979D01*
X114675971Y-28880786D01*
X114531213Y-28736028D01*
X114365614Y-28615715D01*
X114320507Y-28592732D01*
X114272917Y-28568483D01*
X114222123Y-28520511D01*
X114205328Y-28452690D01*
X114227865Y-28386555D01*
X114272917Y-28347516D01*
X114365610Y-28300287D01*
X114420951Y-28260080D01*
X114531213Y-28179971D01*
X114531215Y-28179968D01*
X114531219Y-28179966D01*
X114675966Y-28035219D01*
X114675968Y-28035215D01*
X114675971Y-28035213D01*
X114728732Y-27962590D01*
X114796287Y-27869610D01*
X114889220Y-27687219D01*
X114952477Y-27492534D01*
X114984500Y-27290352D01*
X114984500Y-27085648D01*
X114952477Y-26883466D01*
X114889220Y-26688781D01*
X114889218Y-26688778D01*
X114889218Y-26688776D01*
X114855503Y-26622607D01*
X114796287Y-26506390D01*
X114718070Y-26398732D01*
X114675971Y-26340786D01*
X114531213Y-26196028D01*
X114365613Y-26075715D01*
X114365612Y-26075714D01*
X114365610Y-26075713D01*
X114308653Y-26046691D01*
X114183223Y-25982781D01*
X113988534Y-25919522D01*
X113813995Y-25891878D01*
X113786352Y-25887500D01*
X112781648Y-25887500D01*
X112757329Y-25891351D01*
X112579465Y-25919522D01*
X112384776Y-25982781D01*
X112202386Y-26075715D01*
X112036786Y-26196028D01*
X111892028Y-26340786D01*
X111771715Y-26506386D01*
X111678781Y-26688776D01*
X111615522Y-26883465D01*
X111583500Y-27085648D01*
X111583500Y-27290351D01*
X111615522Y-27492534D01*
X111678781Y-27687223D01*
X111771715Y-27869613D01*
X111892028Y-28035213D01*
X112036786Y-28179971D01*
X112178675Y-28283057D01*
X112202390Y-28300287D01*
X112280331Y-28340000D01*
X112295080Y-28347515D01*
X112345876Y-28395490D01*
X112362671Y-28463311D01*
X112340134Y-28529446D01*
X112295080Y-28568485D01*
X112202386Y-28615715D01*
X112036786Y-28736028D01*
X111892028Y-28880786D01*
X111771715Y-29046386D01*
X111678781Y-29228776D01*
X111615523Y-29423464D01*
X111608907Y-29465236D01*
X111578977Y-29528370D01*
X111519666Y-29565301D01*
X111449803Y-29564303D01*
X111398753Y-29533518D01*
X109856819Y-27991584D01*
X109823334Y-27930261D01*
X109820500Y-27903903D01*
X109820500Y-24091692D01*
X109840185Y-24024653D01*
X109873374Y-23990119D01*
X110059139Y-23860047D01*
X110220047Y-23699139D01*
X110350568Y-23512734D01*
X110446739Y-23306496D01*
X110505635Y-23086692D01*
X110525468Y-22860000D01*
X110505635Y-22633308D01*
X110446739Y-22413504D01*
X110350568Y-22207266D01*
X110220047Y-22020861D01*
X110220045Y-22020858D01*
X110059141Y-21859954D01*
X109872734Y-21729432D01*
X109872732Y-21729431D01*
X109666497Y-21633261D01*
X109666488Y-21633258D01*
X109446697Y-21574366D01*
X109446693Y-21574365D01*
X109446692Y-21574365D01*
X109446691Y-21574364D01*
X109446686Y-21574364D01*
X109220002Y-21554532D01*
X109219998Y-21554532D01*
X108993313Y-21574364D01*
X108993302Y-21574366D01*
X108773511Y-21633258D01*
X108773502Y-21633261D01*
X108567267Y-21729431D01*
X108567265Y-21729432D01*
X108380858Y-21859954D01*
X108219954Y-22020858D01*
X108089432Y-22207265D01*
X108089431Y-22207267D01*
X107993261Y-22413502D01*
X107993258Y-22413511D01*
X107934366Y-22633302D01*
X107934364Y-22633313D01*
X107914532Y-22859998D01*
X99645233Y-22859998D01*
X99283590Y-22498355D01*
X99283588Y-22498352D01*
X99164717Y-22379481D01*
X99164716Y-22379480D01*
X99077904Y-22329360D01*
X99077904Y-22329359D01*
X99077900Y-22329358D01*
X99027785Y-22300423D01*
X98875057Y-22259499D01*
X98716943Y-22259499D01*
X98709347Y-22259499D01*
X98709331Y-22259500D01*
X95211692Y-22259500D01*
X95144653Y-22239815D01*
X95110119Y-22206625D01*
X94980047Y-22020861D01*
X94980045Y-22020858D01*
X94819141Y-21859954D01*
X94632734Y-21729432D01*
X94632732Y-21729431D01*
X94426497Y-21633261D01*
X94426488Y-21633258D01*
X94206697Y-21574366D01*
X94206693Y-21574365D01*
X94206692Y-21574365D01*
X94206691Y-21574364D01*
X94206686Y-21574364D01*
X93980002Y-21554532D01*
X93979998Y-21554532D01*
X93753313Y-21574364D01*
X93753302Y-21574366D01*
X93533511Y-21633258D01*
X93533502Y-21633261D01*
X93327267Y-21729431D01*
X93327265Y-21729432D01*
X93140858Y-21859954D01*
X92979954Y-22020858D01*
X92849432Y-22207265D01*
X92849431Y-22207267D01*
X92753261Y-22413502D01*
X92753258Y-22413511D01*
X92694366Y-22633302D01*
X92694364Y-22633313D01*
X92674532Y-22859998D01*
X92674532Y-22860001D01*
X92694364Y-23086686D01*
X92694366Y-23086697D01*
X92753258Y-23306488D01*
X92753261Y-23306497D01*
X92849431Y-23512732D01*
X92849432Y-23512734D01*
X92979954Y-23699141D01*
X93140858Y-23860045D01*
X93140861Y-23860047D01*
X93326624Y-23990118D01*
X93370248Y-24044693D01*
X93379500Y-24091692D01*
X93379500Y-25607902D01*
X93359815Y-25674941D01*
X93343181Y-25695583D01*
X92390705Y-26648058D01*
X92329382Y-26681543D01*
X92270931Y-26680152D01*
X92174697Y-26654366D01*
X92174693Y-26654365D01*
X92174692Y-26654365D01*
X92174691Y-26654364D01*
X92174686Y-26654364D01*
X91948002Y-26634532D01*
X91947998Y-26634532D01*
X91721313Y-26654364D01*
X91721302Y-26654366D01*
X91501511Y-26713258D01*
X91501502Y-26713261D01*
X91295267Y-26809431D01*
X91295265Y-26809432D01*
X91108858Y-26939954D01*
X90947954Y-27100858D01*
X90817432Y-27287265D01*
X90817431Y-27287267D01*
X90721261Y-27493502D01*
X90721258Y-27493511D01*
X90662366Y-27713302D01*
X90662364Y-27713313D01*
X90642532Y-27939998D01*
X78012966Y-27939998D01*
X78012966Y-27939997D01*
X77993141Y-27713400D01*
X77993139Y-27713389D01*
X77934269Y-27493682D01*
X77934264Y-27493668D01*
X77838136Y-27287521D01*
X77838132Y-27287513D01*
X77787025Y-27214526D01*
X77108000Y-27893551D01*
X77108000Y-27887339D01*
X77080741Y-27785606D01*
X77028080Y-27694394D01*
X76953606Y-27619920D01*
X76862394Y-27567259D01*
X76760661Y-27540000D01*
X76754448Y-27540000D01*
X77433472Y-26860974D01*
X77360478Y-26809863D01*
X77154331Y-26713735D01*
X77154317Y-26713730D01*
X76934610Y-26654860D01*
X76934599Y-26654858D01*
X76708002Y-26635034D01*
X76707998Y-26635034D01*
X76481400Y-26654858D01*
X76481389Y-26654860D01*
X76261682Y-26713730D01*
X76261673Y-26713734D01*
X76055516Y-26809866D01*
X76055512Y-26809868D01*
X75982526Y-26860973D01*
X75982526Y-26860974D01*
X76661553Y-27540000D01*
X76655339Y-27540000D01*
X76553606Y-27567259D01*
X76462394Y-27619920D01*
X76387920Y-27694394D01*
X76335259Y-27785606D01*
X76308000Y-27887339D01*
X76308000Y-27893552D01*
X75628974Y-27214526D01*
X75628973Y-27214526D01*
X75577868Y-27287512D01*
X75577866Y-27287516D01*
X75481734Y-27493673D01*
X75481730Y-27493682D01*
X75422860Y-27713389D01*
X75422858Y-27713400D01*
X75403034Y-27939997D01*
X65274500Y-27939997D01*
X65274500Y-15374500D01*
X65294185Y-15307461D01*
X65346989Y-15261706D01*
X65398500Y-15250500D01*
X149625500Y-15250500D01*
X149692539Y-15270185D01*
G37*
%TD.AperFunction*%
%TD*%
M02*
