%TF.GenerationSoftware,KiCad,Pcbnew,8.0.4*%
%TF.CreationDate,2025-12-30T09:28:17+05:30*%
%TF.ProjectId,inv,696e762e-6b69-4636-9164-5f7063625858,rev?*%
%TF.SameCoordinates,Original*%
%TF.FileFunction,Paste,Top*%
%TF.FilePolarity,Positive*%
%FSLAX46Y46*%
G04 Gerber Fmt 4.6, Leading zero omitted, Abs format (unit mm)*
G04 Created by KiCad (PCBNEW 8.0.4) date 2025-12-30 09:28:17*
%MOMM*%
%LPD*%
G01*
G04 APERTURE LIST*
G04 Aperture macros list*
%AMRoundRect*
0 Rectangle with rounded corners*
0 $1 Rounding radius*
0 $2 $3 $4 $5 $6 $7 $8 $9 X,Y pos of 4 corners*
0 Add a 4 corners polygon primitive as box body*
4,1,4,$2,$3,$4,$5,$6,$7,$8,$9,$2,$3,0*
0 Add four circle primitives for the rounded corners*
1,1,$1+$1,$2,$3*
1,1,$1+$1,$4,$5*
1,1,$1+$1,$6,$7*
1,1,$1+$1,$8,$9*
0 Add four rect primitives between the rounded corners*
20,1,$1+$1,$2,$3,$4,$5,0*
20,1,$1+$1,$4,$5,$6,$7,0*
20,1,$1+$1,$6,$7,$8,$9,0*
20,1,$1+$1,$8,$9,$2,$3,0*%
G04 Aperture macros list end*
%ADD10R,1.500000X0.550000*%
%ADD11R,0.550000X1.500000*%
%ADD12R,2.000000X2.400000*%
%ADD13RoundRect,0.250000X-0.525000X-0.250000X0.525000X-0.250000X0.525000X0.250000X-0.525000X0.250000X0*%
G04 APERTURE END LIST*
D10*
%TO.C,U1*%
X128524000Y-59590500D03*
X128524000Y-58790500D03*
X128524000Y-57990500D03*
X128524000Y-57190500D03*
X128524000Y-56390500D03*
X128524000Y-55590500D03*
X128524000Y-54790500D03*
X128524000Y-53990500D03*
X128524000Y-53190500D03*
X128524000Y-52390500D03*
X128524000Y-51590500D03*
D11*
X126824000Y-49890500D03*
X126024000Y-49890500D03*
X125224000Y-49890500D03*
X124424000Y-49890500D03*
X123624000Y-49890500D03*
X122824000Y-49890500D03*
X122024000Y-49890500D03*
X121224000Y-49890500D03*
X120424000Y-49890500D03*
X119624000Y-49890500D03*
X118824000Y-49890500D03*
D10*
X117124000Y-51590500D03*
X117124000Y-52390500D03*
X117124000Y-53190500D03*
X117124000Y-53990500D03*
X117124000Y-54790500D03*
X117124000Y-55590500D03*
X117124000Y-56390500D03*
X117124000Y-57190500D03*
X117124000Y-57990500D03*
X117124000Y-58790500D03*
X117124000Y-59590500D03*
D11*
X118824000Y-61290500D03*
X119624000Y-61290500D03*
X120424000Y-61290500D03*
X121224000Y-61290500D03*
X122024000Y-61290500D03*
X122824000Y-61290500D03*
X123624000Y-61290500D03*
X124424000Y-61290500D03*
X125224000Y-61290500D03*
X126024000Y-61290500D03*
X126824000Y-61290500D03*
%TD*%
D12*
%TO.C,Crystal1*%
X121898000Y-45026500D03*
X125598000Y-45026500D03*
%TD*%
D13*
%TO.C,SW1*%
X137599000Y-53990500D03*
X142849000Y-53990500D03*
X137599000Y-57190500D03*
X142849000Y-57190500D03*
%TD*%
M02*
